<svg width="142" height="45" viewBox="0 0 142 45" fill="none" xmlns="http://www.w3.org/2000/svg">
<g clip-path="url(#clip0_2256_8617)">
<path d="M36.8547 24.9193L31.5121 21.8076L2.37769 38.7767V45.0001L36.8547 24.9193Z" fill="#131226"/>
<path d="M0.00146484 0V40.1616L34.4757 20.0808L0.00146484 0ZM8.63231 15.2453L16.9386 20.0836L8.63231 24.922V15.2453Z" fill="url(#paint0_linear_2256_8617)"/>
<path d="M56.8045 22.9832H53.9112V26.102C53.912 26.503 53.7549 26.888 53.4746 27.1724C53.1943 27.4568 52.8136 27.6174 52.4161 27.6189H52.3683C51.9702 27.6189 51.5885 27.4593 51.3071 27.1754C51.0256 26.8915 50.8675 26.5064 50.8675 26.1048V15.104C50.8675 14.7024 51.0256 14.3173 51.3071 14.0334C51.5885 13.7495 51.9702 13.5899 52.3683 13.5899C52.761 13.5899 53.1381 13.7451 53.4187 14.0223C53.6993 14.2995 53.861 14.6767 53.8691 15.0728L53.9168 17.4502H56.8102V14.6716C56.8102 13.5922 56.3851 12.5569 55.6285 11.7936C54.8719 11.0304 53.8458 10.6016 52.7758 10.6016H51.7795C51.2497 10.6016 50.7251 10.7068 50.2356 10.9114C49.7461 11.1159 49.3014 11.4157 48.9268 11.7936C48.5521 12.1716 48.255 12.6203 48.0522 13.1141C47.8495 13.6079 47.7451 14.1371 47.7451 14.6716V26.2962C47.7451 26.8307 47.8495 27.3599 48.0522 27.8537C48.255 28.3475 48.5521 28.7962 48.9268 29.1742C49.3014 29.5521 49.7461 29.8519 50.2356 30.0564C50.7251 30.261 51.2497 30.3662 51.7795 30.3662H52.7758C53.8458 30.3662 54.8719 29.9374 55.6285 29.1742C56.3851 28.4109 56.8102 27.3756 56.8102 26.2962L56.8045 22.9832Z" fill="#131226"/>
<path d="M68.2304 27.3914V23.5964C68.2304 22.8445 67.9343 22.1233 67.4073 21.5916C66.8802 21.0599 66.1654 20.7611 65.42 20.7611C66.1616 20.7611 66.8729 20.4639 67.3973 19.9349C67.9218 19.4058 68.2164 18.6883 68.2164 17.9401V14.6228C68.2164 13.6177 67.8207 12.6537 67.1163 11.9428C66.4119 11.232 65.4565 10.8324 64.4602 10.832H59.1387V30.3642H62.2119V22.4042H63.4541C63.9229 22.4042 64.3726 22.5921 64.7041 22.9265C65.0356 23.261 65.2219 23.7146 65.2219 24.1876V27.5204C65.2219 28.4788 65.2851 29.481 65.5521 30.2508H68.5677C68.3425 29.3147 68.2293 28.3547 68.2304 27.3914ZM65.0771 18.1768C65.0771 18.5389 64.9345 18.8861 64.6808 19.1421C64.427 19.3982 64.0828 19.542 63.7239 19.542H62.2442V13.7297H63.7239C64.0828 13.7297 64.427 13.8735 64.6808 14.1295C64.9345 14.3856 65.0771 14.7328 65.0771 15.0949V18.1768Z" fill="#131226"/>
<path d="M70.7935 10.834H78.8299V13.7302H73.8343V19.5439H77.6762V22.3338H73.8343V30.3647H70.7935V10.834Z" fill="#131226"/>
<path d="M89.2665 10.834H79.8853V13.7302H83.0554V30.3647H86.0977V13.7302H89.2665V10.834Z" fill="#131226"/>
<path d="M104.689 10.834L100.826 28.8011L96.9613 10.834H95.6812L99.8799 30.3647H101.77L105.969 10.834H104.689Z" fill="#131226"/>
<path d="M109.641 10.834H108.403V30.3647H109.641V10.834Z" fill="#131226"/>
<path d="M116.916 10.832H112.502V30.3642H116.916C117.447 30.3642 117.974 30.2585 118.466 30.0531C118.957 29.8477 119.404 29.5466 119.78 29.1671C120.156 28.7875 120.454 28.337 120.657 27.8411C120.861 27.3452 120.966 26.8138 120.965 26.2772V14.9191C120.966 14.3824 120.861 13.851 120.657 13.3551C120.454 12.8593 120.156 12.4087 119.78 12.0292C119.404 11.6497 118.957 11.3486 118.466 11.1432C117.974 10.9378 117.447 10.832 116.916 10.832ZM119.585 26.1425C119.586 26.5095 119.514 26.8729 119.375 27.212C119.236 27.5511 119.032 27.8592 118.775 28.1187C118.517 28.3782 118.212 28.584 117.876 28.7243C117.54 28.8647 117.18 28.9368 116.816 28.9367H113.737V12.1136H116.816C117.55 12.1136 118.255 12.408 118.774 12.932C119.294 13.456 119.585 14.1667 119.585 14.9077V26.1425Z" fill="#131226"/>
<path d="M131.188 12.0815V10.834H124.838H124.039H123.6V30.3647H124.039H124.838H131.188V29.1158H124.838V21.2238H129.994V19.9749H124.838V12.0815H131.188Z" fill="#131226"/>
<path d="M138.147 10.832H137.527C136.506 10.8324 135.526 11.2421 134.804 11.9711C134.081 12.7 133.676 13.6885 133.676 14.7192V26.4771C133.676 27.5077 134.081 28.4963 134.804 29.2252C135.526 29.9541 136.506 30.3638 137.527 30.3642H138.147C138.653 30.3642 139.154 30.2637 139.621 30.0683C140.089 29.873 140.514 29.5867 140.871 29.2257C141.229 28.8647 141.513 28.4362 141.707 27.9646C141.9 27.493 142 26.9875 142 26.4771V14.7192C142 14.2087 141.9 13.7032 141.707 13.2316C141.513 12.76 141.229 12.3315 140.871 11.9706C140.514 11.6096 140.089 11.3233 139.621 11.1279C139.154 10.9326 138.653 10.832 138.147 10.832ZM140.783 26.1425C140.783 26.9204 140.477 27.6664 139.932 28.2165C139.386 28.7666 138.647 29.0756 137.876 29.0756H137.798C137.027 29.0756 136.288 28.7666 135.743 28.2165C135.197 27.6664 134.891 26.9204 134.891 26.1425V15.0467C134.891 14.2688 135.197 13.5227 135.743 12.9727C136.288 12.4226 137.027 12.1136 137.798 12.1136H137.876C138.647 12.1136 139.386 12.4226 139.932 12.9727C140.477 13.5227 140.783 14.2688 140.783 15.0467V26.1425Z" fill="#131226"/>
</g>
<defs>
<linearGradient id="paint0_linear_2256_8617" x1="5.96265e-05" y1="20.0808" x2="34.4757" y2="20.0808" gradientUnits="userSpaceOnUse">
<stop stop-color="#667CE7"/>
<stop offset="1" stop-color="#744FA9"/>
</linearGradient>
<clipPath id="clip0_2256_8617">
<rect width="142" height="45" fill="white"/>
</clipPath>
</defs>
</svg>
