<svg width="85" height="39" viewBox="0 0 85 39" fill="none" xmlns="http://www.w3.org/2000/svg">
<path d="M26.7646 23.834C26.7646 26.756 28.6583 28.9907 31.312 28.9907C33.9609 28.9907 35.8594 26.7598 35.8594 23.834C35.8594 20.8747 33.9743 18.6457 31.312 18.6457C28.6497 18.6457 26.7646 20.8747 26.7646 23.834ZM31.8367 14.6679C36.5108 14.6679 39.9102 18.9001 39.9102 23.7868C39.9102 28.8316 36.4141 32.9686 31.7492 32.9686C30.0276 32.9686 27.9096 32.0426 26.7355 30.5906V32.7013H22.8012V7H26.8229V17.0284C27.9909 15.5709 30.0459 14.6679 31.8367 14.6679ZM47.1976 33C43.9437 33 41.587 30.7924 41.587 27.6859V27.4972C41.587 25.5577 42.4532 24.1016 43.9755 23.156C45.2152 22.3859 46.8481 21.9944 48.451 21.9944H50.4184C51.29 21.9944 51.6721 21.579 51.6721 20.7996C51.6721 19.4329 50.591 18.4256 48.7716 18.4256C47.0067 18.4256 45.7703 19.474 45.5179 21.0623L45.4764 21.3235L41.8158 20.4301L41.8359 20.2091C41.9975 18.4268 43.4766 16.3172 45.5438 15.3342C46.474 14.8882 47.6496 14.6522 48.8736 14.6522C51.8311 14.6522 54.0136 15.8608 55.0599 18.3192C55.4515 19.2268 55.6209 20.23 55.6209 21.4914V29.6826C55.6209 30.815 55.6552 31.68 55.7359 32.4202L55.7666 32.7013H51.8348L51.7943 32.5043C51.7365 32.224 51.6851 31.5218 51.6597 30.8636C50.5728 32.3181 48.9438 33 47.1976 33ZM51.7456 25.8404V25.2H48.4723C46.9355 25.2 45.5367 26.0367 45.5367 27.3219C45.5367 28.5545 46.5544 29.3935 48.0046 29.3935C50.2843 29.3935 51.7456 28.0149 51.7456 25.8404ZM61.7749 17.0653C62.7769 15.6537 64.3041 14.8566 65.9142 14.8566C66.132 14.8566 66.6029 14.9003 66.839 14.9569L67.0214 15.0006V19.4399L66.743 19.3798C66.6271 19.3548 66.4237 19.3319 66.1768 19.3133C66.0112 19.3009 65.8137 19.2903 65.783 19.2903C63.226 19.2903 61.8477 20.8622 61.8477 23.7082V32.7013H57.8261V15.0138H61.7749V17.0653ZM73.2807 32.7013H69.259V7H73.2807V21.446L79.1738 15.0138H84.6576L77.2138 23.0441L85 32.7013H79.6882L73.2807 24.5914V32.7013ZM5.2547 29.0561L5.82102 28.1575L19.7744 28.6993V32.7484L5.2547 29.0561ZM17.3774 19.6275L17.9718 23.5065L6.80874 26.0571V25.0196L17.3774 19.6275ZM5.63854 23.2528L5 22.2847L19.7491 7.08387V11.8112L5.63854 23.2528Z" fill="black"/>
</svg>
