<svg width="77" height="39" viewBox="0 0 77 39" fill="none" xmlns="http://www.w3.org/2000/svg">
<path d="M20 9H23V30H20V9Z" fill="black"/>
<path d="M34.7907 23.4375C34.7907 26.6458 32.2791 26.9375 31.4419 26.9375C29.4884 26.9375 29.2093 25.0417 29.2093 24.0208V16H26V23.875C26 25.7708 26.5581 27.5208 27.6744 28.5417C28.6512 29.5625 29.907 30 31.4419 30C32.5581 30 33.9535 29.7083 34.7907 28.8333V30H38V16H34.7907V23.4375Z" fill="black"/>
<path d="M44.614 11H41.386V16.0763H39V19.2672H41.386V30H44.614V19.2672H47V16.0763H44.614V11Z" fill="black"/>
<path d="M57.3793 25.8571C56.6897 26.4286 55.7241 26.8571 54.7586 26.8571C52.5517 26.8571 51.0345 25.1429 51.0345 22.8571C51.0345 20.5714 52.5517 19 54.7586 19C55.7241 19 56.6897 19.2857 57.3793 20L57.7931 20.4286L60 18.2857L59.4483 17.8571C58.2069 16.7143 56.5517 16 54.7586 16C50.8966 16 48 19 48 23C48 27 50.8966 30 54.7586 30C56.5517 30 58.2069 29.2857 59.4483 28.1429L60 27.7143L57.7931 25.4286L57.3793 25.8571Z" fill="black"/>
<path d="M71.625 16.9859C70.6625 15.9507 69.7 15.507 68.1875 15.507C67.0875 15.507 65.9875 15.8028 65.1625 16.6901V9H62V30H65.1625V22.162C65.1625 18.9085 67.225 18.6127 68.05 18.6127C69.975 18.6127 69.8375 20.5352 69.8375 21.5704V29.8521H73V21.7183C73 19.7958 72.5875 18.0211 71.625 16.9859Z" fill="black"/>
<path d="M54.5 25C55.8807 25 57 23.8807 57 22.5C57 21.1193 55.8807 20 54.5 20C53.1193 20 52 21.1193 52 22.5C52 23.8807 53.1193 25 54.5 25Z" fill="black"/>
<path d="M16.2393 24.8914C15.0769 26.0591 13.3333 26.7889 11.4444 26.7889C7.81197 26.7889 5.19658 23.8697 5.19658 19.9288C5.19658 15.9879 7.81197 13.0687 11.5897 13.0687C13.3333 13.0687 15.0769 13.7985 16.3846 15.1121L16.8205 15.55L19 13.3606L18.5641 12.9227C16.6752 11.0253 14.2051 10.0035 11.5897 10.0035C6.06838 9.85759 2 14.2364 2 19.9288C2 25.6212 6.06838 30 11.4444 30C14.0598 30 16.6752 28.9783 18.4188 27.0808L18.8547 26.6429L16.6752 24.4535L16.2393 24.8914Z" fill="black"/>
</svg>
