<svg width="150" height="39" viewBox="0 0 150 39" fill="none" xmlns="http://www.w3.org/2000/svg">
<path d="M26 15H31.0722C35.1546 15 38 17.8261 38 21.4686V21.5314C38 25.1739 35.2165 28 31.0722 28H26V15ZM31.0722 25.3623C33.4227 25.3623 34.9691 23.7923 34.9691 21.5314V21.4686C34.9691 19.2077 33.4227 17.5749 31.0722 17.5749H28.9072V25.3623H31.0722Z" fill="black"/>
<path d="M40 15H49.8758V17.5366H42.9193V20.2H49.0683V22.7366H42.9193V25.4634H50V28H40.0621L40 15Z" fill="black"/>
<path d="M52 26.8768L53.6867 24.7536C54.8313 25.7488 56.0361 26.4123 57.4819 26.4123C58.6265 26.4123 59.2892 25.8815 59.2892 25.1517V25.0853C59.2892 24.2891 58.8072 23.891 56.759 23.3602C54.2289 22.6303 52.5422 21.9005 52.5422 19.1801V19.1137C52.5422 16.6588 54.3494 15 57 15C58.8072 15 60.4337 15.5972 61.6988 16.7251L60.253 19.0474C59.1687 18.1848 58.0241 17.7204 56.9398 17.7204C55.8554 17.7204 55.3133 18.2512 55.3133 18.9147V18.8483C55.3133 19.7109 55.8554 20.0427 58.0241 20.6398C60.6145 21.3697 62 22.3649 62 24.6872V24.7536C62 27.4739 60.0723 29 57.3614 29C55.4337 29 53.506 28.2701 52 26.8768Z" fill="black"/>
<path d="M65 15H68V28H65V15Z" fill="black"/>
<path d="M70 21.9674C70 18.1256 72.76 15 76.6 15C78.88 15 80.2 15.6512 81.52 16.8884L79.78 19.1674C78.82 18.3209 77.98 17.8 76.48 17.8C74.44 17.8 72.88 19.6884 72.88 21.9674V22.0326C72.88 24.507 74.44 26.3302 76.72 26.3302C77.74 26.3302 78.64 26.0698 79.36 25.4837V23.5953H76.54V21.0558H82V26.8512C80.68 28.0233 78.94 29 76.6 29C72.64 28.8047 70 25.9395 70 21.9674Z" fill="black"/>
<path d="M86 15H88.543L94.3387 22.9515V15H97V28H94.6936L88.6613 19.733V28H86V15Z" fill="black"/>
<path d="M100.12 15H105.891C107.514 15 108.716 15.5437 109.557 16.4272C110.279 17.2427 110.639 18.3301 110.639 19.6214V19.6893C110.639 21.932 109.557 23.3592 107.934 24.0388L111 29H107.754L105.049 24.5146H104.989H102.825V29H100V15H100.12ZM105.71 21.7282C107.093 21.7282 107.814 20.9126 107.814 19.7573V19.6893C107.814 18.3981 107.033 17.7184 105.65 17.7184H102.885V21.7282H105.71Z" fill="black"/>
<path d="M113 22.9713V15.067H115.78V22.8373C115.78 25.1148 116.808 26.1866 118.5 26.1866C120.192 26.1866 121.22 25.0478 121.22 22.8373V15H124V22.7703C124 26.9234 121.824 29 118.44 29C115.055 29 113 26.9904 113 22.9713Z" fill="black"/>
<path d="M126 26.8768L127.687 24.7536C128.831 25.7488 130.036 26.4123 131.482 26.4123C132.627 26.4123 133.289 25.8815 133.289 25.1517V25.0853C133.289 24.2891 132.807 23.891 130.759 23.3602C128.229 22.6303 126.542 21.9005 126.542 19.1801V19.1137C126.542 16.6588 128.349 15 131 15C132.807 15 134.434 15.5972 135.699 16.7251L134.253 19.0474C133.169 18.1848 132.024 17.7204 130.94 17.7204C129.855 17.7204 129.313 18.2512 129.313 18.9147V18.8483C129.313 19.7109 129.855 20.0427 132.024 20.6398C134.614 21.3697 136 22.3649 136 24.6872V24.7536C136 27.4739 134.072 29 131.361 29C129.494 29 127.506 28.2701 126 26.8768Z" fill="black"/>
<path d="M139 15H141.859V20.5728H147.141V15H150V29H147.141V23.4272H141.859V29H139V15Z" fill="black"/>
<path d="M10 23C9.93902 23 9.93902 22.931 10 23L9.69512 22.7931L9.63415 22.7241L2.43902 16.931C2.43902 16.931 2.37805 16.931 2.37805 16.8621L2.2561 16.7241L2.19512 16.6552H2.07317L0 15L4.08537 15.6897C4.26829 15.6897 4.32927 15.7586 4.5122 15.8276C4.57317 15.8276 4.69512 15.8966 4.69512 15.8966C4.87805 15.9655 4.93902 16.0345 5.06098 16.1034C5.18293 16.1724 5.2439 16.2414 5.36585 16.3103C5.42683 16.3793 5.54878 16.4483 5.54878 16.5172C5.60976 16.5862 5.67073 16.5862 5.73171 16.6552C5.85366 16.7241 5.91463 16.7931 5.91463 16.8621C6.09756 17.069 6.21951 17.2759 6.40244 17.4138L9.63415 22.5862L9.69512 22.6552L10 23Z" fill="black"/>
<path d="M9.93902 30L9.63414 29.4828L9.57317 29.4181L0 15L2.07317 16.5517L2.43902 16.8103L9.63414 22.2414H9.69512L9.93902 22.4353C9.93902 22.4353 10 22.4353 10 22.5L10.3049 22.2414L20 15L10.2439 29.4828L10.1829 29.5474L9.93902 30Z" fill="black"/>
<path d="M9.55682 20L9.27273 19.5L9.21591 19.4375L7 16.0625L9.21591 16.5625H9.27273L9.55682 16.625L9.84091 16.5625L12 16L9.84091 19.5V19.5625L9.55682 20Z" fill="black"/>
<path d="M20 15L16.988 15.4786L15.8434 15.6838C14.9398 15.8205 14.0964 16.3675 13.5542 17.2564L10.3614 22.453L10.3012 22.5214L10 23L10.3614 22.5897L10.4217 22.5214L10 23L18.1325 16.4359L20 15Z" fill="black"/>
<path d="M12 5.40376C12 8.29578 7.34694 9.80751 7.34694 12.8967C7.28571 13.6197 7.46939 14.3427 7.77551 15C7.77551 15 6 13.1596 6 11.1878C6 9.21596 7.71429 6.25822 7.71429 6.25822C7.71429 7.57277 8.20408 7.96714 8.69388 8.03286H8.7551C9.30612 8.03286 9.61225 7.57277 9.61225 6.91549C9.61225 6.25822 8.93878 5.60094 8.93878 4.28639C8.93878 3.03756 10.4082 1 10.4082 1C11.449 2.31455 12 3.82629 12 5.40376Z" fill="black"/>
<path d="M10.7113 16C9.162 16 8 14.756 8 13.25V13.1845C8 9.84524 12.5834 9.51786 12.5834 5C12.7125 5.19643 13.9391 6.89881 13.9391 8.73214C13.9391 11.0238 11.8088 11.6131 11.8088 12.7262C11.8088 13.1845 12.0024 13.5119 12.648 13.5119C12.7125 13.5119 12.7771 13.5119 12.8417 13.4464C14.0682 12.9226 14.9074 11.744 14.972 10.369C14.972 10.4345 15.6175 16 10.7113 16Z" fill="black"/>
<path d="M12.7937 13.7997C12.8571 13.7997 12.9206 13.7997 12.9841 13.732C12.3492 13.9351 10 14.5443 10 12.7843C10 10.6183 13.4921 10.1444 13.4921 8.3168C13.4921 7.16607 13.2381 6.01535 12.6667 5C12.7937 5.20307 14 6.963 14 8.85832C14 11.2275 11.9048 11.8367 11.9048 12.9874C11.9683 13.4612 12.2222 13.7997 12.7937 13.7997Z" fill="black"/>
<path d="M10 6.53447C10 8.16225 8.11765 8.03203 8 7.96692H8.17647C8.70588 7.96692 9 7.51114 9 6.86002C9 6.20891 8.35294 5.5578 8.35294 4.25557C8.35294 3.01845 9.76471 1 9.76471 1C9.29412 1.84645 9.05882 2.75801 9 3.66957C9 5.16713 10 5.29735 10 6.53447Z" fill="black"/>
<path d="M9.23944 35.4706L8 34.5882H9.52113L10.0282 33L10.4789 34.5882H12L10.7606 35.4706L11.2113 37L9.97183 36.0588L8.67606 37L9.23944 35.4706Z" fill="black"/>
<path d="M16.2394 35.4706L15 34.5882H16.5211L17.0282 33L17.4789 34.5882H19L17.7606 35.4706L18.2113 37L16.9718 36.0588L15.6761 37L16.2394 35.4706Z" fill="black"/>
<path d="M2.23944 35.4706L1 34.5882H2.52113L3.02817 33L3.47887 34.5882H5L3.76056 35.4706L4.21127 37L2.97183 36.0588L1.73239 37L2.23944 35.4706Z" fill="black"/>
</svg>
