<svg width="149" height="39" viewBox="0 0 149 39" fill="none" xmlns="http://www.w3.org/2000/svg">
<path d="M9.13867 16.4201C9.13867 16.4201 7.897 16.286 7.897 17.4659V22.7486H16.0423V24.3307C16.0423 24.3307 16.0672 25.1084 15.2973 25.1084H7.897V31.9732H16.7873C16.7873 31.9732 22.1762 31.0883 22.2258 25.1084V16.4201H9.13867ZM21.9775 8H5.93517C0.124167 9.47486 0 14.6235 0 14.6235V32H6.15867V16.1788C6.15867 14.838 7.40033 14.5966 7.40033 14.5966H21.9527L21.9775 8ZM43.1603 27.0123C42.7382 27.3073 42.4153 27.5486 42.1918 27.6827C41.3972 28.219 40.6522 28.6212 39.9568 28.943C38.9387 29.3989 38.0447 29.6134 37.2252 29.6134C34.4438 29.6134 32.1343 28.7017 30.2967 26.8514C28.4342 25.0011 27.5153 22.6682 27.5153 19.8793C27.5153 17.171 28.3348 14.838 30.0235 12.8268C31.6873 10.8425 33.7237 9.85028 36.1077 9.85028C37.101 9.85028 38.1688 10.038 39.2615 10.4134C40.7018 10.8961 41.8442 11.6469 42.7878 12.5855L41.1985 14.4894C40.528 13.7654 39.634 13.2559 38.6158 12.9341C37.846 12.6927 37.0017 12.5587 36.058 12.5587C34.3942 12.5587 32.9787 13.2827 31.8363 14.7307C30.7188 16.2056 30.1477 17.9218 30.1477 19.9598C30.1477 21.9709 30.7933 23.6335 32.0847 24.9475C33.376 26.2615 35.015 26.9318 37.0017 26.9318C37.8212 26.9318 38.6655 26.6369 39.5347 26.1006C40.2548 25.5106 40.6273 25.2156 40.6273 25.2156V21.0324H35.2385L36.0083 18.4313H43.1603V27.0123ZM59.3765 21.9173C59.3765 23.9285 58.706 25.6715 57.3898 27.1464C56.0737 28.6212 54.4347 29.3721 52.4728 29.3721C50.66 29.3721 49.0955 28.648 47.7297 27.2C46.3638 25.752 45.6933 24.0089 45.6933 21.9441C45.6933 19.9061 46.339 18.1631 47.6303 16.6615C48.9217 15.1598 50.511 14.4358 52.3487 14.4358C54.4098 14.4358 56.0737 15.1598 57.3898 16.581C58.706 17.9754 59.3765 19.7721 59.3765 21.9173ZM56.8683 21.9709C56.8683 20.6034 56.4462 19.4503 55.6018 18.5117C54.7575 17.5464 53.7145 17.0905 52.448 17.0905C51.2808 17.0905 50.2875 17.5732 49.4432 18.5654C48.6237 19.5307 48.2015 20.657 48.2015 21.9173C48.2015 23.2313 48.6237 24.3575 49.4432 25.2961C50.2627 26.2346 51.3057 26.7173 52.5473 26.7173C53.7145 26.7173 54.7078 26.2615 55.5522 25.3229C56.4462 24.3575 56.8683 23.2313 56.8683 21.9709ZM75.394 21.9173C75.394 23.9285 74.7235 25.6715 73.4073 27.1464C72.0912 28.6212 70.4522 29.3721 68.4903 29.3721C66.6775 29.3721 65.113 28.648 63.7472 27.2C62.3813 25.752 61.7108 24.0089 61.7108 21.9441C61.7108 19.9061 62.3565 18.1631 63.6478 16.6615C64.9392 15.1598 66.5285 14.4358 68.3662 14.4358C70.4273 14.4358 72.0912 15.1598 73.4073 16.581C74.7235 17.9754 75.394 19.7721 75.394 21.9173ZM72.861 21.9709C72.861 20.6034 72.4388 19.4503 71.5945 18.5117C70.7502 17.5464 69.7072 17.0905 68.4407 17.0905C67.2735 17.0905 66.2802 17.5732 65.4358 18.5654C64.6163 19.5307 64.1942 20.657 64.1942 21.9173C64.1942 23.2313 64.6163 24.3575 65.4358 25.2961C66.2553 26.2346 67.2983 26.7173 68.54 26.7173C69.7072 26.7173 70.7005 26.2615 71.5448 25.3229C72.4388 24.3575 72.861 23.2313 72.861 21.9709ZM90.1947 28.9698L87.8852 29.3453V26.9318L87.3885 27.5486C86.9415 28.0045 86.4448 28.3531 85.9233 28.648C85.1287 29.0503 84.2843 29.238 83.4152 29.238C81.6023 29.238 80.0627 28.514 78.821 27.0927C77.5793 25.6715 76.9337 23.9285 76.9337 21.9441C76.9337 19.8793 77.5545 18.1095 78.7962 16.6615C80.0378 15.1866 81.5278 14.4626 83.3407 14.4626C84.3837 14.4626 85.2777 14.6503 86.0227 14.9989C86.569 15.267 87.016 15.6156 87.4133 16.0447C87.5375 16.2324 87.6617 16.4201 87.8107 16.6078V10.2525L90.2692 9.8771L90.1947 28.9698ZM88.0342 22.105C88.0342 20.6838 87.5872 19.4771 86.6932 18.5117C85.7992 17.5196 84.781 17.0369 83.6138 17.0369C82.3225 17.0369 81.3043 17.4927 80.5097 18.4313C79.7647 19.3162 79.3922 20.4156 79.3922 21.7028C79.3922 23.1508 79.7895 24.3575 80.5593 25.2961C81.3292 26.2346 82.2977 26.6905 83.5145 26.6905C84.6817 26.6905 85.7247 26.2615 86.6435 25.3765C87.5623 24.4916 88.0342 23.3922 88.0342 22.105ZM103.207 12.8804H96.3037V17.9486H101.668V20.5497H96.3037V28.943L93.6217 29.3721V10.2525H102.686L103.207 12.8804ZM108.745 11.4056L107.081 13.6581L105.492 11.4056L107.156 9.17989L108.745 11.4056ZM108.248 28.9698L105.79 29.3453V15.1866L108.248 14.7844V28.9698ZM119.374 14.6235L118.207 17.5196C118.058 17.4927 117.909 17.4927 117.735 17.4927C117.487 17.4927 117.263 17.5196 117.015 17.5464C116.766 17.5732 116.518 17.6804 116.245 17.8413C115.723 18.0827 115.276 18.619 114.904 19.3966C114.482 20.3084 114.258 21.3006 114.258 22.3196V28.943L111.8 29.3721V15.1866L114.084 14.7307V17.6804C114.382 17.1709 114.68 16.6615 114.978 16.1251C115.4 15.5888 115.897 15.2134 116.443 14.9721C116.742 14.838 117.263 14.7575 118.083 14.6771C118.877 14.6235 119.324 14.5966 119.374 14.6235ZM137.751 28.9698L135.292 29.3453V19.638C135.292 18.7531 135.118 18.0827 134.746 17.6804C134.373 17.2782 133.827 17.0637 133.107 17.0637C132.238 17.0637 131.592 17.4391 131.145 18.2168C130.847 18.7531 130.673 19.3162 130.673 19.8793V28.9162L128.214 29.3989V19.6648C128.214 18.8067 128.041 18.1631 127.668 17.7073C127.296 17.2514 126.824 17.0369 126.203 17.0369H125.955C125.086 17.0369 124.465 17.4123 124.067 18.2168C123.769 18.8067 123.62 19.5575 123.62 20.4693V28.8894L121.062 29.3721V15.133L123.372 14.7039V16.5274C123.62 16.0983 123.894 15.7497 124.117 15.5084C124.788 14.838 125.557 14.5162 126.427 14.5162C127.395 14.5162 128.115 14.6771 128.612 15.0257C129.034 15.3207 129.431 15.8838 129.853 16.6883C130.698 15.2402 131.89 14.5162 133.479 14.5162C134.994 14.5162 136.111 15.0257 136.856 16.0715C137.452 16.9296 137.751 18.1899 137.751 19.8257V28.9698ZM149 24.6793C149 25.9933 148.578 27.0659 147.733 27.8972C146.889 28.7553 145.821 29.1575 144.53 29.1575C143.562 29.1575 142.692 28.9162 141.898 28.4335C141.103 27.9508 140.507 27.3877 140.134 26.7441L141.873 25.0816C141.997 25.2961 142.121 25.457 142.221 25.5642C142.866 26.2883 143.636 26.6369 144.53 26.6369C145.151 26.6369 145.647 26.4492 145.995 26.1006C146.368 25.752 146.541 25.2693 146.541 24.6257C146.541 23.9017 146.119 23.419 145.275 23.1508C143.611 22.6145 142.692 22.2927 142.568 22.2391C141.798 21.8101 141.252 21.3542 140.904 20.8447C140.507 20.2548 140.308 19.4771 140.308 18.4849C140.308 17.2514 140.73 16.2592 141.55 15.4279C142.37 14.6235 143.363 14.2212 144.505 14.2212C145.374 14.2212 146.169 14.4358 146.914 14.8648C147.659 15.2939 148.18 15.7497 148.503 16.2592L147.038 17.9754C146.815 17.7341 146.566 17.5196 146.318 17.3318C145.722 16.876 145.151 16.6615 144.629 16.6615C144.108 16.6615 143.686 16.7955 143.363 17.0369C142.965 17.3318 142.767 17.7877 142.767 18.3777C142.767 18.9408 142.941 19.3698 143.338 19.638C143.661 19.8525 144.356 20.0939 145.474 20.362C146.566 20.657 147.436 21.1397 148.031 21.8369C148.727 22.5877 149 23.4994 149 24.6793Z" fill="black"/>
</svg>
