<svg width="94" height="39" viewBox="0 0 94 39" fill="none" xmlns="http://www.w3.org/2000/svg">
<path d="M24.3182 5.92256C24.8838 5.25314 25.2475 4.55307 25.2475 3.81211C25.2475 2.57036 24.2323 1.78341 22.9899 1.78341C21.8333 1.78341 20.8737 2.5397 20.6919 3.81211L19 3.39819C19.3232 1.31329 21.0051 0 22.9798 0C25.197 0 26.9596 1.52791 26.9596 3.79678C26.9596 5.03852 26.3939 6.16785 25.5758 7.12343C23.9394 9.04992 23.899 9.12146 22.1313 11.2319H27V13H19.1515V12.2437L24.3182 5.92256Z" fill="black"/>
<path d="M19.8479 21.1137L19.8623 14.7448H32.973C33.1069 15.6323 33.1739 16.55 33.1739 17.4628C33.1739 27.0993 25.7286 34.9407 16.5894 34.9407C7.44536 34.9558 0 27.1144 0 17.4779C0 7.84135 7.44536 0 16.5846 0V6.16718C10.6656 6.16718 5.85197 11.2401 5.85197 17.4779C5.85197 23.7157 10.6656 28.7886 16.5846 28.7886C21.2882 28.7886 25.3123 25.5764 26.7573 21.1137M33.4706 11.6234H39.203C41.9543 11.6234 42.4519 11.7343 43.4137 12.5512C44.2702 13.2975 44.6961 14.5229 44.6961 16.3382C44.6961 17.8611 44.4042 19.031 43.8396 19.8177C43.3563 20.5085 42.7725 20.806 41.5141 21.0985C43.9065 21.4061 44.7343 22.5912 44.763 25.763C44.763 26.2723 44.8157 27.3111 44.8683 28.6071C44.9209 29.5097 44.9497 29.6761 45.1602 30.4678H41.2174C41.0547 29.2424 41.0547 29.2122 41.0547 26.9026C41.0547 24.6334 40.892 23.5089 40.4662 22.9996C40.1743 22.6618 39.8537 22.576 38.9015 22.576H37.1119V30.4779H33.461L33.4706 11.6234ZM38.6144 19.7925C40.2843 19.7925 40.8872 19.0462 40.8872 17.0745C40.8872 16.0306 40.6193 15.1885 40.1791 14.7801C39.8585 14.4977 39.6192 14.4422 38.7101 14.4422H37.0928V19.7925H38.6144ZM47.0215 21.0178C47.0215 16.6206 47.2081 15.1028 47.9307 13.7766C48.7872 12.1579 50.5624 11.3258 53.0888 11.3258C55.8832 11.3258 57.7781 12.4251 58.5149 14.4926C58.8882 15.5062 59.0509 17.493 59.0509 21.1137C59.0509 25.0721 58.8642 26.943 58.3427 28.0171C57.4862 29.8072 55.6583 30.7653 53.1175 30.7653C50.5767 30.7653 48.8255 29.9484 47.945 28.3146C47.2225 27.0035 47.0215 25.4403 47.0215 21.0178ZM53.0362 27.8607C54.1463 27.8607 54.8018 27.296 55.0267 26.1866C55.1607 25.4705 55.266 23.0198 55.266 20.3825C55.266 17.5535 55.132 15.8894 54.864 15.2137C54.6248 14.5935 53.9262 14.2002 53.0458 14.2002C52.0314 14.2002 51.3232 14.6792 51.1222 15.4961C50.9356 16.2828 50.8303 18.2444 50.8303 21.2448C50.8303 23.7358 50.9117 25.3697 51.0457 26.1614C51.2466 27.296 51.8974 27.8607 53.0362 27.8607ZM60.2519 11.6234H63.9793L65.1947 18.4965C65.6206 20.9876 65.7306 23.2568 65.9316 27.5935C66.678 21.8196 66.9221 20.211 67.2666 18.4965L68.6829 11.6234H72.865L74.2 18.4965C74.8124 21.6381 74.9464 23.7661 75.1378 27.5935C75.377 24.3964 75.6211 22.0566 76.2048 18.4965L77.3676 11.6234H80.6405L77.0326 30.4829H72.9846L71.2955 21.7188C71.0036 20.1959 70.64 16.6358 70.5586 14.7044C70.0227 18.9453 69.9988 19.5504 69.5681 21.7188L67.8312 30.4779H63.6875L60.2519 11.6234ZM82.2386 11.6234H87.2389C90.1386 11.6234 91.0238 11.7948 91.9281 12.4705C93.0622 13.3429 93.6268 14.8658 93.866 17.851C93.9474 19.0209 94 20.5136 94 21.8398C94 25.2335 93.7751 26.8976 93.2536 28.007C92.5071 29.6005 90.7797 30.4981 88.5643 30.4981H82.2578L82.2386 11.6234ZM87.5738 27.5078C88.8562 27.5078 89.5644 27.2002 89.818 26.4942C90.0859 25.7479 90.1673 24.6637 90.1673 21.5776C90.1673 18.2091 90.062 16.7316 89.7653 15.8037C89.4974 15.0171 88.7749 14.5784 87.6647 14.5784H85.9948V27.5078H87.5738ZM14.4218 4.1955H13.2303V39H14.4218V4.1955Z" fill="black"/>
</svg>
