<svg width="104" height="39" viewBox="0 0 104 39" fill="none" xmlns="http://www.w3.org/2000/svg">
<path d="M13.9395 22.5686C13.4639 22.1098 12.8931 21.7529 12.2272 21.3961C11.5614 21.0392 10.8004 20.7333 9.94422 20.3765C9.3259 20.1216 8.75514 19.9176 8.27951 19.6627C7.80388 19.4588 7.42337 19.2039 7.13799 18.949C6.80505 18.6941 6.6148 18.3882 6.47211 18.0824C6.32942 17.7765 6.23429 17.4196 6.23429 16.9608C6.23429 16.1451 6.56723 15.5333 7.23312 15.1765C7.899 14.8196 8.66001 14.6157 9.56371 14.6157C10.6101 14.6157 11.4662 14.7176 12.2272 14.9216C12.9407 15.1255 13.5115 15.3294 13.8444 15.5333V12.3216C13.8444 12.3216 13.7493 12.2706 13.6541 12.2706C13.3212 12.1686 12.9407 12.0667 12.5126 12.0157C12.0846 11.9137 11.6089 11.8627 11.0857 11.8118C10.5625 11.7608 10.0869 11.7098 9.56371 11.7098C7.56606 11.7098 5.90135 12.2196 4.75984 13.1882C3.57076 14.2078 3 15.5333 3 17.2667C3 18.1333 3.14269 18.8471 3.42807 19.4588C3.71345 20.0706 4.04639 20.5294 4.52202 20.9882C4.99765 21.3961 5.52085 21.7529 6.13917 22.0588C6.75749 22.3647 7.42337 22.6706 8.13682 22.9765C9.56371 23.5882 10.5625 24.149 11.2284 24.6588C11.8943 25.1686 12.1797 25.8314 12.1797 26.6471C12.1797 27.4627 11.8467 28.0235 11.2284 28.4314C10.6101 28.7882 9.61127 28.9922 8.27951 28.9922C6.94774 28.9922 6.04404 28.8902 5.04521 28.5333C4.23664 28.2275 3.66588 28.0235 3.28538 27.8706V31.0824C3.57076 31.1843 4.09395 31.3373 4.52202 31.4902C5.52085 31.7961 6.66236 31.898 8.27951 31.898C10.5625 31.898 12.3224 31.4392 13.559 30.5216C14.7957 29.6039 15.414 28.2784 15.414 26.4431C15.414 25.5255 15.2713 24.7608 15.0335 24.149C14.7481 23.5373 14.4151 23.0275 13.9395 22.5686ZM53.4803 28.6353C53.0523 28.4824 52.7193 28.1255 52.4339 27.7686C52.1486 27.4118 51.9583 26.902 51.8156 26.2902C51.6729 25.6784 51.6254 24.8627 51.6254 23.8941V14.9726H57V12.1176H51.6254V6L48.3911 6.81569V23.9621C48.3911 25.2366 48.4862 26.3582 48.6765 27.3778C48.8667 28.3464 49.1996 29.2131 49.6753 29.8758C50.1509 30.5386 50.7692 31.0993 51.5302 31.4052C52.3864 31.8131 54.6218 32.2719 56.9049 31.7111V28.6523C55.0975 29.0941 53.9084 28.7882 53.4803 28.6353ZM43.9677 11.8118C43.6348 11.7608 43.3018 11.7608 43.0164 11.7608C41.6371 11.7608 40.3529 11.9137 39.2114 12.1686C38.0699 12.4235 37.1662 12.6784 36.3576 12.9843V31.5072H39.5919V15.2954C39.7822 15.2444 40.1627 15.1425 40.7334 15.0405C41.3042 14.8876 41.9225 14.8366 42.4932 14.8366C43.3969 14.8366 44.158 14.8876 44.7287 15.0405C45.2995 15.1935 45.7275 15.2954 45.9654 15.3974V12.2366C45.68 12.1856 45.2995 12.0837 44.919 12.0327C44.6812 11.8627 44.3006 11.8118 43.9677 11.8118ZM29.2548 27.0039C28.3511 28.2784 27.1145 28.8902 25.4974 28.8902C23.8802 28.8902 22.6436 28.2784 21.7399 27.0039C20.8362 25.7294 20.3605 23.9961 20.3605 21.8039C20.3605 19.6627 20.8362 17.8784 21.7399 16.6039C22.6436 15.3294 23.8802 14.7177 25.4974 14.7177C27.1145 14.7177 28.3511 15.3294 29.2548 16.6039C30.1585 17.8784 30.6342 19.5608 30.6342 21.8039C30.6342 24.0471 30.1585 25.6784 29.2548 27.0039ZM31.5854 14.4118C30.8244 13.5451 29.9683 12.8314 28.9219 12.3725C27.8755 11.9137 26.7816 11.6588 25.4974 11.6588C24.2607 11.6588 23.1668 11.9137 22.0728 12.3725C21.0264 12.8314 20.1703 13.5451 19.4093 14.4118C18.6483 15.2784 18.0775 16.349 17.697 17.6745C17.2689 18.898 17.0787 20.2745 17.0787 21.8549C17.0787 23.4353 17.2689 24.7608 17.697 26.0353C18.1251 27.2078 18.6958 28.2784 19.4568 29.2471C20.2179 30.1137 21.074 30.8275 22.1204 31.2863C23.1668 31.7451 24.2607 32 25.5449 32C26.7816 32 27.8755 31.7451 28.9695 31.2863C30.0634 30.8275 30.872 30.1137 31.633 29.2471C32.394 28.3804 32.9648 27.3098 33.3453 26.0353C33.7733 24.8118 33.9636 23.4353 33.9636 21.8549C33.9636 20.3765 33.7733 19 33.3453 17.6745C32.9172 16.4 32.3464 15.3804 31.5854 14.4118Z" fill="black"/>
<path d="M70.727 5.09087C70.1963 5.09087 69.7621 5.29 69.3761 5.63848C68.9901 5.98696 68.8454 6.48479 68.8454 7.08218C68.8454 7.67957 69.0384 8.1774 69.3761 8.52588C69.7621 8.87436 70.1963 9.07349 70.727 9.07349C71.2577 9.07349 71.692 8.87436 72.0779 8.52588C72.4639 8.1774 72.6087 7.67957 72.6087 7.08218C72.6087 6.48479 72.4157 5.98696 72.0779 5.63848C71.7402 5.29 71.2577 5.09087 70.727 5.09087ZM95.4297 27.742C94.9955 27.5927 94.6577 27.2442 94.3683 26.8957C94.0788 26.5472 93.8858 26.0494 93.741 25.452C93.5963 24.8546 93.548 24.0581 93.548 23.1122V14.4002H99V11.6124H93.548V5.73805L90.2672 6.33544V23.1786C90.2672 24.4232 90.3637 25.5184 90.5567 26.514C90.7497 27.4599 91.0874 28.3062 91.5699 28.9534C92.0524 29.6006 92.6796 30.1482 93.4515 30.4469C94.32 30.8451 96.5876 31.2932 98.9035 30.7456V27.7586C97.1184 28.19 95.8639 27.8913 95.4297 27.742ZM86.6487 21.8179C86.1662 21.3698 85.5872 21.0213 84.9118 20.6729C84.2363 20.3244 83.4643 20.0257 82.5959 19.6772C81.9687 19.4283 81.3897 19.2292 80.9072 18.9802C80.4247 18.7811 80.0388 18.5322 79.7493 18.2833C79.4116 18.0344 79.2186 17.7357 79.0738 17.437C78.9291 17.1383 78.8326 16.7898 78.8326 16.3418C78.8326 15.5452 79.1703 14.9478 79.8458 14.5994C80.5212 14.2509 81.2932 14.0518 82.2099 14.0518C83.2713 14.0518 84.1398 14.1513 84.9118 14.3505C85.6355 14.5496 86.2144 14.7487 86.5522 14.9478V11.8115C86.5522 11.8115 86.4074 11.7618 86.3592 11.7618C86.0214 11.6622 85.6355 11.5626 85.2012 11.5128C84.767 11.4133 84.2845 11.3635 83.7538 11.3137C83.2231 11.2639 82.7406 11.2141 82.2099 11.2141C80.1835 11.2141 78.4948 11.712 77.3369 12.6578C76.1307 13.6535 75.5518 14.9478 75.5518 16.6405C75.5518 17.4868 75.6965 18.1837 75.986 18.7811C76.2755 19.3785 76.6132 19.8266 77.0957 20.2746C77.5781 20.6729 78.1089 21.0213 78.7361 21.32C79.3633 21.6187 80.0388 21.9174 80.7625 22.2161C82.2099 22.8135 83.2231 23.3611 83.8986 23.8589C84.574 24.3568 84.8635 25.004 84.8635 25.8005C84.8635 26.597 84.5258 27.1446 83.8986 27.5429C83.2713 27.8913 82.2581 28.0905 80.9072 28.0905C79.5563 28.0905 78.6396 27.9909 77.6264 27.6424C76.8062 27.3437 76.2272 27.1446 75.8412 26.9953V30.1316C76.1307 30.2311 76.6614 30.3805 77.0957 30.5298C78.1089 30.8285 79.2668 30.9281 80.9072 30.9281C83.2231 30.9281 85.0083 30.48 86.2627 29.584C87.5171 28.6879 88.1443 27.3935 88.1443 25.6013C88.1443 24.7053 87.9996 23.9585 87.7584 23.3611C87.5171 22.7637 87.1311 22.2659 86.6487 21.8179ZM69.1348 30.48H72.4157V11.6124H69.1348V30.48ZM63.8598 27.294C63.6668 27.0948 63.5221 26.7961 63.4256 26.4476C63.3291 26.0992 63.2808 25.6511 63.2808 25.1035V3L60 3.74674V25.6179C60 27.4101 60.4342 28.7542 61.2544 29.6005C62.0746 30.4469 63.7151 30.9447 66.0309 30.9945V28.1071C65.5002 28.0573 65.066 27.9577 64.7282 27.8582C64.3423 27.6922 64.0528 27.4931 63.8598 27.294Z" fill="black"/>
</svg>
