<svg width="105" height="39" viewBox="0 0 105 39" fill="none" xmlns="http://www.w3.org/2000/svg">
<path d="M11.4286 6.66891C13.3233 7.05948 14.9774 8.19865 16.1203 9.79349C17.203 11.2907 17.8647 13.211 17.8647 15.2615C17.8647 16.596 17.1729 18.6465 15.9098 21.1526C16.3008 21.8687 16.7218 22.6498 17.203 23.4961C18.797 20.5017 20 17.4747 20 15.2615C20 12.7553 19.2782 10.4444 18.0451 8.58923C16.8722 6.83165 15.2782 5.4321 13.3835 4.6835C12.3609 4.22783 11.218 4 10.015 4C4.4812 4 0 9.04489 0 15.2615C0 19.7856 5.02256 27.6296 8 31.8934C8.4812 32.6094 9.23308 33 10.015 33C10.797 33 11.5489 32.6094 12.0301 31.8934C12.6617 31.0146 13.3534 29.9731 14.1053 28.8339C13.6541 28.1178 13.2331 27.4018 12.812 26.6857C12.0601 27.8575 11.2481 29.0617 10.3759 30.3311C10.2256 30.5589 9.86466 30.5589 9.68421 30.3311C4.96241 23.5937 2.16541 17.963 2.16541 15.2615C2.16541 10.4444 5.68421 6.50617 10.015 6.50617C10.4962 6.50617 10.9474 6.57127 11.4286 6.66891Z" fill="black"/>
<path d="M16.967 28.8339C17.6867 29.9731 18.4063 31.0146 19.036 31.8934C19.5157 32.6094 20.2654 33 21.045 33C21.8246 33 22.5742 32.6094 23.054 31.8934C25.9925 27.6296 31 19.7531 31 15.2615C31 9.04489 26.5322 4 21.015 4C19.8156 4 18.6762 4.22783 17.6267 4.6835C18.3463 5.26936 19.036 5.92031 19.6057 6.66891C20.0555 6.57127 20.5352 6.50617 21.015 6.50617C25.3328 6.50617 28.8411 10.4119 28.8411 15.2615C28.8411 17.963 26.0525 23.5937 21.3448 30.3311C21.1949 30.5589 20.8351 30.5589 20.6552 30.3311C19.7856 29.0617 18.976 27.8575 18.2264 26.6857C16.967 24.6678 15.8876 22.8126 15.078 21.1526C13.8186 18.6139 13.1589 16.5634 13.1589 15.2615C13.1589 13.1785 13.8186 11.2907 14.8981 9.79349C14.3283 9.27273 13.6687 8.88215 12.949 8.58923C11.7196 10.4444 11 12.7553 11 15.2615C11 17.4747 12.1994 20.5017 13.7886 23.4961C14.7781 25.3513 15.8876 27.174 16.967 28.8339Z" fill="black"/>
<path d="M46 13.2471V22.5019C46 26.7683 43.93 29 39.94 29C35.92 29 34 26.8012 34 22.4691V13.1158C34 12.5251 34.42 12 35.05 12C35.71 12 36.16 12.5251 36.16 13.1158V22.4035C36.16 25.5869 37.36 26.8996 39.94 26.8996C42.49 26.8996 43.84 25.6525 43.84 22.4691V13.2471C43.84 12.5579 44.29 12 44.89 12C45.55 12 46 12.5579 46 13.2471Z" fill="black"/>
<path d="M60 22.7214C60 26.6798 58.0061 28.8087 54.4479 28.8087C53.5276 28.8087 52.7607 28.6424 52.1472 28.4096V31.9023C52.1472 32.501 51.7485 33 51.0736 33C50.4294 33 50 32.501 50 31.9023V17.9979C50 17.3992 50.3988 17 50.9202 17C51.5031 17 51.7791 17.3992 51.8405 17.9979L51.9018 18.8961C52.546 17.7983 53.6503 17 55.3067 17C58.2209 17 60 18.8295 60 22.7214ZM57.8528 22.8545C57.8528 20.1601 56.7485 18.9958 54.9387 18.9958C53.3129 18.9958 52.1472 20.2266 52.1472 21.8233H52.1166V26.3472C52.6994 26.6133 53.4049 26.8794 54.3252 26.8794C56.5031 26.8462 57.8528 25.6819 57.8528 22.8545Z" fill="black"/>
<path d="M74 16.4305C74 17.0541 73.5962 17.3822 73.1346 17.3822C72.6154 17.3822 72.3846 17.1853 72.2404 16.6602C71.9231 15.8398 71.2885 14.0676 68.7788 14.0676C65.9519 14.0676 64.1058 16.1023 64.1058 20.3031C64.1058 24.7008 66.0962 26.8668 69.3269 26.8668C70.9712 26.8668 72.0096 26.3089 72.5 26.112C72.7019 26.0463 72.875 25.9807 73.1058 25.9807C73.5962 25.9807 73.9135 26.4073 73.9135 26.9324C73.9135 27.4903 73.7115 27.7529 73.3365 28.0154C72.4135 28.6062 70.6827 29 69.0962 29C64.7115 29 62 26.0463 62 20.4672C62 14.9865 64.6538 12 68.7212 12C72.3846 12 74 14.4614 74 16.4305Z" fill="black"/>
<path d="M76 13.5759C76 12.6706 76.6333 12 77.5 12C78.4 12 79 12.6706 79 13.5759C79 14.4813 78.4 15.1519 77.5 15.1519C76.6333 15.1519 76 14.4813 76 13.5759ZM78.6 18.1696V27.8935C78.6 28.497 78.1667 29 77.4333 29C76.7333 29 76.2667 28.497 76.2667 27.8935V18.1696C76.2667 17.5661 76.7333 17.0631 77.4333 17.0631C78.1333 17.0966 78.6 17.5661 78.6 18.1696Z" fill="black"/>
<path d="M85.0575 19.2902V25.5179C85.0575 26.6897 85.5531 26.9911 86.2965 26.9911C86.4823 26.9911 86.6681 26.9576 87.0398 26.9241C87.6593 26.8237 87.969 27.3259 87.969 27.8281C87.969 28.2969 87.7212 28.7656 87.1947 28.8661C86.7611 28.933 86.2655 29 85.7699 29C83.8805 29 82.9513 28.2634 82.9513 25.6853V19.2902H81.8673C81.4027 19.2902 81 18.8884 81 18.3192C81 17.7165 81.4027 17.3482 81.8673 17.3482H82.9513V15.1049C82.9513 14.5022 83.385 14 84.0354 14C84.6858 14 85.0885 14.5022 85.0885 15.1049V17.3482H87.1327C87.6283 17.3482 88 17.7165 88 18.3192C88 18.8884 87.6283 19.2902 87.1327 19.2902H85.0575Z" fill="black"/>
<path d="M100 17.9979C100 18.1975 99.9325 18.4304 99.8313 18.6299L94.8374 30.3721C93.9939 32.3347 92.7454 33 90.9233 33C90.5184 33 90.3159 32.9667 90.1472 32.9667C89.5399 32.9002 89.1687 32.5343 89.1687 31.9688C89.1687 31.4366 89.5061 30.9709 90.1135 31.0042C90.2822 31.0042 90.4509 31.0374 90.8221 31.0374C91.9693 31.0374 92.6442 30.6715 92.9816 29.7734L93.4877 28.5094L89.1687 18.6632C89.0675 18.4636 89 18.2308 89 18.0312C89 17.3659 89.5399 17 90.1135 17C90.5521 17 91.0245 17.2661 91.227 17.7651L94.6012 25.7817L97.8405 17.7318C98.0429 17.2328 98.4479 17.0333 98.954 17.0333C99.4264 17 100 17.3326 100 17.9979Z" fill="black"/>
<path d="M105 18.7778C105 18.9167 104.901 19 104.737 19C104.572 19 104.474 18.9167 104.474 18.7778L104.441 17.5278L103.849 18.6389C103.783 18.75 103.684 18.8056 103.586 18.8056C103.487 18.8056 103.388 18.75 103.322 18.6667L102.697 17.5L102.664 18.7778C102.664 18.9167 102.566 19 102.401 19C102.237 19 102.138 18.9167 102.138 18.7778L102.171 17.3611H101.349V18.7778C101.349 18.9167 101.25 19 101.086 19C100.921 19 100.822 18.9167 100.822 18.7778V17.3611H100.23C100.099 17.3611 100 17.2778 100 17.1667C100 17.0556 100.099 17 100.23 17H102.434C102.697 17 102.895 17.1111 103.026 17.2778L103.553 18.2778L104.112 17.25C104.211 17.0833 104.375 17 104.539 17C104.77 17 104.934 17.1389 104.934 17.3611L105 18.7778Z" fill="black"/>
</svg>
