<svg width="70" height="70" viewBox="0 0 70 70" fill="none" xmlns="http://www.w3.org/2000/svg">
<path d="M62.5907 0H23.2398C21.7908 0.0018438 20.4017 0.614132 19.3771 1.70256C18.3525 2.79099 17.7761 4.26668 17.7744 5.80595V22.0626H19.9606V5.80595C19.9606 4.88205 20.3061 3.99599 20.921 3.34269C21.536 2.6894 22.3701 2.32238 23.2398 2.32238H62.5907C63.4604 2.32238 64.2945 2.6894 64.9095 3.34269C65.5244 3.99599 65.8699 4.88205 65.8699 5.80595V32.5133H31.9845V34.8357H65.8699V37.1581C65.8699 38.082 65.5244 38.968 64.9095 39.6213C64.2945 40.2746 63.4604 40.6416 62.5907 40.6416H38.5429V42.964H46.4339L48.0735 49.9311H38.5429V52.2535H53.8461V49.9311H50.3263L48.6867 42.964H62.5907C64.0397 42.9622 65.4288 42.3499 66.4534 41.2614C67.478 40.173 68.0544 38.6973 68.0561 37.1581V5.80595C68.0544 4.26668 67.478 2.79099 66.4534 1.70256C65.4288 0.614132 64.0397 0.0018438 62.5907 0V0Z" fill="#FFA849"/>
<path d="M23.6906 4.92969H21.7188V6.90152H23.6906V4.92969Z" fill="#FFA849"/>
<path d="M28.6193 4.92969H26.6475V6.90152H28.6193V4.92969Z" fill="#FFA849"/>
<path d="M32.5636 4.92969H30.5918V6.90152H32.5636V4.92969Z" fill="#FFA849"/>
<path d="M23.6906 8.87305H21.7188V21.6899H23.6906V8.87305Z" fill="#FFA849"/>
<path d="M63.1264 27.6055H31.5771V29.5773H63.1264V27.6055Z" fill="#FFA849"/>
<path d="M28.6193 20.7041H26.6475V22.6759H28.6193V20.7041Z" fill="#FFA849"/>
<path d="M32.5636 19.7183H30.5918V25.6338H32.5636V19.7183Z" fill="#FFA849"/>
<path d="M36.507 20.7041H34.5352V25.6337H36.507V20.7041Z" fill="#FFA849"/>
<path d="M41.4367 17.7466H39.4648V25.6339H41.4367V17.7466Z" fill="#FFA849"/>
<path d="M45.38 14.7886H43.4082V25.6336H45.38V14.7886Z" fill="#FFA849"/>
<path d="M50.3097 17.7466H48.3379V25.6339H50.3097V17.7466Z" fill="#FFA849"/>
<path d="M54.2531 12.8169H52.2812V25.6338H54.2531V12.8169Z" fill="#FFA849"/>
<path d="M59.1828 10.8452H57.2109V25.6339H59.1828V10.8452Z" fill="#FFA849"/>
<path d="M63.1271 8.87305H61.1553V24.6477H63.1271V8.87305Z" fill="#FFA849"/>
<path d="M36.1581 59.5333V48.5348C36.1534 45.3473 35.2236 42.2344 33.4887 39.598C31.7538 36.9615 29.2935 34.9225 26.4252 33.7441L29.4223 27.7948C29.5482 27.5434 29.5788 27.2525 29.5081 26.979C29.4374 26.7055 29.2705 26.469 29.04 26.3158L27.9381 25.5853C27.1032 25.0389 26.1477 24.7202 25.1609 24.6591C24.1742 24.598 23.1886 24.7965 22.2965 25.236C21.8084 25.4759 21.2746 25.6003 20.734 25.6003C20.1935 25.6003 19.6597 25.4759 19.1716 25.236C18.2793 24.7963 17.2935 24.5977 16.3066 24.6588C15.3197 24.7198 14.3639 25.0387 13.5289 25.5853L12.427 26.3158C12.1965 26.469 12.0296 26.7055 11.9589 26.979C11.8882 27.2525 11.9188 27.5434 12.0447 27.7948L15.0385 33.7441C12.1702 34.9225 9.70984 36.9615 7.97495 39.598C6.24005 42.2344 5.31027 45.3473 5.30562 48.5348V59.5333L2.71622 63.0979C2.31719 63.6472 2.0742 64.3005 2.01447 64.9844C1.95475 65.6683 2.08065 66.3559 2.37807 66.9701C2.67549 67.5843 3.13267 68.1009 3.6984 68.4619C4.26413 68.8229 4.91604 69.0141 5.58109 69.0141H35.8826C36.5478 69.0146 37.2 68.8236 37.766 68.4627C38.332 68.1017 38.7893 67.5851 39.0868 66.9708C39.3843 66.3564 39.5102 65.6686 39.4502 64.9845C39.3903 64.3004 39.1469 63.6471 38.7475 63.0979L36.1581 59.5333ZM14.4611 27.6663L14.7156 27.4979C15.2334 27.159 15.826 26.9615 16.4379 26.9239C17.0499 26.8862 17.661 27.0098 18.2141 27.2828C19.0006 27.6694 19.8607 27.87 20.7318 27.87C21.6029 27.87 22.4631 27.6694 23.2496 27.2828C23.8025 27.0098 24.4134 26.8862 25.0252 26.9238C25.637 26.9615 26.2294 27.159 26.747 27.4979L27.0026 27.6663L24.292 33.0512C21.9533 32.4581 19.5104 32.4581 17.1717 33.0512L14.4611 27.6663ZM35.8826 66.7387H5.58109C5.3253 66.7387 5.07456 66.6651 4.85698 66.5263C4.63939 66.3874 4.46355 66.1887 4.34916 65.9525C4.23477 65.7163 4.18634 65.4518 4.20931 65.1888C4.23228 64.9257 4.32574 64.6745 4.47922 64.4632L7.28899 60.5948C7.43204 60.3979 7.50937 60.1584 7.50937 59.9122V48.5348C7.50937 44.9138 8.90245 41.4411 11.3821 38.8807C13.8618 36.3203 17.225 34.8818 20.7318 34.8818C24.2387 34.8818 27.6019 36.3203 30.0815 38.8807C32.5612 41.4411 33.9543 44.9138 33.9543 48.5348V59.9122C33.9543 60.1584 34.0316 60.3979 34.1747 60.5948L36.9845 64.4632C37.1384 64.6744 37.2322 64.9257 37.2554 65.1889C37.2786 65.4521 37.2302 65.7167 37.1158 65.9531C37.0013 66.1895 36.8252 66.3883 36.6074 66.527C36.3896 66.6658 36.1386 66.7391 35.8826 66.7387Z" fill="#FFA849"/>
<path d="M22.4967 44.7607H22.3348V42.3945H20.1166V44.7607H19.9547C19.2415 44.7607 18.5493 45.0175 17.9901 45.4896C17.4309 45.9617 17.0375 46.6214 16.8737 47.3618C16.7099 48.1022 16.7853 48.8799 17.0876 49.5688C17.39 50.2578 17.9016 50.8177 18.5395 51.1577L22.9192 53.4944C23.1101 53.5961 23.2632 53.7635 23.3537 53.9696C23.4442 54.1757 23.4669 54.4083 23.418 54.6298C23.3691 54.8514 23.2515 55.0488 23.0843 55.1901C22.9171 55.3315 22.71 55.4085 22.4967 55.4086H19.9547C19.7037 55.408 19.4631 55.3013 19.2856 55.112C19.1081 54.9227 19.0081 54.666 19.0075 54.3982V54.2255H16.7894V54.3982C16.7902 55.2935 17.124 56.1518 17.7174 56.7848C18.3108 57.4178 19.1154 57.7739 19.9547 57.7748H20.1166V60.141H22.3348V57.7748H22.4967C23.2098 57.7749 23.9021 57.5181 24.4613 57.046C25.0205 56.5739 25.4139 55.9142 25.5777 55.1738C25.7415 54.4334 25.6661 53.6557 25.3637 52.9667C25.0614 52.2777 24.5498 51.7178 23.9119 51.3778L19.5321 49.0412C19.3413 48.9395 19.1882 48.772 19.0977 48.566C19.0071 48.3599 18.9845 48.1272 19.0334 47.9057C19.0823 47.6842 19.1999 47.4868 19.3671 47.3454C19.5343 47.2041 19.7413 47.1271 19.9547 47.1269H22.4967C22.7477 47.1276 22.9883 47.2342 23.1658 47.4235C23.3433 47.6129 23.4433 47.8695 23.4438 48.1373V49.4931H25.662V48.1373C25.6611 47.2421 25.3274 46.3838 24.7339 45.7507C24.1405 45.1177 23.3359 44.7617 22.4967 44.7607Z" fill="#FFA849"/>
<path d="M44.3944 54.2256C43.4194 54.2256 42.4664 54.5436 41.6557 55.1395C40.845 55.7353 40.2132 56.5822 39.8401 57.573C39.467 58.5638 39.3694 59.6541 39.5596 60.706C39.7498 61.7579 40.2193 62.7241 40.9087 63.4824C41.5981 64.2408 42.4765 64.7572 43.4327 64.9665C44.389 65.1757 45.3801 65.0683 46.2809 64.6579C47.1817 64.2475 47.9515 63.5524 48.4932 62.6607C49.0349 61.769 49.324 60.7206 49.324 59.6481C49.3225 58.2105 48.8027 56.8321 47.8786 55.8156C46.9544 54.799 45.7014 54.2272 44.3944 54.2256V54.2256ZM44.3944 62.6606C43.8528 62.6606 43.3233 62.484 42.8729 62.1529C42.4225 61.8219 42.0715 61.3514 41.8642 60.801C41.657 60.2505 41.6027 59.6448 41.7084 59.0604C41.8141 58.476 42.0749 57.9393 42.4579 57.5179C42.8409 57.0966 43.3289 56.8097 43.8601 56.6935C44.3914 56.5772 44.942 56.6369 45.4425 56.8649C45.9429 57.0929 46.3706 57.479 46.6715 57.9745C46.9725 58.4699 47.1331 59.0523 47.1331 59.6481C47.1331 60.4471 46.8445 61.2133 46.3309 61.7783C45.8173 62.3433 45.1208 62.6606 44.3944 62.6606V62.6606Z" fill="#FFA849"/>
<path d="M55.2391 59.1548C54.2642 59.1548 53.3111 59.4728 52.5004 60.0686C51.6898 60.6645 51.0579 61.5114 50.6848 62.5022C50.3117 63.493 50.2141 64.5833 50.4043 65.6352C50.5945 66.6871 51.064 67.6533 51.7534 68.4116C52.4428 69.17 53.3212 69.6864 54.2774 69.8957C55.2337 70.1049 56.2249 69.9975 57.1256 69.5871C58.0264 69.1767 58.7963 68.4816 59.3379 67.5899C59.8796 66.6982 60.1687 65.6498 60.1687 64.5773C60.1673 63.1397 59.6474 61.7613 58.7233 60.7448C57.7991 59.7282 56.5461 59.1564 55.2391 59.1548V59.1548ZM55.2391 67.5898C54.6975 67.5898 54.168 67.4132 53.7176 67.0821C53.2673 66.7511 52.9162 66.2806 52.709 65.7302C52.5017 65.1797 52.4474 64.574 52.5531 63.9896C52.6588 63.4052 52.9196 62.8685 53.3026 62.4471C53.6856 62.0258 54.1736 61.7389 54.7049 61.6227C55.2361 61.5064 55.7868 61.5661 56.2872 61.7941C56.7876 62.0221 57.2153 62.4082 57.5163 62.9037C57.8172 63.3991 57.9778 63.9815 57.9778 64.5773C57.9778 65.3763 57.6893 66.1425 57.1757 66.7075C56.6621 67.2725 55.9655 67.5898 55.2391 67.5898V67.5898Z" fill="#FFA849"/>
<path d="M2.90417 19.8996C3.76654 20.0567 4.5624 20.5037 5.18064 21.1781C5.79887 21.8525 6.2086 22.7207 6.35262 23.6615C6.39538 23.9373 6.52629 24.1877 6.72214 24.3683C6.91799 24.5488 7.16612 24.6479 7.42254 24.6479C7.67895 24.6479 7.92708 24.5488 8.12293 24.3683C8.31878 24.1877 8.44969 23.9373 8.49245 23.6615C8.63647 22.7207 9.0462 21.8525 9.66444 21.1781C10.2827 20.5037 11.0785 20.0567 11.9409 19.8996C12.1937 19.8529 12.4232 19.7101 12.5888 19.4965C12.7543 19.2828 12.8451 19.0121 12.8451 18.7324C12.8451 18.4527 12.7543 18.182 12.5888 17.9683C12.4232 17.7547 12.1937 17.6119 11.9409 17.5652C11.0785 17.4081 10.2827 16.9611 9.66444 16.2867C9.0462 15.6122 8.63647 14.744 8.49245 13.8033C8.44969 13.5274 8.31878 13.2771 8.12293 13.0965C7.92708 12.916 7.67895 12.8169 7.42254 12.8169C7.16612 12.8169 6.91799 12.916 6.72214 13.0965C6.52629 13.2771 6.39538 13.5274 6.35262 13.8033C6.2086 14.744 5.79887 15.6122 5.18064 16.2867C4.5624 16.9611 3.76654 17.4081 2.90417 17.5652C2.65134 17.6119 2.42182 17.7547 2.25631 17.9683C2.09081 18.182 2 18.4527 2 18.7324C2 19.0121 2.09081 19.2828 2.25631 19.4965C2.42182 19.7101 2.65134 19.8529 2.90417 19.8996V19.8996ZM7.42254 17.042C7.84565 17.6989 8.36992 18.2708 8.97206 18.7324C8.36992 19.194 7.84565 19.7659 7.42254 20.4228C6.99942 19.7659 6.47516 19.194 5.87301 18.7324C6.47516 18.2708 6.99942 17.6989 7.42254 17.042V17.042Z" fill="#FFA849"/>
</svg>
