<svg width="70" height="70" viewBox="0 0 70 70" fill="none" xmlns="http://www.w3.org/2000/svg">
<g clip-path="url(#clip0_836_11724)">
<path d="M34.5 30C35.7856 30 37.0423 29.6188 38.1112 28.9046C39.1801 28.1903 40.0132 27.1752 40.5052 25.9874C40.9972 24.7997 41.1259 23.4928 40.8751 22.2319C40.6243 20.971 40.0052 19.8128 39.0962 18.9038C38.1872 17.9948 37.029 17.3757 35.7681 17.1249C34.5072 16.8741 33.2003 17.0028 32.0126 17.4948C30.8248 17.9868 29.8097 18.8199 29.0954 19.8888C28.3812 20.9577 28 22.2144 28 23.5C28.0017 25.2234 28.6871 26.8757 29.9057 28.0943C31.1243 29.3129 32.7766 29.9983 34.5 30ZM34.5 19.1667C35.3571 19.1667 36.1949 19.4208 36.9075 19.897C37.6201 20.3731 38.1755 21.0499 38.5035 21.8417C38.8315 22.6335 38.9173 23.5048 38.7501 24.3454C38.5829 25.186 38.1702 25.9581 37.5641 26.5641C36.9581 27.1702 36.186 27.5829 35.3454 27.7501C34.5048 27.9173 33.6335 27.8315 32.8417 27.5035C32.0499 27.1755 31.3731 26.6201 30.897 25.9075C30.4208 25.1949 30.1667 24.3571 30.1667 23.5C30.1667 22.3507 30.6232 21.2485 31.4359 20.4359C32.2485 19.6232 33.3507 19.1667 34.5 19.1667Z" fill="#FFA849"/>
<path d="M23.9299 54C24.0488 53.9998 24.1669 53.9808 24.2798 53.9436C24.4748 53.8787 24.6479 53.7608 24.7797 53.6031C24.9115 53.4454 24.9967 53.2541 25.0259 53.0507L25.8617 47.2046C25.8995 46.9413 26.031 46.7003 26.232 46.526C26.4331 46.3517 26.6903 46.2556 26.9565 46.2553H30.3284L29.4871 50.4596C29.4543 50.6203 29.4576 50.7864 29.4969 50.9457C29.5362 51.105 29.6105 51.2536 29.7143 51.3807C29.8182 51.5078 29.949 51.6102 30.0973 51.6805C30.2457 51.7508 30.4078 51.7873 30.572 51.7872H39.428C39.5922 51.7873 39.7543 51.7508 39.9027 51.6805C40.051 51.6102 40.1818 51.5078 40.2857 51.3807C40.3895 51.2536 40.4638 51.105 40.5031 50.9457C40.5424 50.7864 40.5457 50.6203 40.5129 50.4596L39.6716 46.2553H43.0435C43.3099 46.2556 43.5672 46.3518 43.7683 46.5264C43.9694 46.701 44.1008 46.9422 44.1383 47.2057L44.9741 53.0507C45.0033 53.2541 45.0885 53.4454 45.2203 53.6031C45.3521 53.7608 45.5252 53.8787 45.7202 53.9436C45.8331 53.9808 45.9512 53.9998 46.0701 54C46.3636 53.9999 46.6451 53.8833 46.8527 53.6758C48.2586 52.2728 49.3528 50.5894 50.0638 48.7353C50.7748 46.8812 51.0868 44.8981 50.9793 42.9153C50.8718 40.9326 50.3473 38.9948 49.44 37.2284C48.5327 35.4619 47.2629 33.9064 45.7136 32.6634L45.7247 32.6314C47.5026 27.1478 47.4837 21.2403 45.6705 15.7682C43.8573 10.2961 40.3445 5.54496 35.6432 2.20589C35.4555 2.07198 35.2306 2 35 2C34.7694 2 34.5445 2.07198 34.3568 2.20589C29.6555 5.54496 26.1427 10.2961 24.3295 15.7682C22.5163 21.2403 22.4973 27.1478 24.2753 32.6314L24.2864 32.6634C22.7371 33.9064 21.4673 35.4619 20.56 37.2284C19.6527 38.9948 19.1282 40.9326 19.0207 42.9153C18.9132 44.8981 19.2252 46.8812 19.9362 48.7353C20.6472 50.5894 21.7414 52.2728 23.1473 53.6758C23.3548 53.8833 23.6364 53.9999 23.9299 54ZM38.0775 49.5745H31.9225L32.5867 46.2553H37.4133L38.0775 49.5745ZM48.7457 42.6839C48.9707 45.3513 48.2885 48.0166 46.8095 50.2483L46.3302 46.8926C46.2142 46.1031 45.8187 45.3814 45.2157 44.8584C44.6126 44.3355 43.8419 44.046 43.0435 44.0426H42.0538L44.9852 34.9282C47.1619 36.9548 48.5029 39.7207 48.7457 42.6839ZM35 4.48172C37.6606 6.5103 39.8862 9.05257 41.5446 11.9575H28.4554C30.1138 9.05257 32.3394 6.5103 35 4.48172ZM27.3417 14.1703H42.6583C45.1621 19.7767 45.5032 26.1105 43.6158 31.9532L43.3723 32.711L39.728 44.0426H30.272L26.6277 32.711L26.3842 31.9532C24.4968 26.1105 24.8379 19.7767 27.3417 14.1703ZM21.2532 42.6839C21.4968 39.7202 22.8391 36.9543 25.017 34.9282L27.9462 44.0426H26.9565C26.1581 44.046 25.3874 44.3355 24.7843 44.8584C24.1813 45.3814 23.7858 46.1031 23.6698 46.8926L23.1905 50.2483C21.7114 48.0166 21.0293 45.3513 21.2543 42.6839H21.2532Z" fill="#FFA849"/>
<path d="M10.8571 68H13.0714C13.0727 65.5517 12.2544 63.1732 10.7464 61.2424C11.4036 60.1553 12.3586 59.2786 13.4988 58.7158C13.5099 58.7158 13.522 58.7158 13.5331 58.7048C14.4249 58.275 15.4026 58.0521 16.3929 58.0527C17.4505 58.0576 18.4917 58.314 19.4304 58.8007C20.369 59.2873 21.1779 59.9902 21.7902 60.8512C21.1611 62.0317 20.8286 63.3471 20.8214 64.6842H23.0357C23.0348 63.5543 23.3546 62.4471 23.958 61.4911H23.9513C23.9668 61.4701 23.9879 61.4547 24.0034 61.4325C24.7285 60.3687 25.8038 59.592 27.0427 59.237C28.2816 58.8821 29.6059 58.9714 30.7857 59.4895V62.3853H33V53.5432H30.7857V57.1464C29.4659 56.7442 28.0619 56.7046 26.7214 57.0318C25.381 57.3589 24.1537 58.0407 23.1686 59.0054C22.3374 58.0181 21.3006 57.2236 20.1304 56.6773C18.9602 56.1309 17.6847 55.8459 16.3929 55.8421C15.5868 55.8421 14.7846 55.9537 14.0092 56.1737C13.5763 53.6026 12.2425 51.2687 10.2456 49.5884C8.24871 47.9081 5.71874 46.9907 3.10714 47.0001H2V49.2106H3.10714C5.29173 49.2039 7.40085 50.008 9.02478 51.4668C10.6487 52.9256 11.6715 54.9349 11.8945 57.1044C10.8185 57.7299 9.88636 58.5746 9.15878 59.5834C7.16328 57.8815 4.62463 56.9467 2 56.9474V59.1579C4.34825 59.1606 6.59957 60.093 8.26003 61.7506C9.9205 63.4083 10.8545 65.6557 10.8571 68Z" fill="#FFA849"/>
<path d="M55.9908 56.1737C55.2154 55.9537 54.4132 55.8421 53.6071 55.8421C52.3155 55.8455 51.0402 56.13 49.87 56.6758C48.6998 57.2215 47.6629 58.0154 46.8314 59.0021C45.8463 58.0374 44.619 57.3556 43.2786 57.0284C41.9381 56.7013 40.5341 56.7409 39.2143 57.143V53.5399H37V62.382H39.2143V59.4895C40.394 58.9713 41.7182 58.8818 42.9571 59.2366C44.196 59.5913 45.2714 60.3678 45.9966 61.4314C46.0121 61.4535 46.0332 61.469 46.0487 61.49H46.042C46.6456 62.4464 46.9654 63.5539 46.9643 64.6842H49.1786C49.1714 63.3471 48.8389 62.0317 48.2098 60.8512C48.8221 59.9902 49.631 59.2873 50.5696 58.8007C51.5082 58.314 52.5495 58.0576 53.6071 58.0527C54.5976 58.0527 55.5752 58.2764 56.4669 58.707C56.478 58.7125 56.4901 58.7136 56.5012 58.718C57.6431 59.2794 58.6001 60.1553 59.2591 61.2424C57.7492 63.1725 56.9289 65.5511 56.9286 68H59.1429C59.1455 65.6557 60.0795 63.4083 61.74 61.7506C63.4004 60.093 65.6517 59.1606 68 59.1579V56.9474C65.3754 56.9469 62.8368 57.8816 60.8412 59.5834C60.1136 58.5746 59.1815 57.7299 58.1055 57.1044C58.3285 54.9349 59.3513 52.9256 60.9752 51.4668C62.5992 50.008 64.7083 49.2039 66.8929 49.2106H68V47.0001H66.8929C64.2813 46.9907 61.7513 47.9081 59.7544 49.5884C57.7575 51.2687 56.4237 53.6026 55.9908 56.1737Z" fill="#FFA849"/>
<path d="M32 34H30V36H32V34Z" fill="#FFA849"/>
<path d="M36 34H34V36H36V34Z" fill="#FFA849"/>
<path d="M40 34H38V36H40V34Z" fill="#FFA849"/>
<path d="M16 60H14V62H16V60Z" fill="#FFA849"/>
<path d="M4 43H2V45H4V43Z" fill="#FFA849"/>
<path d="M66 53H64V55H66V53Z" fill="#FFA849"/>
<path d="M57 48H55V50H57V48Z" fill="#FFA849"/>
<path d="M45 66H43V68H45V66Z" fill="#FFA849"/>
<path d="M68 40H66V42H68V40Z" fill="#FFA849"/>
</g>
<defs>
<clipPath id="clip0_836_11724">
<rect width="70" height="70" fill="white"/>
</clipPath>
</defs>
</svg>
