<svg width="70" height="70" viewBox="0 0 70 70" fill="none" xmlns="http://www.w3.org/2000/svg">
<path d="M41.0003 29.2556L48.1637 25.6508C49.373 25.0423 50.3794 24.0916 51.0592 22.9153C51.7389 21.7391 52.0625 20.3886 51.99 19.0298C51.9176 17.671 51.4523 16.363 50.6514 15.2668C49.8504 14.1705 48.7487 13.3336 47.4817 12.8589L40.3314 9.83857C40.195 9.78029 40.0484 9.75017 39.9002 9.75H38.8002V2H36.6001V5.32143H34.4V2H32.2V9.75H31.0999C30.9518 9.75017 30.8051 9.78029 30.6687 9.83857L23.568 12.8389C22.2931 13.3056 21.182 14.1382 20.3722 15.2336C19.5623 16.329 19.0893 17.6393 19.0114 19.0025C18.9336 20.3656 19.2544 21.7218 19.9342 22.9034C20.6141 24.085 21.6231 25.0402 22.8365 25.6508L29.9999 29.2556V29.6786C30.0039 30.8803 30.4005 32.0474 31.1285 33H31.0999C29.6417 33.0018 28.2438 33.5855 27.2127 34.6233C26.1816 35.6611 25.6015 37.0681 25.5998 38.5357V49.6071C25.5998 49.9008 25.7157 50.1824 25.922 50.39C26.1283 50.5976 26.4081 50.7143 26.6998 50.7143H29.9999V59.2393L27.9846 62.2817C27.875 62.4484 27.8122 62.6419 27.803 62.8416C27.7938 63.0413 27.8385 63.2398 27.9324 63.416C28.0262 63.5921 28.1657 63.7395 28.3361 63.8423C28.5064 63.9451 28.7012 63.9996 28.8999 64H42.1003C42.2994 64 42.4949 63.9456 42.6657 63.8426C42.8366 63.7396 42.9764 63.5919 43.0704 63.4152C43.1643 63.2384 43.2089 63.0393 43.1992 62.8391C43.1895 62.6389 43.1261 62.4451 43.0155 62.2784L41.0003 59.2393V50.7143H44.3004C44.5921 50.7143 44.8719 50.5976 45.0782 50.39C45.2845 50.1824 45.4004 49.9008 45.4004 49.6071V38.5357C45.4004 37.8088 45.2581 37.0889 44.9817 36.4173C44.7053 35.7457 44.3002 35.1354 43.7894 34.6214C43.2787 34.1073 42.6724 33.6996 42.005 33.4214C41.3377 33.1432 40.6225 33 39.9002 33H39.8716C40.5996 32.0474 40.9962 30.8803 41.0003 29.6786V29.2556ZM31.8601 23.3468C31.7809 23.2686 31.6904 23.2029 31.5917 23.152L25.877 20.2734C25.7865 20.2277 25.7118 20.1555 25.6627 20.0663C25.6137 19.9772 25.5925 19.8752 25.602 19.7737C25.6115 19.6722 25.6513 19.576 25.716 19.4976C25.7808 19.4193 25.8676 19.3624 25.965 19.3345L30.7204 17.9672C31.1897 18.8303 31.8811 19.5505 32.722 20.0521C33.5629 20.5538 34.5225 20.8185 35.5001 20.8185C36.4776 20.8185 37.4372 20.5538 38.2782 20.0521C39.1191 19.5505 39.8105 18.8303 40.2797 17.9672L45.0352 19.3345C45.1325 19.3626 45.2192 19.4195 45.2839 19.4979C45.3485 19.5764 45.3881 19.6726 45.3975 19.7741C45.4069 19.8755 45.3856 19.9775 45.3365 20.0666C45.2873 20.1557 45.2126 20.2278 45.1221 20.2734L39.4085 23.152C39.3098 23.2029 39.2193 23.2686 39.1401 23.3468C38.1446 22.4342 36.8466 21.9285 35.5001 21.9285C34.1536 21.9285 32.8555 22.4342 31.8601 23.3468ZM49.8005 19.4032C49.8034 20.2898 49.5595 21.1594 49.0964 21.9136C48.6332 22.6678 47.9695 23.2763 47.1803 23.6701L41.0003 26.7801V24.8271L46.1055 22.2607C46.5562 22.0363 46.9353 21.689 47.1996 21.2584C47.4639 20.8278 47.6028 20.3311 47.6005 19.825C47.5987 19.2341 47.4067 18.6597 47.0533 18.1879C46.6999 17.716 46.2041 17.3721 45.6402 17.2077L40.9431 15.857C40.9722 15.6677 40.9913 15.477 41.0003 15.2857V12.5179L46.6808 14.9159C47.5946 15.2527 48.3837 15.8635 48.9416 16.6659C49.4995 17.4684 49.7993 18.4238 49.8005 19.4032ZM34.4 7.53571H36.6001V9.75H34.4V7.53571ZM32.2 11.9643H38.8002V15.2857C38.8002 16.1666 38.4525 17.0114 37.8336 17.6343C37.2147 18.2572 36.3753 18.6071 35.5001 18.6071C34.6248 18.6071 33.7854 18.2572 33.1666 17.6343C32.5477 17.0114 32.2 16.1666 32.2 15.2857V11.9643ZM21.1996 19.4032C21.2043 18.4158 21.511 17.4537 22.0781 16.6479C22.6451 15.8421 23.4449 15.2316 24.3688 14.8993L29.9999 12.5179V15.2857C30.0089 15.477 30.028 15.6677 30.0571 15.857L25.3611 17.2077C24.7969 17.3719 24.3009 17.7157 23.9473 18.1876C23.5937 18.6595 23.4015 19.234 23.3997 19.825C23.3974 20.331 23.5362 20.8275 23.8002 21.258C24.0643 21.6886 24.4431 22.036 24.8935 22.2607L29.9999 24.8271V26.7801L23.8199 23.6701C23.0307 23.2763 22.3669 22.6678 21.9038 21.9136C21.4407 21.1594 21.1967 20.2898 21.1996 19.4032ZM27.7998 48.5V46.2857H29.9999V48.5H27.7998ZM36.6001 61.7857V50.7143H34.4V61.7857H30.9558L32.0152 60.1859C32.1354 60.0038 32.1996 59.7901 32.2 59.5714V48.5H38.8002V59.5714C38.8005 59.7901 38.8648 60.0038 38.985 60.1859L40.0443 61.7857H36.6001ZM43.2003 48.5H41.0003V46.2857H43.2003V48.5ZM43.2003 38.5357V44.0714H41.0003V38.5357C41.0003 38.2421 40.8844 37.9605 40.6781 37.7528C40.4718 37.5452 40.192 37.4286 39.9002 37.4286C39.6085 37.4286 39.3287 37.5452 39.1224 37.7528C38.9161 37.9605 38.8002 38.2421 38.8002 38.5357V46.2857H32.2V38.5357C32.2 38.2421 32.0841 37.9605 31.8778 37.7528C31.6715 37.5452 31.3917 37.4286 31.0999 37.4286C30.8082 37.4286 30.5284 37.5452 30.3221 37.7528C30.1158 37.9605 29.9999 38.2421 29.9999 38.5357V44.0714H27.7998V38.5357C27.7998 37.6548 28.1475 36.81 28.7664 36.1871C29.3853 35.5642 30.2247 35.2143 31.0999 35.2143H34.4V44.0714H36.6001V35.2143H39.9002C40.7755 35.2143 41.6149 35.5642 42.2337 36.1871C42.8526 36.81 43.2003 37.6548 43.2003 38.5357ZM32.2 29.6786V27.4643C32.2 26.5834 32.5477 25.7386 33.1666 25.1157C33.7854 24.4928 34.6248 24.1429 35.5001 24.1429C36.3753 24.1429 37.2147 24.4928 37.8336 25.1157C38.4525 25.7386 38.8002 26.5834 38.8002 27.4643V29.6786C38.8002 30.5595 38.4525 31.4043 37.8336 32.0272C37.2147 32.6501 36.3753 33 35.5001 33C34.6248 33 33.7854 32.6501 33.1666 32.0272C32.5477 31.4043 32.2 30.5595 32.2 29.6786Z" fill="#FFA849"/>
<path d="M3.11111 54.7368H6.44444V63.2474L4.40889 66.2813C4.29725 66.4478 4.23312 66.6412 4.22336 66.8411C4.21361 67.041 4.25857 67.2397 4.35347 67.4162C4.44837 67.5926 4.58964 67.7401 4.76221 67.8429C4.93478 67.9457 5.13217 68 5.33333 68H18.6667C18.8678 68 19.0652 67.9457 19.2378 67.8429C19.4104 67.7401 19.5516 67.5926 19.6465 67.4162C19.7414 67.2397 19.7864 67.041 19.7766 66.8411C19.7669 66.6412 19.7028 66.4478 19.5911 66.2813L17.5556 63.2474V54.7368H20.8889C21.1836 54.7368 21.4662 54.6204 21.6746 54.4131C21.8829 54.2058 22 53.9247 22 53.6316V42.5789C22 41.1133 21.4147 39.7076 20.3728 38.6713C19.3309 37.6349 17.9179 37.0526 16.4444 37.0526H16.4156C17.1509 36.1017 17.5515 34.9366 17.5556 33.7368V31.5263C17.5556 30.0606 16.9702 28.655 15.9284 27.6186C14.8865 26.5822 13.4734 26 12 26C10.5266 26 9.1135 26.5822 8.07163 27.6186C7.02976 28.655 6.44444 30.0606 6.44444 31.5263V33.7368C6.44853 34.9366 6.8491 36.1017 7.58444 37.0526H7.55556C6.08267 37.0544 4.67062 37.6372 3.62913 38.6732C2.58765 39.7092 2.00176 41.1138 2 42.5789V53.6316C2 53.9247 2.11706 54.2058 2.32544 54.4131C2.53381 54.6204 2.81643 54.7368 3.11111 54.7368ZM4.22222 52.5263V50.3158H6.44444V52.5263H4.22222ZM13.1111 65.7895V54.7368H10.8889V65.7895H7.41L8.48 64.1924C8.6014 64.0106 8.66632 63.7972 8.66667 63.5789V52.5263H15.3333V63.5789C15.3337 63.7972 15.3986 64.0106 15.52 64.1924L16.59 65.7895H13.1111ZM19.7778 52.5263H17.5556V50.3158H19.7778V52.5263ZM8.66667 33.7368V31.5263C8.66667 30.6469 9.01786 29.8035 9.64298 29.1817C10.2681 28.5599 11.1159 28.2105 12 28.2105C12.8841 28.2105 13.7319 28.5599 14.357 29.1817C14.9821 29.8035 15.3333 30.6469 15.3333 31.5263V33.7368C15.3333 34.6162 14.9821 35.4596 14.357 36.0815C13.7319 36.7033 12.8841 37.0526 12 37.0526C11.1159 37.0526 10.2681 36.7033 9.64298 36.0815C9.01786 35.4596 8.66667 34.6162 8.66667 33.7368ZM4.22222 42.5789C4.22222 41.6995 4.57341 40.8562 5.19853 40.2343C5.82365 39.6125 6.6715 39.2632 7.55556 39.2632H10.8889V48.1053H13.1111V39.2632H16.4444C17.3285 39.2632 18.1763 39.6125 18.8015 40.2343C19.4266 40.8562 19.7778 41.6995 19.7778 42.5789V48.1053H17.5556V42.5789C17.5556 42.2858 17.4385 42.0047 17.2301 41.7974C17.0217 41.5901 16.7391 41.4737 16.4444 41.4737C16.1498 41.4737 15.8671 41.5901 15.6588 41.7974C15.4504 42.0047 15.3333 42.2858 15.3333 42.5789V50.3158H8.66667V42.5789C8.66667 42.2858 8.5496 42.0047 8.34123 41.7974C8.13286 41.5901 7.85024 41.4737 7.55556 41.4737C7.26087 41.4737 6.97826 41.5901 6.76988 41.7974C6.56151 42.0047 6.44444 42.2858 6.44444 42.5789V48.1053H4.22222V42.5789Z" fill="#FFA849"/>
<path d="M50.4089 66.2813C50.2972 66.4478 50.2331 66.6412 50.2234 66.8411C50.2136 67.041 50.2586 67.2397 50.3535 67.4162C50.4484 67.5926 50.5896 67.7401 50.7622 67.8429C50.9348 67.9457 51.1322 68 51.3333 68H64.6667C64.8678 68 65.0652 67.9457 65.2378 67.8429C65.4104 67.7401 65.5516 67.5926 65.6465 67.4162C65.7414 67.2397 65.7864 67.041 65.7766 66.8411C65.7669 66.6412 65.7028 66.4478 65.5911 66.2813L63.5556 63.2474V54.7368H66.8889C67.1836 54.7368 67.4662 54.6204 67.6746 54.4131C67.8829 54.2058 68 53.9247 68 53.6316V42.5789C68 41.1133 67.4147 39.7076 66.3728 38.6713C65.3309 37.6349 63.9179 37.0526 62.4444 37.0526H62.4156C63.1509 36.1017 63.5515 34.9366 63.5556 33.7368V31.5263C63.5556 30.0606 62.9702 28.655 61.9284 27.6186C60.8865 26.5822 59.4734 26 58 26C56.5266 26 55.1135 26.5822 54.0716 27.6186C53.0298 28.655 52.4444 30.0606 52.4444 31.5263V33.7368C52.4485 34.9366 52.8491 36.1017 53.5844 37.0526H53.5556C52.0827 37.0544 50.6706 37.6372 49.6291 38.6732C48.5876 39.7092 48.0018 41.1138 48 42.5789V53.6316C48 53.9247 48.1171 54.2058 48.3254 54.4131C48.5338 54.6204 48.8164 54.7368 49.1111 54.7368H52.4444V63.2474L50.4089 66.2813ZM59.1111 65.7895V54.7368H56.8889V65.7895H53.41L54.48 64.1924C54.6014 64.0106 54.6663 63.7972 54.6667 63.5789V52.5263H61.3333V63.5789C61.3337 63.7972 61.3986 64.0106 61.52 64.1924L62.59 65.7895H59.1111ZM65.7778 52.5263H63.5556V50.3158H65.7778V52.5263ZM54.6667 33.7368V31.5263C54.6667 30.6469 55.0179 29.8035 55.643 29.1817C56.2681 28.5599 57.1159 28.2105 58 28.2105C58.8841 28.2105 59.7319 28.5599 60.357 29.1817C60.9821 29.8035 61.3333 30.6469 61.3333 31.5263V33.7368C61.3333 34.6162 60.9821 35.4596 60.357 36.0815C59.7319 36.7033 58.8841 37.0526 58 37.0526C57.1159 37.0526 56.2681 36.7033 55.643 36.0815C55.0179 35.4596 54.6667 34.6162 54.6667 33.7368ZM50.2222 42.5789C50.2222 41.6995 50.5734 40.8562 51.1985 40.2343C51.8237 39.6125 52.6715 39.2632 53.5556 39.2632H56.8889V48.1053H59.1111V39.2632H62.4444C63.3285 39.2632 64.1763 39.6125 64.8015 40.2343C65.4266 40.8562 65.7778 41.6995 65.7778 42.5789V48.1053H63.5556V42.5789C63.5556 42.2858 63.4385 42.0047 63.2301 41.7974C63.0217 41.5901 62.7391 41.4737 62.4444 41.4737C62.1498 41.4737 61.8671 41.5901 61.6588 41.7974C61.4504 42.0047 61.3333 42.2858 61.3333 42.5789V50.3158H54.6667V42.5789C54.6667 42.2858 54.5496 42.0047 54.3412 41.7974C54.1329 41.5901 53.8502 41.4737 53.5556 41.4737C53.2609 41.4737 52.9783 41.5901 52.7699 41.7974C52.5615 42.0047 52.4444 42.2858 52.4444 42.5789V48.1053H50.2222V42.5789ZM50.2222 52.5263V50.3158H52.4444V52.5263H50.2222Z" fill="#FFA849"/>
<path d="M36 14H34V16H36V14Z" fill="#FFA849"/>
<path d="M41 66H28V68H41V66Z" fill="#FFA849"/>
</svg>
