<svg width="60" height="60" viewBox="0 0 60 60" fill="none" xmlns="http://www.w3.org/2000/svg">
<path d="M26.1758 14.8994L26.2783 13.0244C25.9522 13.0094 25.6251 13 25.2953 13C21.4597 13.0121 17.7309 14.2713 14.6648 16.5898C11.5987 18.9083 9.3598 22.1619 8.28192 25.8653C7.95112 27.0194 4.06353 37.9844 2.05451 43.6216C2.00418 43.763 1.98838 43.9146 2.00845 44.0635C2.02852 44.2124 2.08386 44.3542 2.16981 44.4771C2.25577 44.6 2.36982 44.7002 2.50235 44.7695C2.63488 44.8387 2.78202 44.8749 2.93136 44.875H7.5905V51.4375C7.59248 53.1774 8.28033 54.8454 9.50317 56.0757C10.726 57.306 12.384 57.998 14.1133 58H42.0682C42.3153 58 42.5523 57.9012 42.7271 57.7254C42.9018 57.5496 43 57.3111 43 57.0625V47.6875H41.1363V56.125H31.0502C31.3329 55.7494 31.5572 55.3328 31.7156 54.8894L35.4904 44.2525L33.7367 43.6225L29.9609 54.2584C29.766 54.8042 29.4086 55.2763 28.9374 55.6103C28.4661 55.9443 27.904 56.1241 27.3276 56.125H14.1133C12.8781 56.1235 11.6939 55.6292 10.8204 54.7504C9.94699 53.8717 9.45564 52.6802 9.45416 51.4375V48.5828C11.114 48.4103 12.6636 47.6657 13.8403 46.4753L12.5227 45.1497C11.6936 45.9851 10.6163 46.5256 9.45416 46.6891V43.9375C9.45416 43.6889 9.35599 43.4504 9.18123 43.2746C9.00648 43.0988 8.76947 43 8.52233 43H4.25549C5.63553 39.1206 9.70762 27.655 10.0729 26.3847C11.0376 23.0714 13.0409 20.1607 15.7842 18.0865C18.5275 16.0123 21.8637 14.8858 25.2953 14.875C25.5906 14.875 25.8851 14.8834 26.1758 14.8994Z" fill="#FFA849"/>
<path d="M12 33.5C12 34.1922 12.2053 34.8689 12.5899 35.4445C12.9744 36.0201 13.5211 36.4687 14.1606 36.7336C14.8001 36.9985 15.5039 37.0678 16.1828 36.9327C16.8617 36.7977 17.4854 36.4644 17.9749 35.9749C18.4644 35.4854 18.7977 34.8617 18.9327 34.1828C19.0678 33.5039 18.9985 32.8001 18.7336 32.1606C18.4687 31.5211 18.0201 30.9744 17.4445 30.5899C16.8689 30.2053 16.1922 30 15.5 30C14.5717 30 13.6815 30.3687 13.0251 31.0251C12.3687 31.6815 12 32.5717 12 33.5ZM17.25 33.5C17.25 33.8461 17.1474 34.1845 16.9551 34.4722C16.7628 34.76 16.4895 34.9843 16.1697 35.1168C15.8499 35.2492 15.4981 35.2839 15.1586 35.2164C14.8191 35.1488 14.5073 34.9822 14.2626 34.7374C14.0178 34.4927 13.8511 34.1809 13.7836 33.8414C13.7161 33.5019 13.7508 33.1501 13.8832 32.8303C14.0157 32.5105 14.24 32.2372 14.5278 32.0449C14.8155 31.8526 15.1539 31.75 15.5 31.75C15.9641 31.75 16.4092 31.9344 16.7374 32.2626C17.0656 32.5907 17.25 33.0359 17.25 33.5Z" fill="#FFA849"/>
<path d="M53.3524 6.17156C51.8924 4.77052 50.1632 3.67975 48.2694 2.96514C46.3756 2.25052 44.3565 1.9269 42.334 2.01383C40.3115 2.10075 38.3276 2.59642 36.5022 3.47088C34.6768 4.34534 33.0478 5.58044 31.7135 7.10158C30.3793 8.62271 29.3675 10.3983 28.7393 12.3211C28.1112 14.2438 27.8796 16.2739 28.0587 18.2886C28.2378 20.3033 28.8238 22.2608 29.7814 24.0428C30.7389 25.8249 32.048 27.3945 33.6297 28.6569C35.2097 29.9478 36.2118 31.813 36.4155 33.8421H34.5967V35.7127H36.4689V42.2597C36.4689 42.5078 36.5675 42.7457 36.7431 42.9211C36.9186 43.0965 37.1567 43.195 37.405 43.195H39.4101C39.6145 43.9971 40.0804 44.7083 40.7345 45.2163C41.3885 45.7242 42.1932 46 43.0216 46C43.85 46 44.6548 45.7242 45.3088 45.2163C45.9628 44.7083 46.4288 43.9971 46.6331 43.195H48.6382C48.8865 43.195 49.1246 43.0965 49.3002 42.9211C49.4757 42.7457 49.5743 42.5078 49.5743 42.2597V35.7127H51.4465V33.8421H49.6277C49.8392 31.8055 50.8489 29.9353 52.436 28.64C54.0933 27.3025 55.4458 25.627 56.4032 23.7255C57.3606 21.824 57.9007 19.7402 57.9876 17.6134C58.0744 15.4866 57.7059 13.3657 56.9068 11.3926C56.1076 9.41948 54.8962 7.63948 53.3534 6.17156H53.3524ZM43.0216 44.1303C42.6931 44.1301 42.3705 44.0436 42.0861 43.8794C41.8017 43.7153 41.5655 43.4792 41.4012 43.195H44.642C44.4778 43.4792 44.2416 43.7153 43.9572 43.8794C43.6727 44.0436 43.3501 44.1301 43.0216 44.1303ZM45.8299 41.3244H38.3411V39.4538H47.7021V41.3244H45.8299ZM47.7021 37.5833H38.3411V35.7127H47.7021V37.5833ZM51.2593 27.1847C50.2562 28.0019 49.428 29.0124 48.8241 30.1562C48.2202 31.3 47.8529 32.5535 47.7443 33.8421H38.299C38.194 32.5571 37.8302 31.3065 37.2296 30.1654C36.6289 29.0243 35.8038 28.0162 34.8036 27.2016C33.2072 25.9277 31.9337 24.296 31.0862 22.4387C30.2387 20.5814 29.8411 18.5507 29.9255 16.5112C30.0638 13.2444 31.4144 10.146 33.7144 7.81991C36.0143 5.49381 39.0986 4.10664 42.3663 3.92874C45.1289 3.78909 47.8648 4.52666 50.1821 6.03578C52.4993 7.5449 54.2791 9.74812 55.2663 12.3298C56.2535 14.9114 56.3975 17.7391 55.6777 20.4075C54.958 23.076 53.4113 25.4483 51.2593 27.1847Z" fill="#FFA849"/>
<path d="M49.073 17H37.9288C37.7607 17 37.5957 17.046 37.4515 17.1332C37.3072 17.2205 37.1892 17.3456 37.1098 17.4952C37.0305 17.6449 36.9929 17.8135 37.0011 17.983C37.0093 18.1525 37.0628 18.3166 37.1562 18.4578L40.7149 23.8437V32H42.5722V23.5625C42.572 23.3774 42.5177 23.1964 42.4162 23.0422L39.6636 18.875H47.3382L44.5856 23.0422C44.4842 23.1964 44.4299 23.3774 44.4296 23.5625V32H46.287V23.8437L49.8457 18.455C49.9383 18.3138 49.9912 18.15 49.999 17.9809C50.0068 17.8118 49.969 17.6438 49.8898 17.4946C49.8106 17.3454 49.6928 17.2206 49.549 17.1335C49.4052 17.0465 49.2407 17.0003 49.073 17Z" fill="#FFA849"/>
</svg>
