<svg width="60" height="60" viewBox="0 0 60 60" fill="none" xmlns="http://www.w3.org/2000/svg">
<path d="M23 31.446C21.6212 31.4455 20.2843 31.9129 19.2142 32.7696C18.1441 33.6263 17.4061 34.8199 17.1245 36.1497C16.8428 37.4796 17.0346 38.8644 17.6675 40.0712C18.3005 41.2781 19.3361 42.2333 20.6 42.7763L21.4 40.9713C20.5566 40.6098 19.8654 39.973 19.4428 39.1682C19.0202 38.3633 18.892 37.4395 19.0799 36.5524C19.2677 35.6654 19.7602 34.8692 20.4742 34.298C21.1882 33.7268 22.0802 33.4154 23 33.4165C23.5511 33.4163 24.0961 33.5297 24.6 33.7495C24.7521 33.8149 24.9184 33.842 25.0838 33.8283C25.2492 33.8145 25.4086 33.7605 25.5475 33.6709C25.6864 33.5814 25.8005 33.4592 25.8795 33.3153C25.9585 33.1715 25.9999 33.0105 26 32.847V25.6163H31.085C31.0281 25.9417 30.9996 26.2713 31 26.6015C31.0029 27.9635 31.4817 29.2829 32.3559 30.3379C33.23 31.393 34.4462 32.1193 35.8 32.3948L36.2 30.4647C35.2975 30.2807 34.4867 29.7963 33.904 29.0928C33.3212 28.3893 33.002 27.5096 33 26.6015C32.9999 26.0586 33.115 25.5216 33.338 25.0251C33.4044 24.8753 33.4319 24.7114 33.418 24.5485C33.404 24.3855 33.3492 24.2285 33.2583 24.0916C33.1674 23.9548 33.0434 23.8424 32.8974 23.7645C32.7514 23.6867 32.588 23.6459 32.422 23.6458H26V18.6359C26.3303 18.6919 26.6648 18.7199 27 18.7196C28.5913 18.7196 30.1174 18.0968 31.2426 16.9882C32.3679 15.8796 33 14.376 33 12.8081C33 11.2403 32.3679 9.73673 31.2426 8.62812C30.1174 7.51951 28.5913 6.89669 27 6.89669C26.6648 6.89635 26.3303 6.92436 26 6.98044V1.97048H43C44.3256 1.97205 45.5964 2.49156 46.5338 3.41507C47.4711 4.33857 47.9984 5.59066 48 6.89669V23.6458H41.578C41.412 23.6459 41.2486 23.6867 41.1026 23.7645C40.9566 23.8424 40.8326 23.9548 40.7417 24.0916C40.6508 24.2285 40.596 24.3855 40.582 24.5485C40.5681 24.7114 40.5956 24.8753 40.662 25.0251C40.885 25.5216 41.0001 26.0586 41 26.6015H43C43.0004 26.2713 42.9719 25.9417 42.915 25.6163H49C49.2652 25.6163 49.5196 25.5125 49.7071 25.3277C49.8946 25.143 50 24.8924 50 24.6311V6.89669C49.9976 5.0683 49.2594 3.31546 47.9471 2.02259C46.6349 0.729713 44.8558 0.00234627 43 0H7C5.14422 0.00234627 3.36512 0.729713 2.05288 2.02259C0.740644 3.31546 0.00238142 5.0683 0 6.89669V42.2836C0.00238142 44.112 0.740644 45.8649 2.05288 47.1577C3.36512 48.4506 5.14422 49.178 7 49.1803H18V47.2098H7C5.6744 47.2083 4.40356 46.6888 3.46622 45.7653C2.52888 44.8418 2.00159 43.5897 2 42.2836V25.6163H8.422C8.59177 25.6041 8.75618 25.5523 8.90171 25.4653C9.04724 25.3783 9.16974 25.2585 9.25915 25.1158C9.34856 24.9731 9.40233 24.8115 9.41604 24.6444C9.42975 24.4772 9.403 24.3092 9.338 24.1542C9.07045 23.5543 8.95891 22.8982 9.01349 22.2452C9.06807 21.5922 9.28704 20.9629 9.65059 20.4143C10.0141 19.8656 10.5108 19.415 11.0956 19.103C11.6804 18.7911 12.335 18.6277 13 18.6277C13.665 18.6277 14.3196 18.7911 14.9044 19.103C15.4892 19.415 15.9859 19.8656 16.3494 20.4143C16.713 20.9629 16.9319 21.5922 16.9865 22.2452C17.0411 22.8982 16.9296 23.5543 16.662 24.1542C16.5872 24.3085 16.5528 24.4788 16.5621 24.6495C16.5714 24.8202 16.624 24.9859 16.7152 25.1314C16.8063 25.2769 16.9331 25.3975 17.0838 25.4823C17.2346 25.567 17.4045 25.6131 17.578 25.6163H24V31.5277C23.6697 31.4723 23.3351 31.445 23 31.446ZM7 1.97048H24V8.29771C24.0001 8.46126 24.0415 8.62222 24.1205 8.76606C24.1995 8.9099 24.3136 9.03211 24.4525 9.12165C24.5914 9.2112 24.7508 9.26526 24.9162 9.27898C25.0816 9.29269 25.2479 9.26561 25.4 9.20019C25.9039 8.98047 26.4489 8.86703 27 8.86718C28.0609 8.86718 29.0783 9.28239 29.8284 10.0215C30.5786 10.7605 31 11.7629 31 12.8081C31 13.8534 30.5786 14.8558 29.8284 15.5948C29.0783 16.3339 28.0609 16.7491 27 16.7491C26.4489 16.7493 25.9039 16.6358 25.4 16.4161C25.2479 16.3507 25.0816 16.3236 24.9162 16.3373C24.7508 16.351 24.5914 16.4051 24.4525 16.4946C24.3136 16.5842 24.1995 16.7064 24.1205 16.8502C24.0415 16.9941 24.0001 17.155 24 17.3186V23.564H18.922C18.9721 23.2654 18.9982 22.9633 19 22.6606C19 22.6428 19 22.6271 19 22.6093C19 22.5916 19 22.5886 19 22.5788C19 21.011 18.3679 19.5074 17.2426 18.3988C16.1174 17.2902 14.5913 16.6673 13 16.6673C11.4087 16.6673 9.88258 17.2902 8.75736 18.3988C7.63214 19.5074 7 21.011 7 22.5788C7 22.5886 7 22.5995 7 22.6093C7 22.6192 7 22.6428 7 22.6606C7.00184 22.9633 7.02792 23.2654 7.078 23.564H2V6.89669C2.00159 5.59066 2.52888 4.33857 3.46622 3.41507C4.40356 2.49156 5.6744 1.97205 7 1.97048V1.97048Z" fill="#FFA849"/>
<path d="M57.8351 42.3615L49.3265 36.6673L46.0585 28.1815C46.0103 28.0559 45.9363 27.9411 45.8409 27.8442C45.7454 27.7474 45.6306 27.6706 45.5035 27.6184C45.3764 27.5663 45.2397 27.54 45.1017 27.541C44.9638 27.5421 44.8275 27.5706 44.7013 27.6248L38.1227 30.4527C37.8853 30.5546 37.6972 30.7413 37.5973 30.9742C37.4975 31.207 37.4936 31.4683 37.5863 31.7039C37.6956 31.9793 37.7978 32.1878 37.9061 32.4042C38.0144 32.6206 38.1146 32.8232 38.2371 33.1429C38.6145 34.1229 38.5773 35.2083 38.1337 36.1618C37.6901 37.1153 36.8762 37.8593 35.8698 38.2312C35.2394 38.4604 34.5601 38.5332 33.8934 38.443C33.2268 38.3528 32.5938 38.1025 32.0517 37.7147C31.5097 37.327 31.0756 36.814 30.7889 36.2221C30.5022 35.6303 30.3718 34.9784 30.4096 34.3252C30.4184 34.162 30.3852 33.9991 30.313 33.8514C30.2408 33.7037 30.1319 33.5759 29.996 33.4794C29.8602 33.3829 29.7017 33.3209 29.535 33.2989C29.3683 33.2769 29.1986 33.2956 29.0412 33.3534L22.0092 35.9276C21.7585 36.0194 21.5554 36.2042 21.4446 36.4413C21.3338 36.6784 21.3243 36.9486 21.4182 37.1925L23.9423 43.7464C23.6076 43.8056 23.2791 43.8939 22.9606 44.01C22.1708 44.2961 21.4507 44.7384 20.8461 45.3091C20.2414 45.8798 19.7653 46.5663 19.4479 47.3252C19.1305 48.084 18.9788 48.8987 19.0024 49.7175C19.0259 50.5364 19.2242 51.3415 19.5847 52.082C19.9452 52.8224 20.4601 53.482 21.0966 54.0189C21.7331 54.5559 22.4775 54.9585 23.2825 55.2012C24.0875 55.4439 24.9356 55.5214 25.7731 55.4289C26.6106 55.3364 27.4191 55.0758 28.1475 54.6637L29.9572 59.3615C30.0038 59.4826 30.0746 59.5935 30.1655 59.688C30.2564 59.7825 30.3655 59.8587 30.4867 59.9121C30.6078 59.9655 30.7387 59.9952 30.8717 59.9995C31.0047 60.0037 31.1372 59.9825 31.2617 59.9369L41.2895 56.265C41.6012 56.9161 42.0462 57.4985 42.5973 57.9768C43.1484 58.4551 43.794 58.8191 44.4948 59.0467L45.1344 57.1778C44.3003 56.9046 43.607 56.3288 43.1993 55.5706L46.2508 54.4541C46.7399 55.7912 47.6434 56.9481 48.8369 57.7656C50.0304 58.5831 51.4553 59.021 52.9154 59.0192V57.0519C51.5758 57.0439 50.2934 56.5232 49.3462 55.6026C48.399 54.682 47.8632 53.4357 47.8549 52.1338C47.8549 51.8729 47.7482 51.6228 47.5584 51.4384L44.0343 48.0134C43.7815 47.7655 43.6284 47.4378 43.603 47.0896C43.5775 46.7415 43.6814 46.396 43.8956 46.116C44.0231 45.9489 44.1864 45.8107 44.3743 45.7112C44.5622 45.6117 44.7701 45.5531 44.9836 45.5396C45.1974 45.5221 45.4124 45.5509 45.6133 45.6238C45.8142 45.6968 45.996 45.8121 46.1455 45.9615L53.2119 52.8292L54.643 51.4384L52.552 49.4062C53.0672 47.9089 53.0354 46.2848 52.462 44.8077L50.5653 39.8847L56.6814 43.9776C57.0809 44.2501 57.407 44.612 57.6323 45.0328C57.8576 45.4536 57.9754 45.9209 57.9758 46.3953V59.1008H60V46.3953C59.9993 45.6033 59.8022 44.8232 59.4253 44.121C59.0485 43.4188 58.503 42.8152 57.8351 42.3615V42.3615ZM50.8619 47.7625L47.5766 44.5707C47.2516 44.2467 46.8636 43.9887 46.4351 43.8115C46.0067 43.6344 45.5463 43.5417 45.0807 43.5389C44.6151 43.536 44.1536 43.623 43.7229 43.7949C43.2921 43.9667 42.9008 44.22 42.5716 44.54C42.2424 44.8599 41.9818 45.2402 41.805 45.6588C41.6281 46.0775 41.5386 46.526 41.5416 46.9785C41.5445 47.431 41.6399 47.8784 41.8221 48.2948C42.0043 48.7112 42.2698 49.0883 42.6032 49.4042L45.8044 52.5154L31.5016 57.7513L29.5726 52.7417C29.5135 52.5884 29.416 52.452 29.2889 52.3446C29.1618 52.2373 29.0092 52.1625 28.8449 52.1269C28.7728 52.1113 28.6991 52.1034 28.6253 52.1033C28.3605 52.1031 28.1061 52.2037 27.9168 52.3836C27.4822 52.7827 26.962 53.0832 26.3937 53.2636C25.8254 53.4441 25.223 53.4999 24.6298 53.4272C24.0366 53.3545 23.4674 53.1549 22.963 52.843C22.4586 52.531 22.0316 52.1143 21.7126 51.6228C21.3936 51.1314 21.1906 50.5774 21.1181 50.0006C21.0456 49.4238 21.1055 48.8386 21.2934 48.2869C21.4813 47.7353 21.7927 47.231 22.205 46.8102C22.6173 46.3895 23.1204 46.0627 23.6782 45.8533C24.0003 45.7373 24.3369 45.6632 24.6791 45.633C24.8896 45.608 25.102 45.601 25.3137 45.6123C25.4814 45.6209 25.6487 45.5887 25.8004 45.5188C25.9522 45.4488 26.0836 45.3433 26.183 45.2116C26.2823 45.08 26.3463 44.9264 26.3693 44.7647C26.3923 44.603 26.3735 44.4383 26.3147 44.2854L23.6711 37.4256L28.4906 35.662C28.6574 36.5057 29.0116 37.3039 29.5287 38.0007C30.0457 38.6976 30.7131 39.2764 31.4841 39.6966C32.2552 40.1168 33.1113 40.3683 33.9928 40.4336C34.8742 40.4989 35.7597 40.3763 36.5874 40.0745C38.0948 39.5187 39.3145 38.4053 39.9796 36.9779C40.6448 35.5505 40.7013 33.9251 40.1367 32.4573C40.0436 32.2154 39.9596 32.0236 39.8787 31.8524L44.5343 29.8488L50.5663 45.4973C50.8459 46.2195 50.9471 46.9954 50.8619 47.7625V47.7625Z" fill="#FFA849"/>
</svg>
