<svg width="70" height="70" viewBox="0 0 70 70" fill="none" xmlns="http://www.w3.org/2000/svg">
<path d="M66.9089 11H62.5618V13.2H65.8221V45.1H59.3015C59.0133 45.1 58.7369 45.2159 58.5331 45.4222C58.3292 45.6285 58.2147 45.9083 58.2147 46.2V52.8H43V55H59.3015C59.5896 54.9993 59.8658 54.8835 60.0699 54.6777L67.6772 46.9777C67.7681 46.8842 67.8417 46.7751 67.8946 46.6554C67.9098 46.6213 67.9185 46.5883 67.9304 46.5531C67.9617 46.4607 67.9807 46.3646 67.987 46.2671C67.987 46.244 68 46.2231 68 46.2V12.1C68 11.9552 67.9717 11.8118 67.9169 11.678C67.862 11.5443 67.7815 11.4228 67.6802 11.3206C67.5788 11.2184 67.4585 11.1375 67.3261 11.0825C67.1938 11.0275 67.052 10.9994 66.9089 11ZM60.3883 51.2446V47.3H64.2854L60.3883 51.2446Z" fill="#FFA849"/>
<path d="M6.38095 54H12.9524V51.8261H6.38095C5.8 51.8261 5.24285 51.597 4.83205 51.1894C4.42126 50.7817 4.19048 50.2287 4.19048 49.6522C4.19048 49.0756 4.42126 48.5227 4.83205 48.115C5.24285 47.7073 5.8 47.4783 6.38095 47.4783H9.66667C9.95714 47.4783 10.2357 47.3637 10.4411 47.1599C10.6465 46.9561 10.7619 46.6796 10.7619 46.3913V12.6957H48V10.5217H10.7619V5.08696C10.7619 4.79868 10.6465 4.52221 10.4411 4.31836C10.2357 4.11452 9.95714 4 9.66667 4H6.38095C5.21905 4 4.10474 4.45807 3.28315 5.27345C2.46156 6.08882 2 7.19471 2 8.34783V49.6522C2 50.8053 2.46156 51.9112 3.28315 52.7266C4.10474 53.5419 5.21905 54 6.38095 54ZM4.19048 8.34783C4.19048 7.77127 4.42126 7.21833 4.83205 6.81064C5.24285 6.40295 5.8 6.17391 6.38095 6.17391H8.57143V45.3043H6.38095C5.61162 45.3032 4.85575 45.5046 4.19048 45.888V8.34783Z" fill="#FFA849"/>
<path d="M50 5.08824V39.9118C50 40.2004 50.1171 40.4772 50.3254 40.6813C50.5338 40.8853 50.8164 41 51.1111 41H58.8889C59.1836 41 59.4662 40.8853 59.6746 40.6813C59.8829 40.4772 60 40.2004 60 39.9118V5.08824C60 4.79962 59.8829 4.52282 59.6746 4.31874C59.4662 4.11465 59.1836 4 58.8889 4H51.1111C50.8164 4 50.5338 4.11465 50.3254 4.31874C50.1171 4.52282 50 4.79962 50 5.08824ZM57.7778 6.17647V38.8235H52.2222V36.6471H54.4444V34.4706H52.2222V32.2941H54.4444V30.1176H52.2222V27.9412H54.4444V25.7647H52.2222V23.5882H54.4444V21.4118H52.2222V19.2353H54.4444V17.0588H52.2222V14.8824H54.4444V12.7059H52.2222V10.5294H54.4444V8.35294H52.2222V6.17647H57.7778Z" fill="#FFA849"/>
<path d="M15.6767 31.0835C15.4763 31.1666 15.3051 31.3072 15.1847 31.4876C15.0642 31.6679 14.9999 31.88 15 32.0969V63.9032C15 64.1941 15.1156 64.4731 15.3212 64.6788C15.5269 64.8844 15.8059 65 16.0968 65H47.9035C48.1203 65 48.3323 64.9356 48.5127 64.8151C48.693 64.6946 48.8335 64.5233 48.9165 64.3229C48.9995 64.1225 49.0212 63.902 48.9789 63.6893C48.9366 63.4766 48.8322 63.2812 48.6789 63.1278L16.8722 31.3215C16.7188 31.168 16.5234 31.0635 16.3106 31.0211C16.0978 30.9787 15.8772 31.0005 15.6767 31.0835ZM17.1936 34.7445L45.2558 62.8065H17.1936V34.7445Z" fill="#FFA849"/>
<path d="M35.6863 57.171L22.829 44.3137C22.6791 44.1639 22.4882 44.0619 22.2804 44.0206C22.0726 43.9793 21.8572 44.0005 21.6615 44.0815C21.4657 44.1626 21.2984 44.2999 21.1806 44.4761C21.0629 44.6522 21 44.8593 21 45.0712V57.9286C21 58.2127 21.1129 58.4852 21.3138 58.6862C21.5148 58.8871 21.7873 59 22.0714 59H34.9288C35.1407 59 35.3478 58.9371 35.5239 58.8194C35.7001 58.7016 35.8374 58.5343 35.9185 58.3386C35.9995 58.1428 36.0207 57.9274 35.9794 57.7196C35.9381 57.5118 35.8361 57.3209 35.6863 57.171ZM23.1429 56.8571V47.6577L32.3423 56.8571H23.1429Z" fill="#FFA849"/>
<path d="M43.3248 47.6863L45.6582 45.5434C45.877 45.3425 45.9999 45.0701 46 44.7859V21.2143C46 20.3618 45.6312 19.5442 44.9749 18.9414C44.3185 18.3386 43.4283 18 42.5 18C41.5717 18 40.6815 18.3386 40.0251 18.9414C39.3688 19.5442 39 20.3618 39 21.2143V44.7859C39.0001 45.0701 39.123 45.3425 39.3418 45.5434L41.6752 47.6863C41.8939 47.8872 42.1906 48 42.5 48C42.8094 48 43.1061 47.8872 43.3248 47.6863ZM42.5 20.1429C42.8094 20.1429 43.1062 20.2558 43.325 20.4567C43.5438 20.6576 43.6667 20.9301 43.6667 21.2143V22.2857H41.3333V21.2143C41.3333 20.9301 41.4562 20.6576 41.675 20.4567C41.8938 20.2558 42.1906 20.1429 42.5 20.1429ZM41.3333 44.3423V24.4286H43.6667V44.3423L42.5 45.4138L41.3333 44.3423Z" fill="#FFA849"/>
<path d="M27.4167 27H33.9167C34.204 27 34.4795 26.8815 34.6827 26.6705C34.8859 26.4595 35 26.1734 35 25.875V19.125C35 18.8266 34.8859 18.5405 34.6827 18.3295C34.4795 18.1185 34.204 18 33.9167 18H26.3333C25.1841 18 24.0819 18.4741 23.2692 19.318C22.4565 20.1619 22 21.3065 22 22.5C22 23.6935 22.4565 24.8381 23.2692 25.682C24.0819 26.5259 25.1841 27 26.3333 27H27.4167ZM32.8333 20.25V24.75H28.5V20.25H32.8333ZM24.1667 22.5C24.1667 21.9033 24.3949 21.331 24.8013 20.909C25.2076 20.4871 25.7587 20.25 26.3333 20.25V24.75C25.7587 24.75 25.2076 24.5129 24.8013 24.091C24.3949 23.669 24.1667 23.0967 24.1667 22.5Z" fill="#FFA849"/>
</svg>
