<svg width="60" height="60" viewBox="0 0 60 60" fill="none" xmlns="http://www.w3.org/2000/svg">
<path d="M1 38H10V36H2V2H24V4H26V1C26 0.734784 25.8946 0.48043 25.7071 0.292893C25.5196 0.105357 25.2652 0 25 0H1C0.734784 0 0.48043 0.105357 0.292893 0.292893C0.105357 0.48043 0 0.734784 0 1V37C0 37.2652 0.105357 37.5196 0.292893 37.7071C0.48043 37.8946 0.734784 38 1 38Z" fill="#FFA849"/>
<path d="M9.447 5.10547L7.447 4.10547C7.3082 4.03611 7.15516 4 7 4C6.84484 4 6.6918 4.03611 6.553 4.10547L4.553 5.10547C4.38677 5.18853 4.24697 5.31628 4.14929 5.47437C4.05161 5.63245 3.99991 5.81463 4 6.00047V8.00047C3.99991 8.1863 4.05161 8.36848 4.14929 8.52657C4.24697 8.68466 4.38677 8.8124 4.553 8.89547L6.553 9.89547C6.6918 9.96482 6.84484 10.0009 7 10.0009C7.15516 10.0009 7.3082 9.96482 7.447 9.89547L9.447 8.89547C9.61323 8.8124 9.75303 8.68466 9.85071 8.52657C9.94839 8.36848 10.0001 8.1863 10 8.00047V6.00047C10.0001 5.81463 9.94839 5.63245 9.85071 5.47437C9.75303 5.31628 9.61323 5.18853 9.447 5.10547ZM8 7.38247L7 7.88247L6 7.38247V6.61847L7 6.11847L8 6.61847V7.38247Z" fill="#FFA849"/>
<path d="M12 7V43C12 43.2652 12.1054 43.5196 12.2929 43.7071C12.4804 43.8946 12.7348 44 13 44H39C39.2652 44 39.5196 43.8946 39.7071 43.7071C39.8946 43.5196 40 43.2652 40 43V7C40 6.73478 39.8946 6.48043 39.7071 6.29289C39.5196 6.10536 39.2652 6 39 6H13C12.7348 6 12.4804 6.10536 12.2929 6.29289C12.1054 6.48043 12 6.73478 12 7ZM14 8H38V42H14V8Z" fill="#FFA849"/>
<path d="M31.928 19.6475C31.9065 19.5887 31.8794 19.5321 31.847 19.4785C31.83 19.4515 31.812 19.4255 31.792 19.3995C31.7557 19.3525 31.7156 19.3087 31.672 19.2685C31.647 19.2465 31.624 19.2235 31.598 19.2035C31.572 19.1835 31.574 19.1805 31.561 19.1715C31.517 19.145 31.4712 19.1216 31.424 19.1015C31.405 19.0925 31.391 19.0785 31.372 19.0705L26.372 17.0705C26.1329 16.9765 25.8671 16.9765 25.628 17.0705L20.628 19.0705C20.608 19.0785 20.593 19.0935 20.574 19.1025C20.5274 19.1223 20.4823 19.1453 20.439 19.1715C20.426 19.1805 20.416 19.1935 20.402 19.2035C20.388 19.2135 20.353 19.2465 20.328 19.2685C20.2844 19.3087 20.2443 19.3525 20.208 19.3995C20.188 19.4255 20.17 19.4515 20.153 19.4785C20.1206 19.5321 20.0935 19.5887 20.072 19.6475C20.062 19.6735 20.049 19.6995 20.041 19.7265C20.0148 19.8151 20.001 19.907 20 19.9995V24.9995C19.9998 25.1994 20.0596 25.3947 20.1715 25.5603C20.2835 25.7259 20.4425 25.8541 20.628 25.9285L25.628 27.9285C25.64 27.9285 25.653 27.9285 25.665 27.9355C25.8802 28.0208 26.1198 28.0208 26.335 27.9355C26.347 27.9355 26.36 27.9355 26.372 27.9285L31.372 25.9285C31.5575 25.8541 31.7165 25.7259 31.8285 25.5603C31.9404 25.3947 32.0002 25.1994 32 24.9995V19.9995C31.999 19.907 31.9852 19.8151 31.959 19.7265C31.951 19.6995 31.938 19.6735 31.928 19.6475ZM26 19.0765L28.307 19.9995L26 20.9225L23.693 19.9995L26 19.0765ZM22 21.4765L25 22.6765V25.5225L22 24.3225V21.4765ZM27 25.5225V22.6765L30 21.4765V24.3225L27 25.5225Z" fill="#FFA849"/>
<path d="M59 6H43C42.7348 6 42.4804 6.10536 42.2929 6.29289C42.1054 6.48043 42 6.73478 42 7V17C42 17.2652 42.1054 17.5196 42.2929 17.7071C42.4804 17.8946 42.7348 18 43 18H59C59.2652 18 59.5196 17.8946 59.7071 17.7071C59.8946 17.5196 60 17.2652 60 17V7C60 6.73478 59.8946 6.48043 59.7071 6.29289C59.5196 6.10536 59.2652 6 59 6ZM58 16H44V8H58V16Z" fill="#FFA849"/>
<path d="M48 10H46V12H48V10Z" fill="#FFA849"/>
<path d="M60 21C60 20.7348 59.8946 20.4804 59.7071 20.2929C59.5196 20.1054 59.2652 20 59 20H43C42.7348 20 42.4804 20.1054 42.2929 20.2929C42.1054 20.4804 42 20.7348 42 21V31C42 31.2652 42.1054 31.5196 42.2929 31.7071C42.4804 31.8946 42.7348 32 43 32H59C59.2652 32 59.5196 31.8946 59.7071 31.7071C59.8946 31.5196 60 31.2652 60 31V21ZM58 30H44V22H58V30Z" fill="#FFA849"/>
<path d="M48 25H46V27H48V25Z" fill="#FFA849"/>
<path d="M56 25H50V27H56V25Z" fill="#FFA849"/>
<path d="M10 59C10 59.2652 10.1054 59.5196 10.2929 59.7071C10.4804 59.8946 10.7348 60 11 60H33C33.2652 60 33.5196 59.8946 33.7071 59.7071C33.8946 59.5196 34 59.2652 34 59V47C34 46.7348 33.8946 46.4804 33.7071 46.2929C33.5196 46.1054 33.2652 46 33 46H11C10.7348 46 10.4804 46.1054 10.2929 46.2929C10.1054 46.4804 10 46.7348 10 47V59ZM12 48H32V58H12V48Z" fill="#FFA849"/>
<path d="M59 46H37C36.7348 46 36.4804 46.1054 36.2929 46.2929C36.1054 46.4804 36 46.7348 36 47V59C36 59.2652 36.1054 59.5196 36.2929 59.7071C36.4804 59.8946 36.7348 60 37 60H59C59.2652 60 59.5196 59.8946 59.7071 59.7071C59.8946 59.5196 60 59.2652 60 59V47C60 46.7348 59.8946 46.4804 59.7071 46.2929C59.5196 46.1054 59.2652 46 59 46ZM38 48H58V49C58 49.2652 57.8946 49.5196 57.7071 49.7071C57.5196 49.8946 57.2652 50 57 50H39C38.7348 50 38.4804 49.8946 38.2929 49.7071C38.1054 49.5196 38 49.2652 38 49V48ZM38 58V51.816C38.3203 51.9344 38.6586 51.9967 39 52H57C57.3414 51.9967 57.6797 51.9344 58 51.816V58H38Z" fill="#FFA849"/>
<path d="M19.447 51.1044L17.447 50.1054C17.3082 50.0361 17.1552 50 17 50C16.8448 50 16.6918 50.0361 16.553 50.1054L14.553 51.1044C14.3868 51.1874 14.247 51.315 14.1493 51.4729C14.0516 51.6308 13.9999 51.8128 14 51.9985V53.9965C13.999 54.183 14.0503 54.3661 14.148 54.525C14.2457 54.6839 14.386 54.8123 14.553 54.8956L16.553 55.8946C16.6918 55.9639 16.8448 56 17 56C17.1552 56 17.3082 55.9639 17.447 55.8946L19.447 54.8956C19.614 54.8123 19.7543 54.6839 19.852 54.525C19.9497 54.3661 20.001 54.183 20 53.9965V51.9985C20.0001 51.8128 19.9484 51.6308 19.8507 51.4729C19.753 51.315 19.6132 51.1874 19.447 51.1044ZM18 53.3791L17 53.8786L16 53.3791V52.6159L17 52.1164L18 52.6159V53.3791Z" fill="#FFA849"/>
<path d="M42 54H40V56H42V54Z" fill="#FFA849"/>
<path d="M50 54H44V56H50V54Z" fill="#FFA849"/>
</svg>
