<svg width="80" height="80" viewBox="0 0 80 80" fill="none" xmlns="http://www.w3.org/2000/svg">
<path d="M6.08637 74.872H45.1957C45.945 74.872 46.6796 74.6624 47.3171 74.2668C47.9545 73.8712 48.4696 73.3052 48.8048 72.6322C49.1399 71.9592 49.2818 71.2057 49.2145 70.4563C49.1472 69.7069 48.8734 68.9911 48.4238 68.3891L45.5061 64.4832V44.9512C45.4988 40.6024 44.0778 36.375 41.459 32.9114C38.8402 29.4478 35.1668 26.9375 30.9971 25.762L35.4494 16.8343C35.5846 16.5626 35.6163 16.2505 35.5386 15.9569C35.4609 15.6633 35.279 15.4083 35.0273 15.2398L33.7857 14.407C32.8487 13.7819 31.7641 13.4159 30.6414 13.3459C29.5186 13.2758 28.3972 13.5042 27.3904 14.0081C26.8491 14.279 26.2526 14.42 25.6479 14.42C25.0431 14.42 24.4466 14.279 23.9053 14.0081C22.8986 13.5045 21.7775 13.2762 20.655 13.3462C19.5325 13.4163 18.4481 13.7821 17.5113 14.407L16.2697 15.2398C16.0179 15.4083 15.8361 15.6633 15.7584 15.9569C15.6806 16.2505 15.7124 16.5626 15.8476 16.8343L20.2936 25.762C16.1224 26.9359 12.4471 29.4455 9.82656 32.9092C7.20606 36.373 5.78377 40.6013 5.77598 44.9512V64.4832L2.8583 68.3891C2.40869 68.9911 2.13489 69.7069 2.06759 70.4563C2.00029 71.2057 2.14216 71.9592 2.47728 72.6322C2.81241 73.3052 3.32756 73.8712 3.965 74.2668C4.60245 74.6624 5.33701 74.872 6.08637 74.872V74.872ZM18.5505 16.7034L18.8819 16.4828C19.4537 16.1006 20.1156 15.8763 20.801 15.8325C21.4865 15.7888 22.1713 15.927 22.7867 16.2334C23.6738 16.6768 24.6513 16.9075 25.6423 16.9075C26.6332 16.9075 27.6107 16.6768 28.4979 16.2334C29.1131 15.9258 29.7983 15.7869 30.4842 15.8306C31.1702 15.8744 31.8324 16.0994 32.4038 16.4828L32.7353 16.7034L28.4842 25.2321C27.5432 25.0878 26.593 25.0115 25.641 25.004C24.6891 25.0115 23.7389 25.0878 22.7978 25.2321L18.5505 16.7034ZM4.84481 69.8852L8.0108 65.6464C8.17198 65.4306 8.25911 65.1681 8.25911 64.8984V44.9512C8.25911 40.3221 10.0904 35.8827 13.3502 32.6095C16.6099 29.3362 21.0311 27.4974 25.641 27.4974C30.251 27.4974 34.6722 29.3362 37.9319 32.6095C41.1916 35.8827 43.0229 40.3221 43.0229 44.9512V64.8984C43.0229 65.1681 43.1101 65.4306 43.2713 65.6464L46.4373 69.8852C46.6102 70.1167 46.7155 70.392 46.7414 70.6802C46.7673 70.9685 46.7127 71.2583 46.5838 71.5171C46.4549 71.776 46.2568 71.9937 46.0116 72.1458C45.7664 72.298 45.4839 72.3786 45.1957 72.3786H6.08637C5.79816 72.3786 5.51563 72.298 5.27046 72.1458C5.02529 71.9937 4.82716 71.776 4.69826 71.5171C4.56937 71.2583 4.5148 70.9685 4.54069 70.6802C4.56657 70.392 4.67188 70.1167 4.84481 69.8852V69.8852Z" fill="#FFA849"/>
<path d="M75.6643 42.6567H71.8881V36.4614C71.8881 36.1328 71.7555 35.8177 71.5194 35.5853C71.2834 35.3529 70.9632 35.2224 70.6294 35.2224H67.6638C69.49 33.7751 70.815 31.8058 71.4562 29.586C72.0974 27.3662 72.0231 25.0052 71.2437 22.8287C70.4642 20.6522 69.0179 18.7673 67.1043 17.434C65.1907 16.1008 62.9039 15.3848 60.5594 15.3848C58.215 15.3848 55.9282 16.1008 54.0146 17.434C52.101 18.7673 50.6547 20.6522 49.8752 22.8287C49.0957 25.0052 49.0215 27.3662 49.6627 29.586C50.3039 31.8058 51.6289 33.7751 53.4551 35.2224H50.4895C50.1557 35.2224 49.8355 35.3529 49.5995 35.5853C49.3634 35.8177 49.2308 36.1328 49.2308 36.4614V43.8957C49.2308 44.2243 49.3634 44.5395 49.5995 44.7719C49.8355 45.0042 50.1557 45.1348 50.4895 45.1348H54.2657V50.091H50.4895C50.1557 50.091 49.8355 50.2215 49.5995 50.4539C49.3634 50.6863 49.2308 51.0014 49.2308 51.33V58.7643C49.2308 59.0929 49.3634 59.4081 49.5995 59.6405C49.8355 59.8728 50.1557 60.0034 50.4895 60.0034H54.2657V73.6329C54.2657 73.9615 54.3984 74.2767 54.6344 74.509C54.8705 74.7414 55.1906 74.872 55.5245 74.872H75.6643C75.9982 74.872 76.3183 74.7414 76.5544 74.509C76.7905 74.2767 76.9231 73.9615 76.9231 73.6329V58.7643C76.9231 58.4357 76.7905 58.1205 76.5544 57.8882C76.3183 57.6558 75.9982 57.5253 75.6643 57.5253H71.8881V52.5691H75.6643C75.9982 52.5691 76.3183 52.4385 76.5544 52.2062C76.7905 51.9738 76.9231 51.6586 76.9231 51.33V43.8957C76.9231 43.5671 76.7905 43.252 76.5544 43.0196C76.3183 42.7872 75.9982 42.6567 75.6643 42.6567ZM51.7483 26.5491C51.7483 24.8336 52.265 23.1567 53.2332 21.7304C54.2014 20.3041 55.5775 19.1924 57.1876 18.5359C58.7976 17.8795 60.5692 17.7077 62.2784 18.0424C63.9876 18.377 65.5576 19.2031 66.7899 20.4161C68.0222 21.6291 68.8613 23.1745 69.2013 24.857C69.5413 26.5394 69.3668 28.2833 68.6999 29.8682C68.033 31.453 66.9037 32.8076 65.4547 33.7607C64.0057 34.7137 62.3021 35.2224 60.5594 35.2224C58.2234 35.2198 55.9838 34.3051 54.3319 32.6791C52.6801 31.0531 51.7509 28.8486 51.7483 26.5491ZM51.7483 37.7005H69.3706V42.6567H66.8532V40.1786H64.3357V42.6567H61.8182V40.1786H59.3007V42.6567H56.7832V40.1786H54.2657V42.6567H51.7483V37.7005ZM74.4056 72.3939H71.8881V69.9158H69.3706V72.3939H66.8532V69.9158H64.3357V72.3939H61.8182V69.9158H59.3007V72.3939H56.7832V67.4377H74.4056V72.3939ZM74.4056 64.9596H71.8881V62.4815H69.3706V64.9596H66.8532V62.4815H64.3357V64.9596H61.8182V62.4815H59.3007V64.9596H56.7832V60.0034H74.4056V64.9596ZM69.3706 57.5253H66.8532V55.0472H64.3357V57.5253H61.8182V55.0472H59.3007V57.5253H56.7832V55.0472H54.2657V57.5253H51.7483V52.5691H69.3706V57.5253ZM74.4056 50.091H71.8881V47.6129H69.3706V50.091H66.8532V47.6129H64.3357V50.091H61.8182V47.6129H59.3007V50.091H56.7832V45.1348H74.4056V50.091Z" fill="#FFA849"/>
<path d="M60.5128 20.5132C58.8813 20.5151 57.3172 21.1641 56.1636 22.3178C55.0099 23.4714 54.3609 25.0355 54.359 26.667H56.8205C56.8205 25.6878 57.2095 24.7486 57.902 24.0562C58.5944 23.3637 59.5336 22.9747 60.5128 22.9747V20.5132Z" fill="#FFA849"/>
<path d="M64.2051 26.667C64.2051 27.6463 63.8161 28.5854 63.1237 29.2778C62.4312 29.9703 61.4921 30.3593 60.5128 30.3593V32.8208C62.1443 32.8189 63.7084 32.1699 64.8621 31.0163C66.0157 29.8626 66.6647 28.2985 66.6667 26.667H64.2051Z" fill="#FFA849"/>
<path d="M24.174 59.0316H24.4103V61.5387H26.8718V59.0316H27.1081C28.25 59.0289 29.3517 58.6017 30.2062 57.8303C31.0608 57.0588 31.6094 55.9961 31.749 54.8417C31.8886 53.6874 31.6097 52.5208 30.9645 51.5612C30.3194 50.6015 29.3525 49.9148 28.2453 49.6299L23.6349 48.4565C23.1058 48.3245 22.6426 47.9993 22.3332 47.5426C22.0238 47.0859 21.8896 46.5295 21.956 45.9788C22.0225 45.4281 22.285 44.9214 22.6937 44.5546C23.1025 44.1878 23.6292 43.9865 24.174 43.9889H27.1081C27.6981 43.9895 28.2637 44.2285 28.6809 44.6534C29.098 45.0783 29.3327 45.6544 29.3333 46.2553V46.496H31.7949V46.2553C31.7936 44.9897 31.2994 43.7763 30.4207 42.8813C29.5421 41.9864 28.3507 41.4831 27.1081 41.4817H26.8718V38.9746H24.4103V41.4817H24.174C23.032 41.4844 21.9304 41.9116 21.0758 42.6831C20.2213 43.4545 19.6727 44.5173 19.5331 45.6716C19.3934 46.8259 19.6724 47.9925 20.3175 48.9521C20.9626 49.9118 21.9296 50.5986 23.0367 50.8834L27.6472 52.0568C28.1763 52.1889 28.6394 52.5141 28.9489 52.9707C29.2583 53.4274 29.3925 53.9838 29.326 54.5345C29.2596 55.0852 28.9971 55.592 28.5883 55.9587C28.1795 56.3255 27.6529 56.5268 27.1081 56.5245H24.174C23.584 56.5238 23.0184 56.2848 22.6012 55.8599C22.184 55.435 21.9494 54.8589 21.9487 54.258V54.0173H19.4872V54.258C19.4885 55.5236 19.9827 56.737 20.8613 57.632C21.74 58.5269 22.9313 59.0303 24.174 59.0316V59.0316Z" fill="#FFA849"/>
<path d="M44.2909 6.15432C44.2424 5.86745 44.0938 5.60703 43.8716 5.41924C43.6494 5.23145 43.3679 5.12842 43.0769 5.12842C42.786 5.12842 42.5044 5.23145 42.2822 5.41924C42.06 5.60703 41.9115 5.86745 41.863 6.15432C41.6997 7.13319 41.2347 8.03661 40.533 8.73834C39.8313 9.44007 38.9279 9.90505 37.949 10.0683C37.6621 10.1168 37.4017 10.2653 37.2139 10.4876C37.0261 10.7098 36.9231 10.9913 36.9231 11.2823C36.9231 11.5732 37.0261 11.8547 37.2139 12.077C37.4017 12.2992 37.6621 12.4477 37.949 12.4962C38.9279 12.6595 39.8313 13.1245 40.533 13.8262C41.2347 14.5279 41.6997 15.4313 41.863 16.4102C41.9115 16.6971 42.06 16.9575 42.2822 17.1453C42.5044 17.3331 42.786 17.4361 43.0769 17.4361C43.3679 17.4361 43.6494 17.3331 43.8716 17.1453C44.0938 16.9575 44.2424 16.6971 44.2909 16.4102C44.4541 15.4313 44.9191 14.5279 45.6209 13.8262C46.3226 13.1245 47.226 12.6595 48.2049 12.4962C48.4917 12.4477 48.7522 12.2992 48.94 12.077C49.1277 11.8547 49.2308 11.5732 49.2308 11.2823C49.2308 10.9913 49.1277 10.7098 48.94 10.4876C48.7522 10.2653 48.4917 10.1168 48.2049 10.0683C47.226 9.90505 46.3226 9.44007 45.6209 8.73834C44.9191 8.03661 44.4541 7.13319 44.2909 6.15432V6.15432ZM43.0769 13.0404C42.5968 12.3572 42.002 11.7623 41.3188 11.2823C42.002 10.8022 42.5968 10.2073 43.0769 9.52411C43.557 10.2073 44.1519 10.8022 44.8351 11.2823C44.1519 11.7623 43.557 12.3572 43.0769 13.0404V13.0404Z" fill="#FFA849"/>
</svg>
