<svg width="70" height="70" viewBox="0 0 70 70" fill="none" xmlns="http://www.w3.org/2000/svg">
<path d="M30.3034 17.237L30.4234 15.0287C30.0416 15.011 29.6587 15 29.2725 15C24.7821 15.0142 20.4166 16.4973 16.8271 19.228C13.2375 21.9587 10.6164 25.7907 9.35444 30.1525C8.96716 31.5117 4.41584 44.426 2.06381 51.0654C2.00489 51.232 1.9864 51.4105 2.00989 51.5859C2.03339 51.7612 2.09818 51.9283 2.19881 52.073C2.29943 52.2177 2.43295 52.3358 2.58812 52.4174C2.74328 52.499 2.91553 52.5416 3.09037 52.5417H8.54498V60.2708C8.54729 62.32 9.35258 64.2846 10.7842 65.7336C12.2158 67.1826 14.1568 67.9977 16.1814 68H48.9091C49.1984 68 49.4759 67.8837 49.6805 67.6766C49.8851 67.4695 50 67.1887 50 66.8958V55.8542H47.8182V65.7917H36.01C36.3409 65.3493 36.6036 64.8586 36.7889 64.3364L41.2083 51.8085L39.1551 51.0665L34.7347 63.5933C34.5066 64.2361 34.0881 64.7921 33.5364 65.1855C32.9848 65.5789 32.3266 65.7906 31.6518 65.7917H16.1814C14.7353 65.7899 13.3489 65.2077 12.3264 64.1727C11.3038 63.1377 10.7286 61.7345 10.7268 60.2708V56.9086C12.6701 56.7054 14.4842 55.8285 15.8618 54.4265L14.3192 52.8652C13.3486 53.8492 12.0873 54.4857 10.7268 54.6782V51.4375C10.7268 51.1447 10.6119 50.8638 10.4073 50.6567C10.2027 50.4497 9.92523 50.3333 9.6359 50.3333H4.64057C6.25623 45.7643 11.0236 32.2603 11.4512 30.7642C12.5806 26.8619 14.926 23.4337 18.1376 20.9907C21.3492 18.5478 25.255 17.221 29.2725 17.2083C29.6183 17.2083 29.963 17.2183 30.3034 17.237Z" fill="#FFA849"/>
<path d="M14 39.5C14 40.39 14.2639 41.26 14.7584 42.0001C15.2529 42.7401 15.9557 43.3169 16.7779 43.6575C17.6002 43.9981 18.505 44.0872 19.3779 43.9135C20.2508 43.7399 21.0526 43.3113 21.682 42.682C22.3113 42.0526 22.7399 41.2508 22.9135 40.3779C23.0872 39.505 22.9981 38.6002 22.6575 37.7779C22.3169 36.9557 21.7401 36.2529 21.0001 35.7584C20.26 35.2639 19.39 35 18.5 35C17.3065 35 16.1619 35.4741 15.318 36.318C14.4741 37.1619 14 38.3065 14 39.5ZM20.75 39.5C20.75 39.945 20.618 40.38 20.3708 40.75C20.1236 41.12 19.7722 41.4084 19.361 41.5787C18.9499 41.749 18.4975 41.7936 18.061 41.7068C17.6246 41.6199 17.2237 41.4057 16.909 41.091C16.5943 40.7763 16.38 40.3754 16.2932 39.939C16.2064 39.5025 16.251 39.0501 16.4213 38.639C16.5916 38.2278 16.88 37.8764 17.25 37.6292C17.62 37.382 18.055 37.25 18.5 37.25C19.0967 37.25 19.669 37.4871 20.091 37.909C20.5129 38.331 20.75 38.9033 20.75 39.5Z" fill="#FFA849"/>
<path d="M62.5779 6.93003C60.8745 5.27426 58.8571 3.98516 56.6476 3.14061C54.4382 2.29607 52.0825 1.91361 49.7229 2.01634C47.3634 2.11907 45.0488 2.70486 42.9192 3.73831C40.7896 4.77176 38.8891 6.23143 37.3324 8.02913C35.7758 9.82684 34.5954 11.9253 33.8626 14.1976C33.1297 16.47 32.8596 18.8691 33.0685 21.2501C33.2775 23.6311 33.9611 25.9445 35.0782 28.0506C36.1953 30.1567 37.7227 32.0117 39.568 33.5036C41.4113 35.0293 42.5804 37.2335 42.8181 39.6316H40.6962V41.8423H42.8804V49.5797C42.8804 49.8728 42.9955 50.154 43.2003 50.3613C43.4051 50.5686 43.6829 50.685 43.9725 50.685H46.3118C46.5502 51.6329 47.0938 52.4734 47.8569 53.0738C48.6199 53.6741 49.5588 54 50.5252 54C51.4917 54 52.4306 53.6741 53.1936 53.0738C53.9566 52.4734 54.5002 51.6329 54.7386 50.685H57.0779C57.3676 50.685 57.6454 50.5686 57.8502 50.3613C58.055 50.154 58.1701 49.8728 58.1701 49.5797V41.8423H60.3543V39.6316H58.2323C58.4791 37.2247 59.657 35.0145 61.5087 33.4837C63.4422 31.903 65.0202 29.9229 66.1371 27.6756C67.254 25.4283 67.8842 22.9657 67.9855 20.4522C68.0868 17.9387 67.6569 15.4322 66.7246 13.1004C65.7922 10.7685 64.3788 8.66484 62.5789 6.93003H62.5779ZM50.5252 51.7903C50.142 51.7901 49.7656 51.6879 49.4338 51.4939C49.1019 51.2999 48.8264 51.0209 48.6348 50.685H52.4157C52.2241 51.0209 51.9485 51.2999 51.6167 51.4939C51.2849 51.6879 50.9084 51.7901 50.5252 51.7903ZM53.8016 48.4743H45.0646V46.2636H55.9858V48.4743H53.8016ZM55.9858 44.053H45.0646V41.8423H55.9858V44.053ZM60.1359 31.7638C58.9656 32.7295 57.9993 33.9238 57.2948 35.2755C56.5902 36.6272 56.1618 38.1087 56.035 39.6316H45.0155C44.893 38.1129 44.4686 36.635 43.7678 35.2864C43.0671 33.9378 42.1044 32.7464 40.9375 31.7837C39.0751 30.2782 37.5893 28.3498 36.6006 26.1548C35.6118 23.9598 35.1479 21.5599 35.2465 19.1496C35.4077 15.2888 36.9835 11.6271 39.6667 8.87808C42.35 6.12905 45.9484 4.48967 49.7607 4.27942C52.9837 4.11438 56.1756 4.98606 58.8791 6.76956C61.5826 8.55306 63.6589 11.1569 64.8107 14.2079C65.9624 17.259 66.1305 20.6007 65.2907 23.7543C64.4509 26.908 62.6465 29.7117 60.1359 31.7638Z" fill="#FFA849"/>
<path d="M56.9304 20H44.0717C43.8777 20 43.6874 20.0552 43.5209 20.1599C43.3545 20.2646 43.2183 20.4147 43.1267 20.5943C43.0352 20.7738 42.9918 20.9761 43.0013 21.1796C43.0107 21.383 43.0725 21.5799 43.1802 21.7494L47.2864 28.2125V38H49.4295V27.875C49.4292 27.6528 49.3666 27.4357 49.2495 27.2506L46.0734 22.25H54.9287L51.7526 27.2506C51.6356 27.4357 51.573 27.6528 51.5726 27.875V38H53.7157V28.2125L57.822 21.746C57.9288 21.5766 57.9899 21.38 57.9988 21.1771C58.0078 20.9742 57.9643 20.7725 57.8729 20.5935C57.7814 20.4144 57.6455 20.2647 57.4796 20.1602C57.3137 20.0557 57.1239 20.0004 56.9304 20Z" fill="#FFA849"/>
</svg>
