<svg width="60" height="60" viewBox="0 0 60 60" fill="none" xmlns="http://www.w3.org/2000/svg">
<path d="M53.3261 2H19.6739C18.4348 2.00148 17.2468 2.49362 16.3706 3.36847C15.4944 4.24332 15.0015 5.42944 15 6.66667V19.7333H16.8696V6.66667C16.8696 5.92406 17.165 5.21187 17.6909 4.68677C18.2169 4.16167 18.9302 3.86667 19.6739 3.86667H53.3261C54.0698 3.86667 54.7831 4.16167 55.3091 4.68677C55.835 5.21187 56.1304 5.92406 56.1304 6.66667V28.1333H27.1522V30H56.1304V31.8667C56.1304 32.6093 55.835 33.3215 55.3091 33.8466C54.7831 34.3717 54.0698 34.6667 53.3261 34.6667H32.7609V36.5333H39.5091L40.9112 42.1333H32.7609V44H45.8478V42.1333H42.8378L41.4357 36.5333H53.3261C54.5652 36.5319 55.7532 36.0397 56.6294 35.1649C57.5056 34.29 57.9985 33.1039 58 31.8667V6.66667C57.9985 5.42944 57.5056 4.24332 56.6294 3.36847C55.7532 2.49362 54.5652 2.00148 53.3261 2Z" fill="#FFA849"/>
<path d="M21 6H19V8H21V6Z" fill="#FFA849"/>
<path d="M25 6H23V8H25V6Z" fill="#FFA849"/>
<path d="M28 6H26V8H28V6Z" fill="#FFA849"/>
<path d="M21 9H19V19H21V9Z" fill="#FFA849"/>
<path d="M54 24H27V26H54V24Z" fill="#FFA849"/>
<path d="M25 19H23V21H25V19Z" fill="#FFA849"/>
<path d="M28 18H26V23H28V18Z" fill="#FFA849"/>
<path d="M32 19H30V23H32V19Z" fill="#FFA849"/>
<path d="M36 16H34V23H36V16Z" fill="#FFA849"/>
<path d="M39 14H37V22H39V14Z" fill="#FFA849"/>
<path d="M43 16H41V23H43V16Z" fill="#FFA849"/>
<path d="M47 12H45V22H47V12Z" fill="#FFA849"/>
<path d="M51 10H49V22H51V10Z" fill="#FFA849"/>
<path d="M54 9H52V22H54V9Z" fill="#FFA849"/>
<path d="M31.1756 50.307V41.3824C31.1716 38.796 30.3775 36.2702 28.8956 34.1309C27.4138 31.9916 25.3123 30.3371 22.8624 29.3809L25.4224 24.5535C25.5299 24.3494 25.556 24.1134 25.4956 23.8915C25.4352 23.6695 25.2927 23.4777 25.0958 23.3533L24.1546 22.7606C23.4415 22.3172 22.6254 22.0586 21.7826 22.009C20.9398 21.9595 20.098 22.1205 19.336 22.4772C18.919 22.6718 18.4631 22.7728 18.0014 22.7728C17.5397 22.7728 17.0838 22.6718 16.6669 22.4772C15.9047 22.1204 15.0627 21.9592 14.2198 22.0088C13.3768 22.0583 12.5604 22.317 11.8472 22.7606L10.9061 23.3533C10.7092 23.4777 10.5666 23.6695 10.5063 23.8915C10.4459 24.1134 10.472 24.3494 10.5795 24.5535L13.1366 29.3809C10.6867 30.3371 8.58525 31.9916 7.10341 34.1309C5.62158 36.2702 4.82742 38.796 4.82345 41.3824V50.307L2.61175 53.1994C2.27092 53.6451 2.06337 54.1752 2.01236 54.7302C1.96135 55.2851 2.06888 55.843 2.32292 56.3414C2.57696 56.8398 2.96746 57.2589 3.45066 57.5519C3.93387 57.8448 4.49069 58 5.05873 58H30.9403C31.5085 58.0003 32.0656 57.8454 32.549 57.5525C33.0324 57.2596 33.4231 56.8404 33.6772 56.3419C33.9313 55.8434 34.0388 55.2853 33.9876 54.7302C33.9364 54.1752 33.7285 53.645 33.3873 53.1994L31.1756 50.307ZM12.6435 24.4491L12.8609 24.3125C13.3031 24.0375 13.8093 23.8773 14.332 23.8467C14.8546 23.8162 15.3766 23.9164 15.849 24.138C16.5208 24.4517 17.2555 24.6144 17.9995 24.6144C18.7436 24.6144 19.4782 24.4517 20.1501 24.138C20.6223 23.9164 21.1441 23.8162 21.6666 23.8467C22.1892 23.8772 22.6952 24.0375 23.1373 24.3125L23.3556 24.4491L21.0404 28.8186C19.0428 28.3373 16.9562 28.3373 14.9587 28.8186L12.6435 24.4491ZM30.9403 56.1536H5.05873C4.84026 56.1536 4.62609 56.0939 4.44025 55.9813C4.2544 55.8686 4.1042 55.7074 4.0065 55.5157C3.90879 55.324 3.86743 55.1094 3.88705 54.896C3.90667 54.6825 3.9865 54.4787 4.11759 54.3072L6.51752 51.1683C6.6397 51.0085 6.70574 50.8142 6.70574 50.6144V41.3824C6.70574 38.4443 7.89562 35.6264 10.0136 33.5488C12.1316 31.4712 15.0042 30.3041 17.9995 30.3041C20.9948 30.3041 23.8674 31.4712 25.9854 33.5488C28.1034 35.6264 29.2933 38.4443 29.2933 41.3824V50.6144C29.2933 50.8142 29.3594 51.0085 29.4815 51.1683L31.8815 54.3072C32.0129 54.4786 32.0931 54.6825 32.1129 54.8961C32.1327 55.1096 32.0914 55.3244 31.9936 55.5162C31.8958 55.708 31.7455 55.8693 31.5594 55.9819C31.3733 56.0945 31.1589 56.1539 30.9403 56.1536Z" fill="#FFA849"/>
<path d="M18.5027 38.8667H18.3749V37H16.6251V38.8667H16.4973C15.9347 38.8666 15.3886 39.0692 14.9475 39.4416C14.5063 39.8141 14.196 40.3345 14.0668 40.9186C13.9375 41.5027 13.997 42.1162 14.2355 42.6597C14.474 43.2033 14.8776 43.6449 15.3809 43.9132L18.836 45.7565C18.9866 45.8368 19.1074 45.9689 19.1788 46.1314C19.2502 46.294 19.268 46.4775 19.2295 46.6523C19.1909 46.827 19.0981 46.9828 18.9662 47.0943C18.8343 47.2058 18.671 47.2665 18.5027 47.2667H16.4973C16.2993 47.2662 16.1095 47.182 15.9695 47.0327C15.8294 46.8833 15.7506 46.6808 15.7501 46.4696V46.3333H14.0002V46.4696C14.0009 47.1758 14.2642 47.8529 14.7324 48.3523C15.2005 48.8517 15.8353 49.1326 16.4973 49.1333H16.6251V51H18.3749V49.1333H18.5027C19.0653 49.1334 19.6114 48.9308 20.0525 48.5584C20.4937 48.1859 20.804 47.6655 20.9332 47.0814C21.0625 46.4973 21.003 45.8838 20.7645 45.3403C20.526 44.7967 20.1224 44.3551 19.6191 44.0868L16.164 42.2435C16.0134 42.1632 15.8926 42.0311 15.8212 41.8686C15.7498 41.706 15.732 41.5225 15.7705 41.3477C15.8091 41.173 15.9019 41.0172 16.0338 40.9057C16.1657 40.7942 16.329 40.7335 16.4973 40.7333H18.5027C18.7007 40.7338 18.8905 40.818 19.0305 40.9673C19.1706 41.1167 19.2494 41.3192 19.2499 41.5304V42.6H20.9998V41.5304C20.9991 40.8242 20.7358 40.1471 20.2676 39.6477C19.7995 39.1483 19.1647 38.8674 18.5027 38.8667Z" fill="#FFA849"/>
<path d="M38 46C37.2089 46 36.4355 46.2346 35.7777 46.6741C35.1199 47.1136 34.6072 47.7384 34.3045 48.4693C34.0017 49.2002 33.9225 50.0044 34.0769 50.7804C34.2312 51.5563 34.6122 52.269 35.1716 52.8284C35.731 53.3878 36.4437 53.7688 37.2196 53.9231C37.9956 54.0775 38.7998 53.9983 39.5307 53.6955C40.2616 53.3928 40.8864 52.8801 41.3259 52.2223C41.7654 51.5645 42 50.7911 42 50C41.9988 48.9395 41.577 47.9228 40.8271 47.1729C40.0772 46.423 39.0605 46.0012 38 46ZM38 52.2222C37.5605 52.2222 37.1308 52.0919 36.7654 51.8477C36.4 51.6035 36.1151 51.2565 35.9469 50.8504C35.7787 50.4443 35.7347 49.9975 35.8205 49.5665C35.9062 49.1354 36.1179 48.7394 36.4287 48.4286C36.7394 48.1179 37.1354 47.9062 37.5665 47.8205C37.9975 47.7347 38.4443 47.7787 38.8504 47.9469C39.2565 48.1151 39.6035 48.4 39.8477 48.7654C40.0919 49.1308 40.2222 49.5605 40.2222 50C40.2222 50.5894 39.9881 51.1546 39.5714 51.5713C39.1546 51.9881 38.5894 52.2222 38 52.2222Z" fill="#FFA849"/>
<path d="M47 50C46.2089 50 45.4355 50.2346 44.7777 50.6741C44.1199 51.1136 43.6072 51.7384 43.3045 52.4693C43.0017 53.2002 42.9225 54.0044 43.0769 54.7804C43.2312 55.5563 43.6122 56.269 44.1716 56.8284C44.731 57.3878 45.4437 57.7688 46.2196 57.9231C46.9956 58.0775 47.7998 57.9983 48.5307 57.6955C49.2616 57.3928 49.8864 56.8801 50.3259 56.2223C50.7654 55.5645 51 54.7911 51 54C50.9988 52.9395 50.577 51.9228 49.8271 51.1729C49.0772 50.423 48.0605 50.0012 47 50ZM47 56.2222C46.5605 56.2222 46.1308 56.0919 45.7654 55.8477C45.4 55.6035 45.1151 55.2565 44.9469 54.8504C44.7787 54.4443 44.7347 53.9975 44.8205 53.5665C44.9062 53.1354 45.1179 52.7394 45.4287 52.4286C45.7394 52.1179 46.1354 51.9062 46.5665 51.8205C46.9975 51.7347 47.4443 51.7787 47.8504 51.9469C48.2565 52.1151 48.6035 52.4 48.8477 52.7654C49.0919 53.1308 49.2222 53.5605 49.2222 54C49.2222 54.5894 48.9881 55.1546 48.5714 55.5713C48.1546 55.9881 47.5894 56.2222 47 56.2222Z" fill="#FFA849"/>
<path d="M2.75034 17.3879C3.466 17.5074 4.12646 17.8474 4.63951 18.3605C5.15257 18.8735 5.49259 19.534 5.61211 20.2497C5.64759 20.4595 5.75623 20.6499 5.91876 20.7873C6.08129 20.9246 6.28721 21 6.5 21C6.71279 21 6.91871 20.9246 7.08124 20.7873C7.24377 20.6499 7.35241 20.4595 7.38789 20.2497C7.50741 19.534 7.84743 18.8735 8.36049 18.3605C8.87354 17.8474 9.534 17.5074 10.2497 17.3879C10.4595 17.3524 10.6499 17.2438 10.7873 17.0812C10.9246 16.9187 11 16.7128 11 16.5C11 16.2872 10.9246 16.0813 10.7873 15.9188C10.6499 15.7562 10.4595 15.6476 10.2497 15.6121C9.534 15.4926 8.87354 15.1526 8.36049 14.6395C7.84743 14.1265 7.50741 13.466 7.38789 12.7503C7.35241 12.5405 7.24377 12.3501 7.08124 12.2127C6.91871 12.0754 6.71279 12 6.5 12C6.28721 12 6.08129 12.0754 5.91876 12.2127C5.75623 12.3501 5.64759 12.5405 5.61211 12.7503C5.49259 13.466 5.15257 14.1265 4.63951 14.6395C4.12646 15.1526 3.466 15.4926 2.75034 15.6121C2.54053 15.6476 2.35006 15.7562 2.21271 15.9188C2.07536 16.0813 2 16.2872 2 16.5C2 16.7128 2.07536 16.9187 2.21271 17.0812C2.35006 17.2438 2.54053 17.3524 2.75034 17.3879ZM6.5 15.2141C6.85113 15.7138 7.2862 16.1489 7.78591 16.5C7.2862 16.8511 6.85113 17.2862 6.5 17.7859C6.14887 17.2862 5.7138 16.8511 5.21409 16.5C5.7138 16.1489 6.14887 15.7138 6.5 15.2141Z" fill="#FFA849"/>
</svg>
