<svg width="80" height="80" viewBox="0 0 80 80" fill="none" xmlns="http://www.w3.org/2000/svg">
<path d="M34.709 19.9469L34.8475 17.4683C34.4069 17.4484 33.9651 17.436 33.5195 17.436C28.3383 17.452 23.3012 19.1166 19.1594 22.1816C15.0177 25.2465 11.9932 29.5475 10.5372 34.4432C10.0903 35.9688 4.83878 50.4638 2.1249 57.9158C2.05692 58.1028 2.03558 58.3032 2.06268 58.5C2.08979 58.6968 2.16455 58.8843 2.28066 59.0468C2.39677 59.2092 2.55083 59.3418 2.72986 59.4333C2.9089 59.5249 3.10765 59.5727 3.30939 59.5728H9.60317V68.248C9.60583 70.548 10.535 72.7531 12.1869 74.3794C13.8387 76.0058 16.0784 76.9206 18.4145 76.9232H56.1771C56.511 76.9232 56.8311 76.7927 57.0672 76.5602C57.3033 76.3278 57.4359 76.0126 57.4359 75.6839V63.2907H54.9184V74.4446H41.2936C41.6754 73.948 41.9785 73.3973 42.1923 72.8112L47.2916 58.7499L44.9226 57.9171L39.8221 71.9771C39.5588 72.6986 39.076 73.3227 38.4395 73.7642C37.8029 74.2058 37.0436 74.4433 36.2649 74.4446H18.4145C16.7459 74.4426 15.1462 73.7891 13.9663 72.6275C12.7864 71.4658 12.1227 69.8908 12.1207 68.248V64.4743C14.3629 64.2462 16.4561 63.2619 18.0456 61.6883L16.2658 59.9359C15.1458 61.0403 13.6905 61.7548 12.1207 61.9709V58.3335C12.1207 58.0048 11.9881 57.6896 11.752 57.4571C11.5159 57.2247 11.1958 57.0942 10.8619 57.0942H5.09808C6.9623 51.9659 12.4631 36.809 12.9565 35.1298C14.2596 30.7498 16.9659 26.902 20.6716 24.16C24.3773 21.4181 28.884 19.9289 33.5195 19.9147C33.9186 19.9147 34.3163 19.9258 34.709 19.9469Z" fill="#FFA849"/>
<path d="M15.3846 45.1282C15.3846 46.1425 15.6854 47.134 16.2489 47.9773C16.8124 48.8206 17.6133 49.4779 18.5503 49.866C19.4874 50.2542 20.5185 50.3557 21.5133 50.1579C22.5081 49.96 23.4218 49.4716 24.139 48.7544C24.8562 48.0372 25.3446 47.1234 25.5425 46.1287C25.7404 45.1339 25.6388 44.1028 25.2507 43.1657C24.8625 42.2287 24.2052 41.4278 23.3619 40.8643C22.5186 40.3008 21.5271 40 20.5128 40C19.1527 40 17.8484 40.5403 16.8866 41.502C15.9249 42.4637 15.3846 43.7681 15.3846 45.1282V45.1282ZM23.0769 45.1282C23.0769 45.6353 22.9265 46.1311 22.6448 46.5527C22.363 46.9744 21.9626 47.3031 21.4941 47.4971C21.0255 47.6912 20.51 47.742 20.0126 47.643C19.5152 47.5441 19.0583 47.2999 18.6997 46.9413C18.3411 46.5827 18.0969 46.1258 17.998 45.6284C17.899 45.1311 17.9498 44.6155 18.1439 44.147C18.338 43.6784 18.6666 43.278 19.0883 42.9962C19.5099 42.7145 20.0057 42.5641 20.5128 42.5641C21.1929 42.5641 21.845 42.8342 22.3259 43.3151C22.8068 43.796 23.0769 44.4482 23.0769 45.1282Z" fill="#FFA849"/>
<path d="M70.7263 7.5939C68.7796 5.73239 66.474 4.2831 63.949 3.33362C61.4239 2.38413 58.7317 1.95415 56.035 2.06964C53.3383 2.18513 50.6932 2.84371 48.2593 4.00558C45.8254 5.16745 43.6534 6.8085 41.8744 8.82959C40.0954 10.8507 38.7464 13.2098 37.9088 15.7646C37.0713 18.3193 36.7626 21.0166 37.0014 23.6934C37.2402 26.3703 38.0215 28.9712 39.2982 31.3389C40.5749 33.7067 42.3204 35.7922 44.4293 37.4695C46.536 39.1848 47.8721 41.6629 48.1438 44.359H45.7187V46.8444H48.2149V55.5432C48.2149 55.8728 48.3464 56.1889 48.5805 56.4219C48.8146 56.655 49.132 56.7859 49.4631 56.7859H52.1366C52.409 57.8516 53.0303 58.7966 53.9023 59.4715C54.7744 60.1464 55.8474 60.5128 56.9519 60.5128C58.0564 60.5128 59.1294 60.1464 60.0014 59.4715C60.8735 58.7966 61.4948 57.8516 61.7672 56.7859H64.4407C64.7717 56.7859 65.0892 56.655 65.3233 56.4219C65.5574 56.1889 65.6888 55.8728 65.6888 55.5432V46.8444H68.1851V44.359H65.76C66.042 41.653 67.3882 39.1681 69.5044 37.4471C71.7142 35.67 73.5175 33.4438 74.794 30.9173C76.0705 28.3908 76.7907 25.6221 76.9065 22.7963C77.0223 19.9705 76.531 17.1526 75.4654 14.531C74.3999 11.9093 72.7846 9.54429 70.7276 7.5939H70.7263ZM56.9519 58.0286C56.5139 58.0284 56.0837 57.9134 55.7045 57.6953C55.3253 57.4772 55.0104 57.1635 54.7914 56.7859H59.1124C58.8934 57.1635 58.5785 57.4772 58.1993 57.6953C57.8201 57.9134 57.3899 58.0284 56.9519 58.0286V58.0286ZM60.6963 54.3005H50.7112V51.8151H63.1926V54.3005H60.6963ZM63.1926 49.3297H50.7112V46.8444H63.1926V49.3297ZM67.9355 35.5135C66.598 36.5992 65.4937 37.9419 64.6885 39.4616C63.8833 40.9813 63.3937 42.6469 63.2487 44.359H50.655C50.515 42.6516 50.03 40.99 49.2292 39.4739C48.4283 37.9577 47.3281 36.6182 45.9945 35.5358C43.866 33.8433 42.168 31.6753 41.038 29.2076C39.908 26.7398 39.3778 24.0417 39.4905 21.3319C39.6748 16.9913 41.4757 12.8746 44.5422 9.78402C47.6087 6.6934 51.7212 4.85031 56.0782 4.61393C59.7616 4.42838 63.4094 5.40838 66.4991 7.4135C69.5888 9.41862 71.9618 12.346 73.2781 15.7762C74.5944 19.2063 74.7864 22.9633 73.8267 26.5088C72.867 30.0543 70.8048 33.2064 67.9355 35.5135V35.5135Z" fill="#FFA849"/>
<path d="M64.3977 22.564H49.4509C49.2254 22.5639 49.0041 22.6238 48.8106 22.7371C48.6172 22.8504 48.4588 23.0129 48.3524 23.2073C48.246 23.4017 48.1956 23.6208 48.2066 23.841C48.2175 24.0612 48.2894 24.2745 48.4146 24.4579L53.1876 31.455V42.0511H55.6787V31.0896C55.6783 30.8491 55.6056 30.614 55.4695 30.4136L51.7776 24.9999H62.071L58.3791 30.4136C58.243 30.614 58.1703 30.8491 58.1699 31.0896V42.0511H60.661V31.455L65.434 24.4542C65.5582 24.2708 65.6293 24.058 65.6397 23.8383C65.6501 23.6186 65.5995 23.4003 65.4932 23.2065C65.3869 23.0126 65.229 22.8506 65.0361 22.7374C64.8432 22.6243 64.6226 22.5644 64.3977 22.564V22.564Z" fill="#FFA849"/>
</svg>
