<svg width="70" height="70" viewBox="0 0 70 70" fill="none" xmlns="http://www.w3.org/2000/svg">
<path d="M66.7392 27.183L59 35L60.4071 36.4213L68.1463 28.6043L66.7392 27.183Z" fill="#FFA849"/>
<path d="M49.709 28.9374C50.479 28.4161 51.197 27.8198 51.8528 27.1571L55.6597 23.2988L54.1217 21.7401L50.3148 25.5983C48.0649 27.8732 45.0165 29.1508 41.8384 29.1508C38.6603 29.1508 35.6119 27.8732 33.362 25.5983L31.7304 23.9448C31.5342 23.7462 31.2706 23.631 30.9934 23.6228C30.7163 23.6146 30.4465 23.714 30.2392 23.9007L27.347 26.5045C25.833 27.8661 23.8985 28.6508 21.8756 28.7239C19.8528 28.7969 17.868 28.1536 16.2623 26.9046L30.9103 12.9874C31.917 12.0273 33.2479 11.4937 34.6302 11.4959H47.465C47.8939 11.4973 48.3188 11.4123 48.715 11.246C49.1112 11.0796 49.4709 10.8352 49.7731 10.5269L55.6619 4.55873L54.1217 3L48.233 8.96817C48.1318 9.07067 48.0118 9.15196 47.8796 9.20738C47.7475 9.2628 47.6059 9.29127 47.4629 9.29116H34.628C32.6929 9.28849 30.8298 10.0354 29.4202 11.379L13.902 26.1253C13.7957 26.2263 13.7106 26.348 13.6517 26.483C13.5927 26.6181 13.5611 26.7637 13.5588 26.9114C13.5565 27.059 13.5834 27.2057 13.6381 27.3426C13.6927 27.4794 13.774 27.6038 13.877 27.7083C15.8399 29.6936 18.4765 30.8448 21.2485 30.9268C24.0205 31.0087 26.7188 30.0152 28.7925 28.1492L30.9168 26.2366L31.824 27.1549C33.8657 29.2253 36.4843 30.612 39.3273 31.1282C42.1703 31.6444 45.1011 31.2653 47.725 30.0419L59.0164 41.4877C59.5202 42.0147 59.7994 42.7214 59.7937 43.4551C59.788 44.1889 59.4978 44.891 58.9859 45.4099C58.4739 45.9287 57.7811 46.2228 57.0571 46.2286C56.3331 46.2344 55.6359 45.9514 55.1159 45.4408L52.3967 42.6849L50.8587 44.2436L53.5779 46.9995C54.0945 47.5241 54.3847 48.2349 54.3847 48.9761C54.3847 49.7172 54.0945 50.428 53.5779 50.9526C53.0521 51.4601 52.3538 51.7431 51.6277 51.7431C50.9015 51.7431 50.2032 51.4601 49.6774 50.9526L46.9582 48.1967L45.4202 49.7554L48.1394 52.5113C48.656 53.0359 48.9462 53.7467 48.9462 54.4878C48.9462 55.229 48.656 55.9398 48.1394 56.4644C47.6136 56.9719 46.9153 57.2549 46.1892 57.2549C45.4631 57.2549 44.7648 56.9719 44.2389 56.4644L41.5197 53.7085L39.9817 55.2672L42.7009 58.0231C43.2175 58.5476 43.5077 59.2585 43.5077 59.9996C43.5077 60.7408 43.2175 61.4516 42.7009 61.9762C42.1751 62.4836 41.4768 62.7667 40.7507 62.7667C40.0246 62.7667 39.3263 62.4836 38.8004 61.9762L36.8274 59.9765C37.491 59.2237 37.9122 58.2837 38.0347 57.2819C38.1573 56.2801 37.9754 55.2643 37.5133 54.37C37.0512 53.4758 36.3309 52.7457 35.4486 52.2773C34.5663 51.8089 33.564 51.6244 32.5756 51.7485C32.6674 51.0024 32.5899 50.245 32.349 49.5339C32.1082 48.8228 31.7103 48.1768 31.1858 47.6452C30.6612 47.1136 30.0238 46.7103 29.3222 46.4663C28.6206 46.2222 27.8732 46.1436 27.1371 46.2367C27.2289 45.4906 27.1514 44.7332 26.9106 44.0221C26.6697 43.311 26.2719 42.665 25.7473 42.1334C25.2228 41.6018 24.5854 41.1986 23.8837 40.9545C23.1821 40.7104 22.4347 40.6319 21.6986 40.7249C21.8205 39.7234 21.6382 38.708 21.1759 37.8143C20.7137 36.9206 19.9935 36.1909 19.1114 35.7228C18.2293 35.2547 17.2274 35.0704 16.2393 35.1944C15.2512 35.3184 14.3239 35.7449 13.5811 36.4169L4.538 27.2519L3 28.8106L12.0203 37.9525L10.07 39.929C9.37974 40.6279 8.90956 41.5186 8.71901 42.4884C8.52846 43.4582 8.62611 44.4635 8.99959 45.377C9.37308 46.2906 10.0056 47.0713 10.8171 47.6203C11.6286 48.1693 12.5826 48.462 13.5583 48.4613C13.7462 48.4537 13.9336 48.4357 14.1195 48.4072C14.0347 49.1061 14.0978 49.8153 14.3044 50.4876C14.511 51.1599 14.8565 51.78 15.3179 52.3065C15.7792 52.833 16.3459 53.2539 16.9802 53.5413C17.6145 53.8286 18.302 53.9758 18.9968 53.973C19.1847 53.9655 19.372 53.9474 19.558 53.919C19.4732 54.6179 19.5363 55.3271 19.7429 55.9994C19.9495 56.6717 20.295 57.2918 20.7563 57.8183C21.2177 58.3448 21.7844 58.7657 22.4187 59.053C23.053 59.3404 23.7404 59.4876 24.4352 59.4848C24.6232 59.4773 24.8105 59.4592 24.9965 59.4308C24.8772 60.4597 25.0771 61.5007 25.5685 62.4091C26.0599 63.3175 26.8183 64.0481 27.7384 64.4995C28.6584 64.9509 29.6944 65.1005 30.7022 64.9276C31.7101 64.7548 32.6397 64.268 33.362 63.5349L35.3122 61.5584L37.2624 63.5349C37.9845 64.2672 38.9132 64.7542 39.9201 64.9286C40.927 65.103 41.9625 64.9562 42.8836 64.5084C43.8046 64.0607 44.5658 63.3341 45.0619 62.4291C45.5579 61.5241 45.7645 60.4853 45.6529 59.4562C46.3868 59.5381 47.1295 59.4519 47.8262 59.2039C48.5228 58.9559 49.1555 58.5524 49.6776 58.0233C50.1997 57.4942 50.5978 56.8529 50.8425 56.1469C51.0872 55.4409 51.1723 54.6882 51.0914 53.9444C51.8253 54.0263 52.568 53.9401 53.2646 53.6921C53.9613 53.4441 54.594 53.0406 55.1161 52.5115C55.6382 51.9824 56.0363 51.3411 56.281 50.6351C56.5257 49.9291 56.6108 49.1764 56.5299 48.4326C57.5453 48.5456 58.5703 48.3363 59.4633 47.8335C60.3563 47.3308 61.0732 46.5594 61.515 45.6259C61.9567 44.6925 62.1016 43.643 61.9295 42.6225C61.7575 41.602 61.2769 40.6608 60.5544 39.929L49.709 28.9374ZM11.608 45.4408C11.0914 44.9162 10.8013 44.2054 10.8013 43.4643C10.8013 42.7231 11.0914 42.0123 11.608 41.4877L14.8711 38.1807C15.3911 37.67 16.0883 37.3871 16.8124 37.3928C17.5364 37.3986 18.2291 37.6927 18.7411 38.2116C19.2531 38.7304 19.5432 39.4325 19.5489 40.1663C19.5546 40.9001 19.2754 41.6067 18.7716 42.1337L15.5085 45.4408C14.9907 45.9638 14.2894 46.2575 13.5583 46.2575C12.8272 46.2575 12.1259 45.9638 11.608 45.4408ZM17.0465 50.9526C16.5299 50.428 16.2397 49.7172 16.2397 48.9761C16.2397 48.2349 16.5299 47.5241 17.0465 46.9995L20.3096 43.6924C20.8296 43.1818 21.5268 42.8989 22.2508 42.9046C22.9749 42.9104 23.6676 43.2045 24.1796 43.7234C24.6916 44.2422 24.9817 44.9443 24.9874 45.6781C24.9931 46.4119 24.7139 47.1185 24.2101 47.6455L20.947 50.9526C20.4291 51.4756 19.7279 51.7693 18.9968 51.7693C18.2657 51.7693 17.5644 51.4756 17.0465 50.9526ZM22.485 56.4644C21.9684 55.9398 21.6782 55.229 21.6782 54.4878C21.6782 53.7467 21.9684 53.0359 22.485 52.5113L25.7481 49.2042C26.2681 48.6936 26.9653 48.4106 27.6893 48.4164C28.4133 48.4222 29.1061 48.7163 29.6181 49.2351C30.13 49.754 30.4202 50.4561 30.4259 51.1899C30.4316 51.9237 30.1524 52.6303 29.6486 53.1573L26.3855 56.4644C25.8676 56.9874 25.1663 57.2811 24.4352 57.2811C23.7041 57.2811 23.0028 56.9874 22.485 56.4644ZM31.824 61.9762C31.304 62.4868 30.6067 62.7697 29.8827 62.764C29.1587 62.7582 28.466 62.4641 27.954 61.9452C27.442 61.4264 27.1519 60.7243 27.1462 59.9905C27.1404 59.2567 27.4196 58.5501 27.9235 58.0231L31.1866 54.716C31.7066 54.2054 32.4038 53.9224 33.1278 53.9282C33.8518 53.934 34.5446 54.2281 35.0565 54.7469C35.5685 55.2658 35.8587 55.9679 35.8644 56.7017C35.8701 57.4355 35.5909 58.1421 35.087 58.6691L31.824 61.9762Z" fill="#FFA849"/>
<path d="M27 11V8.92395H23.4461C23.2987 8.92406 23.1528 8.89725 23.0166 8.84507C22.8805 8.79288 22.7567 8.71633 22.6526 8.61981L16.5848 3L15 4.46775L21.0678 10.0876C21.3793 10.3779 21.7499 10.608 22.1581 10.7647C22.5664 10.9213 23.0042 11.0013 23.4461 11H27Z" fill="#FFA849"/>
</svg>
