<svg width="80" height="80" viewBox="0 0 80 80" fill="none" xmlns="http://www.w3.org/2000/svg">
<path d="M76 44.2682H70.6667V40.298C70.6667 39.947 70.5262 39.6104 70.2761 39.3622C70.0261 39.114 69.687 38.9746 69.3333 38.9746H53.3333C51.1771 38.9833 49.0491 39.4618 47.0997 40.3766C45.1504 41.2913 43.4272 42.6198 42.052 44.2682H37.948C36.5728 42.6198 34.8496 41.2913 32.9003 40.3766C30.9509 39.4618 28.8229 38.9833 26.6667 38.9746H10.6667C10.313 38.9746 9.97391 39.114 9.72386 39.3622C9.47381 39.6104 9.33333 39.947 9.33333 40.298V44.2682H4C2.93913 44.2682 1.92172 44.6865 1.17157 45.4311C0.421428 46.1757 0 47.1855 0 48.2385V64.1194C0 65.1723 0.421428 66.1822 1.17157 66.9267C1.92172 67.6713 2.93913 68.0896 4 68.0896H9.33333V72.0598C9.33333 72.4108 9.47381 72.7474 9.72386 72.9956C9.97391 73.2438 10.313 73.3832 10.6667 73.3832H25.784C27.8549 73.389 29.8894 73.924 31.6916 74.9367C33.4937 75.9494 35.0027 77.4057 36.0733 79.1652L36.1893 79.3571C36.2416 79.4394 36.3029 79.5157 36.372 79.5847C36.3813 79.5953 36.388 79.6072 36.3973 79.6178C36.5069 79.7209 36.6331 79.805 36.7707 79.8666C36.804 79.8825 36.8373 79.8944 36.8733 79.9076C37.0198 79.9656 37.1756 79.997 37.3333 80.0003H42.6667C42.8244 79.997 42.9802 79.9656 43.1267 79.9076C43.1627 79.8944 43.196 79.8825 43.2293 79.8666C43.3669 79.805 43.4931 79.7209 43.6027 79.6178C43.612 79.6072 43.6187 79.5953 43.628 79.5847C43.6971 79.5157 43.7584 79.4394 43.8107 79.3571L43.9253 79.1665C44.996 77.4066 46.5052 75.9501 48.3076 74.9372C50.1099 73.9242 52.1448 73.3891 54.216 73.3832H69.3333C69.687 73.3832 70.0261 73.2438 70.2761 72.9956C70.5262 72.7474 70.6667 72.4108 70.6667 72.0598V68.0896H76C77.0609 68.0896 78.0783 67.6713 78.8284 66.9267C79.5786 66.1822 80 65.1723 80 64.1194V48.2385C80 47.1855 79.5786 46.1757 78.8284 45.4311C78.0783 44.6865 77.0609 44.2682 76 44.2682V44.2682ZM2.66667 64.1194V48.2385C2.66667 47.8875 2.80714 47.5509 3.05719 47.3027C3.30724 47.0545 3.64638 46.9151 4 46.9151H12C12.3536 46.9151 12.6928 47.0545 12.9428 47.3027C13.1929 47.5509 13.3333 47.8875 13.3333 48.2385V49.5619H6.66667V52.2087H13.3333V54.8555H6.66667V57.5023H13.3333V60.1491H6.66667V62.7959H13.3333V64.1194C13.3333 64.4703 13.1929 64.807 12.9428 65.0551C12.6928 65.3033 12.3536 65.4428 12 65.4428H4C3.64638 65.4428 3.30724 65.3033 3.05719 65.0551C2.80714 64.807 2.66667 64.4703 2.66667 64.1194ZM25.784 70.7364H12V68.0896C13.0609 68.0896 14.0783 67.6713 14.8284 66.9267C15.5786 66.1822 16 65.1723 16 64.1194V48.2385C16 47.1855 15.5786 46.1757 14.8284 45.4311C14.0783 44.6865 13.0609 44.2682 12 44.2682V41.6214H26.6667C28.4555 41.6259 30.221 42.0252 31.8352 42.7904C33.4495 43.5555 34.8721 44.6674 36 46.0456V74.8562C33.2594 72.2236 29.5979 70.747 25.784 70.7364V70.7364ZM38.6667 46.9151H41.3333V77.3534H38.6667V46.9151ZM68 70.7364H54.216C50.4021 70.747 46.7406 72.2236 44 74.8562V46.0456C45.1279 44.6674 46.5505 43.5555 48.1648 42.7904C49.779 42.0252 51.5445 41.6259 53.3333 41.6214H68V44.2682C66.9391 44.2682 65.9217 44.6865 65.1716 45.4311C64.4214 46.1757 64 47.1855 64 48.2385V64.1194C64 65.1723 64.4214 66.1822 65.1716 66.9267C65.9217 67.6713 66.9391 68.0896 68 68.0896V70.7364ZM77.3333 64.1194C77.3333 64.4703 77.1929 64.807 76.9428 65.0551C76.6928 65.3033 76.3536 65.4428 76 65.4428H68C67.6464 65.4428 67.3072 65.3033 67.0572 65.0551C66.8071 64.807 66.6667 64.4703 66.6667 64.1194V62.7959H73.3333V60.1491H66.6667V57.5023H73.3333V54.8555H66.6667V52.2087H73.3333V49.5619H66.6667V48.2385C66.6667 47.8875 66.8071 47.5509 67.0572 47.3027C67.3072 47.0545 67.6464 46.9151 68 46.9151H76C76.3536 46.9151 76.6928 47.0545 76.9428 47.3027C77.1929 47.5509 77.3333 47.8875 77.3333 48.2385V64.1194Z" fill="#FFA849"/>
<path d="M28.4596 31.7793C29.8179 33.3906 31.5119 34.6858 33.4232 35.5743C35.3345 36.4627 37.4169 36.9231 39.5248 36.9231C41.6326 36.9231 43.715 36.4627 45.6263 35.5743C47.5376 34.6858 49.2317 33.3906 50.59 31.7793C54.0555 32.2084 57.2474 33.8802 59.573 36.4843L61.5385 34.7252C59.0961 31.9923 55.8379 30.1187 52.2468 29.3821C53.4214 27.2485 54.0363 24.8523 54.0341 22.417H56.6723V19.7797H54.0341V14.5051C54.0341 10.6581 52.5054 6.96868 49.7843 4.24844C47.0631 1.52821 43.3724 0 39.5241 0C35.6758 0 31.9851 1.52821 29.264 4.24844C26.5428 6.96868 25.0141 10.6581 25.0141 14.5051V19.7797H22.3759V22.417H25.0141C25.012 24.8515 25.6269 27.2468 26.8015 29.3794C23.1718 30.1252 19.884 32.0328 17.4359 34.8135L19.4145 36.5581C21.7437 33.9134 24.9615 32.2133 28.4596 31.7793V31.7793ZM39.5241 34.2848C37.1667 34.282 34.8633 33.5783 32.907 32.2634C30.9506 30.9485 29.4296 29.0817 28.5374 26.9004C29.4805 27.4133 30.5359 27.6851 31.6096 27.6915C33.1294 27.6896 34.6022 27.164 35.7795 26.2032C36.9569 25.2424 37.767 23.9052 38.0731 22.417H40.9751C41.2813 23.9052 42.0913 25.2424 43.2687 26.2032C44.4461 27.164 45.9188 27.6896 47.4387 27.6915C48.5123 27.6851 49.5677 27.4133 50.5108 26.9004C49.6186 29.0817 48.0976 30.9485 46.1413 32.2634C44.1849 33.5783 41.8816 34.282 39.5241 34.2848V34.2848ZM47.4387 25.0543C46.656 25.0543 45.8909 24.8222 45.2401 24.3876C44.5894 23.9529 44.0821 23.335 43.7826 22.6122C43.4831 21.8893 43.4047 21.0939 43.5574 20.3266C43.7101 19.5592 44.087 18.8543 44.6405 18.3011C45.1939 17.7478 45.899 17.371 46.6666 17.2184C47.4343 17.0658 48.23 17.1441 48.9531 17.4435C49.6762 17.7429 50.2942 18.25 50.729 18.9005C51.1639 19.5511 51.396 20.3159 51.396 21.0983C51.396 22.1475 50.979 23.1537 50.2369 23.8956C49.4948 24.6375 48.4882 25.0543 47.4387 25.0543ZM51.396 14.5051V15.858C50.261 14.9853 48.8705 14.5099 47.4387 14.5051C45.9188 14.507 44.4461 15.0327 43.2687 15.9935C42.0913 16.9543 41.2813 18.2915 40.9751 19.7797H38.0731C37.767 18.2915 36.9569 16.9543 35.7795 15.9935C34.6022 15.0327 33.1294 14.507 31.6096 14.5051C30.1777 14.5099 28.7872 14.9853 27.6523 15.858V14.5051C27.6543 14.0511 27.6825 13.5976 27.7367 13.1469C33.4651 12.9416 39.1121 11.7251 44.4166 9.55358C46.2865 11.6794 48.6899 13.268 51.3788 14.1557C51.3814 14.273 51.396 14.3877 51.396 14.5051ZM35.5668 21.0983C35.5668 21.8807 35.3347 22.6456 34.8999 23.2961C34.4651 23.9467 33.847 24.4537 33.1239 24.7531C32.4008 25.0525 31.6052 25.1309 30.8375 24.9782C30.0699 24.8256 29.3648 24.4488 28.8113 23.8956C28.2579 23.3423 27.881 22.6375 27.7283 21.8701C27.5756 21.1027 27.654 20.3073 27.9535 19.5845C28.253 18.8616 28.7602 18.2438 29.411 17.8091C30.0618 17.3744 30.8269 17.1424 31.6096 17.1424C32.6591 17.1424 33.6656 17.5592 34.4078 18.3011C35.1499 19.0429 35.5668 20.0491 35.5668 21.0983ZM39.5241 2.63729C42.0865 2.64139 44.579 3.47304 46.6301 5.00832C48.6812 6.54359 50.1812 8.7003 50.9066 11.1571C48.9324 10.2662 47.2101 8.89972 45.894 7.18002C45.7157 6.91263 45.4459 6.71951 45.1353 6.63695C44.8246 6.55439 44.4945 6.58808 44.2069 6.73168C38.6957 9.48633 31.752 10.2511 28.3778 10.4648C29.2086 8.17492 30.7235 6.19578 32.7174 4.79562C34.7112 3.39545 37.0875 2.64197 39.5241 2.63729V2.63729Z" fill="#FFA849"/>
</svg>
