<svg width="70" height="70" viewBox="0 0 70 70" fill="none" xmlns="http://www.w3.org/2000/svg">
<path d="M32 28.5C32 27.61 31.7361 26.74 31.2416 25.9999C30.7471 25.2599 30.0443 24.6831 29.2221 24.3425C28.3998 24.0019 27.495 23.9128 26.6221 24.0865C25.7492 24.2601 24.9474 24.6887 24.318 25.318C23.6887 25.9474 23.2601 26.7492 23.0865 27.6221C22.9128 28.495 23.0019 29.3998 23.3425 30.2221C23.6831 31.0443 24.2599 31.7471 24.9999 32.2416C25.74 32.7361 26.61 33 27.5 33C28.6935 33 29.8381 32.5259 30.682 31.682C31.5259 30.8381 32 29.6935 32 28.5ZM27.5 30.75C27.055 30.75 26.62 30.618 26.25 30.3708C25.88 30.1236 25.5916 29.7722 25.4213 29.361C25.251 28.9499 25.2064 28.4975 25.2932 28.061C25.3801 27.6246 25.5943 27.2237 25.909 26.909C26.2237 26.5943 26.6246 26.3801 27.061 26.2932C27.4975 26.2064 27.9499 26.251 28.361 26.4213C28.7722 26.5916 29.1236 26.88 29.3708 27.25C29.618 27.62 29.75 28.055 29.75 28.5C29.75 29.0967 29.5129 29.669 29.091 30.091C28.669 30.5129 28.0967 30.75 27.5 30.75Z" fill="#FFA849"/>
<path d="M9.11048 42H15.7959V39.7777H10.6905C12.4365 34.9007 17.9664 19.5399 19.2545 16.9342C21.2643 12.8542 24.4538 9.46833 28.4115 7.21324C32.3693 4.95815 36.9139 3.93734 41.459 4.28247C42.4923 4.35721 43.5191 4.5035 44.532 4.72027L45 2.55349C43.8861 2.31461 42.7569 2.15347 41.6205 2.07124C36.6328 1.69475 31.6464 2.8166 27.3039 5.29221C22.9615 7.76781 19.462 11.4837 17.2567 15.9609C15.6711 19.1655 8.37063 39.6554 8.06087 40.5266C8.0031 40.6937 7.98612 40.8721 8.01134 41.047C8.03656 41.2219 8.10325 41.3883 8.20588 41.5324C8.30851 41.6764 8.44412 41.794 8.60144 41.8753C8.75877 41.9567 8.93328 41.9994 9.11048 42Z" fill="#FFA849"/>
<path d="M23 57.4169H27.4134V62.9028C27.4134 63.1938 27.5297 63.4729 27.7366 63.6786C27.9435 63.8844 28.2242 64 28.5168 64H56.1007C56.3933 64 56.674 63.8844 56.8809 63.6786C57.0878 63.4729 57.2041 63.1938 57.2041 62.9028V61.1396C57.3171 52.5314 59.0118 44.0162 62.2045 36.014C62.5125 35.2109 62.778 34.3924 63 33.5618L60.8661 33C60.6644 33.7559 60.4232 34.5008 60.1434 35.2317C56.8538 43.4834 55.1098 52.2639 54.9974 61.1396V61.8056H29.6201V57.4169H34.0148C35.2126 57.4129 36.3769 57.0231 37.3333 56.3059C38.2897 55.5886 38.9866 54.5826 39.3198 53.4385L42.8174 41.2596L40.6967 40.6562L37.198 52.835C36.998 53.5215 36.5798 54.1251 36.0059 54.5555C35.4321 54.9859 34.7336 55.2199 34.0148 55.2225H23V57.4169Z" fill="#FFA849"/>
<path d="M3.09524 68H16.7857C17.547 67.9995 18.2908 67.7732 18.9225 67.35C19.5542 66.9268 20.045 66.3258 20.3325 65.6237C20.62 64.9216 20.691 64.1501 20.5367 63.4076C20.3823 62.6651 20.0095 61.9852 19.4658 61.4545C19.8308 61.0995 20.121 60.6753 20.319 60.207C20.5171 59.7386 20.6191 59.2355 20.6191 58.7273C20.6191 58.219 20.5171 57.716 20.319 57.2476C20.121 56.7792 19.8308 56.355 19.4658 56C20.0359 55.4442 20.4178 54.7252 20.5582 53.943C20.6985 53.1608 20.5904 52.3544 20.2489 51.6364H21.1667C22.1833 51.6364 23.1584 51.2341 23.8772 50.518C24.5961 49.802 25 48.8308 25 47.8182C25 46.8055 24.5961 45.8344 23.8772 45.1183C23.1584 44.4023 22.1833 44 21.1667 44H7.47619C6.02435 44.0017 4.63247 44.577 3.60586 45.5995C2.57925 46.6221 2.00174 48.0084 2 49.4545V66.9091C2 67.1984 2.11539 67.4759 2.32079 67.6805C2.52618 67.8851 2.80476 68 3.09524 68ZM4.19048 49.4545C4.19048 48.5866 4.53665 47.7541 5.15284 47.1404C5.76903 46.5266 6.60476 46.1818 7.47619 46.1818H21.1667C21.6024 46.1818 22.0202 46.3542 22.3283 46.6611C22.6364 46.968 22.8095 47.3842 22.8095 47.8182C22.8095 48.2522 22.6364 48.6684 22.3283 48.9753C22.0202 49.2821 21.6024 49.4545 21.1667 49.4545H10.7619C10.4714 49.4545 10.1929 49.5695 9.98745 49.7741C9.78206 49.9786 9.66667 50.2561 9.66667 50.5455C9.66667 50.8348 9.78206 51.1123 9.98745 51.3168C10.1929 51.5214 10.4714 51.6364 10.7619 51.6364H16.7857C17.2214 51.6364 17.6393 51.8088 17.9474 52.1156C18.2555 52.4225 18.4286 52.8387 18.4286 53.2727C18.4286 53.7067 18.2555 54.1229 17.9474 54.4298C17.6393 54.7367 17.2214 54.9091 16.7857 54.9091H10.7619C10.4714 54.9091 10.1929 55.024 9.98745 55.2286C9.78206 55.4332 9.66667 55.7107 9.66667 56C9.66667 56.2893 9.78206 56.5668 9.98745 56.7714C10.1929 56.976 10.4714 57.0909 10.7619 57.0909H16.7857C17.2214 57.0909 17.6393 57.2633 17.9474 57.5702C18.2555 57.8771 18.4286 58.2933 18.4286 58.7273C18.4286 59.1613 18.2555 59.5775 17.9474 59.8844C17.6393 60.1912 17.2214 60.3636 16.7857 60.3636H10.7619C10.4714 60.3636 10.1929 60.4786 9.98745 60.6832C9.78206 60.8877 9.66667 61.1652 9.66667 61.4545C9.66667 61.7439 9.78206 62.0214 9.98745 62.2259C10.1929 62.4305 10.4714 62.5455 10.7619 62.5455H16.7857C17.2214 62.5455 17.6393 62.7179 17.9474 63.0247C18.2555 63.3316 18.4286 63.7478 18.4286 64.1818C18.4286 64.6158 18.2555 65.032 17.9474 65.3389C17.6393 65.6458 17.2214 65.8182 16.7857 65.8182H4.19048V49.4545Z" fill="#FFA849"/>
<path d="M37.9566 10.2515C37.2054 11.5409 36.8837 13.033 37.0375 14.5147C37.1913 15.9965 37.8128 17.3921 38.8131 18.5022C37.8128 19.6123 37.1913 21.0079 37.0375 22.4897C36.8837 23.9714 37.2054 25.4635 37.9566 26.7529C38.7285 28.0416 39.8852 29.0599 41.2661 29.6666C42.6471 30.2733 44.184 30.4384 45.6637 30.1389C46.1493 31.5565 47.0696 32.7876 48.2957 33.6594C49.5217 34.5312 50.992 35 52.5 35C54.0081 35 55.4783 34.5312 56.7043 33.6594C57.9304 32.7876 58.8507 31.5565 59.3363 30.1389C60.816 30.4389 62.3531 30.2741 63.7342 29.6673C65.1153 29.0605 66.2718 28.0419 67.0434 26.7529C67.7946 25.4635 68.1163 23.9714 67.9625 22.4897C67.8087 21.0079 67.1872 19.6123 66.1869 18.5022C67.1872 17.3921 67.8087 15.9965 67.9625 14.5147C68.1163 13.033 67.7946 11.5409 67.0434 10.2515C66.2719 8.96226 65.1155 7.94322 63.7345 7.33572C62.3535 6.72822 60.8164 6.56234 59.3363 6.86108C58.8507 5.4435 57.9304 4.21243 56.7043 3.34061C55.4783 2.4688 54.0081 2 52.5 2C50.992 2 49.5217 2.4688 48.2957 3.34061C47.0696 4.21243 46.1493 5.4435 45.6637 6.86108C44.1836 6.56167 42.6462 6.72724 41.2651 7.33481C39.884 7.94238 38.7276 8.96179 37.9566 10.2515ZM46.0571 9.26147C46.2127 9.32286 46.3804 9.34841 46.5474 9.33622C46.7144 9.32403 46.8765 9.2744 47.0214 9.19108C47.1663 9.10775 47.2903 8.99289 47.3841 8.85512C47.4779 8.71736 47.539 8.56029 47.5628 8.3957C47.7452 7.22548 48.3431 6.15863 49.2486 5.38797C50.1541 4.61732 51.3074 4.19371 52.5 4.19371C53.6926 4.19371 54.8459 4.61732 55.7514 5.38797C56.6569 6.15863 57.2549 7.22548 57.4372 8.3957C57.461 8.56029 57.5221 8.71736 57.6159 8.85512C57.7097 8.99289 57.8337 9.10775 57.9786 9.19108C58.1235 9.2744 58.2856 9.32403 58.4526 9.33622C58.6196 9.34841 58.7873 9.32286 58.9429 9.26147C60.0563 8.82348 61.2904 8.79327 62.4242 9.17624C63.5581 9.55921 64.5176 10.3304 65.131 11.3516C65.7236 12.3699 65.9243 13.567 65.6959 14.721C65.4676 15.875 64.8256 16.9077 63.889 17.6276C63.7551 17.7304 63.6467 17.8623 63.5722 18.0131C63.4976 18.164 63.4589 18.3298 63.4589 18.4978C63.4589 18.6658 63.4976 18.8316 63.5722 18.9825C63.6467 19.1333 63.7551 19.2652 63.889 19.368C64.8278 20.0883 65.4713 21.1226 65.6997 22.2786C65.9282 23.4346 65.7261 24.6336 65.131 25.6528C64.5179 26.6741 63.5586 27.4454 62.4249 27.8284C61.2913 28.2114 60.0573 28.1811 58.944 27.7429C58.7884 27.6815 58.6208 27.656 58.4537 27.6682C58.2867 27.6804 58.1247 27.73 57.9797 27.8133C57.8348 27.8967 57.7108 28.0115 57.617 28.1493C57.5232 28.287 57.4621 28.4441 57.4383 28.6087C57.256 29.7789 56.658 30.8458 55.7525 31.6164C54.847 32.3871 53.6937 32.8107 52.5011 32.8107C51.3085 32.8107 50.1552 32.3871 49.2497 31.6164C48.3442 30.8458 47.7463 29.7789 47.5639 28.6087C47.5261 28.3468 47.3945 28.1073 47.1933 27.9339C46.992 27.7606 46.7346 27.6651 46.4681 27.6648C46.3278 27.6651 46.1887 27.6916 46.0582 27.7429C44.9446 28.1812 43.7103 28.2116 42.5762 27.8286C41.4422 27.4456 40.4825 26.6743 39.869 25.6528C39.2779 24.635 39.0781 23.4392 39.3064 22.2864C39.5348 21.1337 40.1758 20.102 41.111 19.3823C41.2449 19.2795 41.3533 19.1476 41.4278 18.9968C41.5024 18.8459 41.5411 18.6801 41.5411 18.5121C41.5411 18.3441 41.5024 18.1783 41.4278 18.0274C41.3533 17.8766 41.2449 17.7447 41.111 17.6419C40.1708 16.9214 39.5264 15.8861 39.2979 14.7288C39.0694 13.5716 39.2724 12.3713 39.869 11.3516C40.4829 10.3309 41.4424 9.56013 42.5761 9.17722C43.7097 8.7943 44.9436 8.82417 46.0571 9.26147Z" fill="#FFA849"/>
<path d="M54 17H52V19H54V17Z" fill="#FFA849"/>
<path d="M49 17H47V19H49V17Z" fill="#FFA849"/>
<path d="M58 17H56V19H58V17Z" fill="#FFA849"/>
</svg>
