<svg width="70" height="70" viewBox="0 0 70 70" fill="none" xmlns="http://www.w3.org/2000/svg">
<path d="M2.11538 44H12.1538V41.6842H3.23077V2.31579H27.7692V4.63158H30V1.15789C30 0.850802 29.8825 0.556287 29.6733 0.339139C29.4641 0.121992 29.1804 0 28.8846 0H2.11538C1.81957 0 1.53586 0.121992 1.32669 0.339139C1.11751 0.556287 1 0.850802 1 1.15789V42.8421C1 43.1492 1.11751 43.4437 1.32669 43.6609C1.53586 43.878 1.81957 44 2.11538 44Z" fill="#FFA849"/>
<path d="M11.3548 6.28951L9.0215 5.12302C8.85957 5.04212 8.68103 5 8.5 5C8.31897 5 8.14043 5.04212 7.9785 5.12302L5.64517 6.28951C5.45123 6.38641 5.28813 6.53542 5.17417 6.71983C5.06021 6.90423 4.9999 7.11674 5 7.33351V9.66649C4.9999 9.88326 5.06021 10.0958 5.17417 10.2802C5.28813 10.4646 5.45123 10.6136 5.64517 10.7105L7.9785 11.877C8.14043 11.9579 8.31897 12 8.5 12C8.68103 12 8.85957 11.9579 9.0215 11.877L11.3548 10.7105C11.5488 10.6136 11.7119 10.4646 11.8258 10.2802C11.9398 10.0958 12.0001 9.88326 12 9.66649V7.33351C12.0001 7.11674 11.9398 6.90423 11.8258 6.71983C11.7119 6.53542 11.5488 6.38641 11.3548 6.28951ZM9.66667 8.9456L8.5 9.52884L7.33333 8.9456V8.0544L8.5 7.47116L9.66667 8.0544V8.9456Z" fill="#FFA849"/>
<path d="M14 8.15789V49.8421C14 50.1492 14.1166 50.4437 14.3243 50.6609C14.5319 50.878 14.8135 51 15.1071 51H43.8929C44.1865 51 44.4681 50.878 44.6757 50.6609C44.8834 50.4437 45 50.1492 45 49.8421V8.15789C45 7.8508 44.8834 7.55629 44.6757 7.33914C44.4681 7.12199 44.1865 7 43.8929 7H15.1071C14.8135 7 14.5319 7.12199 14.3243 7.33914C14.1166 7.55629 14 7.8508 14 8.15789ZM16.2143 9.31579H42.7857V48.6842H16.2143V9.31579Z" fill="#FFA849"/>
<path d="M35.922 23.129C35.8987 23.0595 35.8693 22.9926 35.8342 22.9293C35.8158 22.8973 35.7963 22.8666 35.7747 22.8359C35.7354 22.7804 35.6919 22.7286 35.6447 22.6811C35.6176 22.6551 35.5927 22.6279 35.5645 22.6042C35.5363 22.5806 35.5385 22.5771 35.5244 22.5664C35.4768 22.5351 35.4272 22.5075 35.376 22.4837C35.3554 22.473 35.3403 22.4565 35.3197 22.447L29.903 20.0833C29.644 19.9722 29.356 19.9722 29.097 20.0833L23.6803 22.447C23.6587 22.4565 23.6424 22.4742 23.6218 22.4849C23.5714 22.5083 23.5225 22.5355 23.4756 22.5664C23.4615 22.5771 23.4507 22.5924 23.4355 22.6042C23.4203 22.6161 23.3824 22.6551 23.3553 22.6811C23.3081 22.7286 23.2646 22.7804 23.2253 22.8359C23.2037 22.8666 23.1842 22.8973 23.1658 22.9293C23.1307 22.9926 23.1013 23.0595 23.078 23.129C23.0672 23.1597 23.0531 23.1904 23.0444 23.2224C23.016 23.3272 23.0011 23.4357 23 23.545V29.4544C22.9998 29.6906 23.0646 29.9215 23.1858 30.1172C23.3071 30.3129 23.4793 30.4645 23.6803 30.5524L29.097 32.9161C29.11 32.9161 29.1241 32.9161 29.1371 32.9244C29.3702 33.0252 29.6298 33.0252 29.8629 32.9244C29.8759 32.9244 29.89 32.9244 29.903 32.9161L35.3197 30.5524C35.5207 30.4645 35.6929 30.3129 35.8142 30.1172C35.9354 29.9215 36.0002 29.6906 36 29.4544V23.545C35.9989 23.4357 35.984 23.3272 35.9556 23.2224C35.9469 23.1904 35.9328 23.1597 35.922 23.129ZM29.5 22.4541L31.9992 23.545L29.5 24.6359L27.0008 23.545L29.5 22.4541ZM25.1667 25.2906L28.4167 26.7089V30.0725L25.1667 28.6543V25.2906ZM30.5833 30.0725V26.7089L33.8333 25.2906V28.6543L30.5833 30.0725Z" fill="#FFA849"/>
<path d="M66.8889 7H49.1111C48.8164 7 48.5338 7.12292 48.3254 7.34171C48.1171 7.5605 48 7.85725 48 8.16667V19.8333C48 20.1428 48.1171 20.4395 48.3254 20.6583C48.5338 20.8771 48.8164 21 49.1111 21H66.8889C67.1836 21 67.4662 20.8771 67.6746 20.6583C67.8829 20.4395 68 20.1428 68 19.8333V8.16667C68 7.85725 67.8829 7.5605 67.6746 7.34171C67.4662 7.12292 67.1836 7 66.8889 7ZM65.7778 18.6667H50.2222V9.33333H65.7778V18.6667Z" fill="#FFA849"/>
<path d="M54 12H52V14H54V12Z" fill="#FFA849"/>
<path d="M68 24.1667C68 23.8572 67.8829 23.5605 67.6746 23.3417C67.4662 23.1229 67.1836 23 66.8889 23H49.1111C48.8164 23 48.5338 23.1229 48.3254 23.3417C48.1171 23.5605 48 23.8572 48 24.1667V35.8333C48 36.1428 48.1171 36.4395 48.3254 36.6583C48.5338 36.8771 48.8164 37 49.1111 37H66.8889C67.1836 37 67.4662 36.8771 67.6746 36.6583C67.8829 36.4395 68 36.1428 68 35.8333V24.1667ZM65.7778 34.6667H50.2222V25.3333H65.7778V34.6667Z" fill="#FFA849"/>
<path d="M54 29H52V31H54V29Z" fill="#FFA849"/>
<path d="M64 29H57V31H64V29Z" fill="#FFA849"/>
<path d="M12 68.8571C12 69.1602 12.1185 69.4509 12.3295 69.6653C12.5405 69.8796 12.8266 70 13.125 70H37.875C38.1734 70 38.4595 69.8796 38.6705 69.6653C38.8815 69.4509 39 69.1602 39 68.8571V55.1429C39 54.8398 38.8815 54.5491 38.6705 54.3347C38.4595 54.1204 38.1734 54 37.875 54H13.125C12.8266 54 12.5405 54.1204 12.3295 54.3347C12.1185 54.5491 12 54.8398 12 55.1429V68.8571ZM14.25 56.2857H36.75V67.7143H14.25V56.2857Z" fill="#FFA849"/>
<path d="M66.875 54H42.125C41.8266 54 41.5405 54.1204 41.3295 54.3347C41.1185 54.5491 41 54.8398 41 55.1429V68.8571C41 69.1602 41.1185 69.4509 41.3295 69.6653C41.5405 69.8796 41.8266 70 42.125 70H66.875C67.1734 70 67.4595 69.8796 67.6705 69.6653C67.8815 69.4509 68 69.1602 68 68.8571V55.1429C68 54.8398 67.8815 54.5491 67.6705 54.3347C67.4595 54.1204 67.1734 54 66.875 54ZM43.25 56.2857H65.75V57.4286C65.75 57.7317 65.6315 58.0224 65.4205 58.2367C65.2095 58.451 64.9234 58.5714 64.625 58.5714H44.375C44.0766 58.5714 43.7905 58.451 43.5795 58.2367C43.3685 58.0224 43.25 57.7317 43.25 57.4286V56.2857ZM43.25 67.7143V60.6469C43.6103 60.7822 43.9909 60.8534 44.375 60.8571H64.625C65.0091 60.8534 65.3897 60.7822 65.75 60.6469V67.7143H43.25Z" fill="#FFA849"/>
<path d="M23.3548 59.2884L21.0215 58.1229C20.8596 58.0421 20.681 58 20.5 58C20.319 58 20.1404 58.0421 19.9785 58.1229L17.6452 59.2884C17.4512 59.3853 17.2881 59.5341 17.1742 59.7184C17.0602 59.9026 16.9999 60.115 17 60.3316V62.6626C16.9988 62.8802 17.0586 63.0937 17.1726 63.2791C17.2867 63.4645 17.4504 63.6143 17.6452 63.7116L19.9785 64.8771C20.1404 64.9579 20.319 65 20.5 65C20.681 65 20.8596 64.9579 21.0215 64.8771L23.3548 63.7116C23.5496 63.6143 23.7133 63.4645 23.8274 63.2791C23.9414 63.0937 24.0012 62.8802 24 62.6626V60.3316C24.0001 60.115 23.9398 59.9026 23.8258 59.7184C23.7119 59.5341 23.5488 59.3853 23.3548 59.2884ZM21.6667 61.9423L20.5 62.5251L19.3333 61.9423V61.0519L20.5 60.4691L21.6667 61.0519V61.9423Z" fill="#FFA849"/>
<path d="M48 63H46V65H48V63Z" fill="#FFA849"/>
<path d="M57 63H50V65H57V63Z" fill="#FFA849"/>
</svg>
