<svg width="70" height="70" viewBox="0 0 70 70" fill="none" xmlns="http://www.w3.org/2000/svg">
<path d="M35.0002 64.1668C51.1085 64.1668 64.1668 51.1085 64.1668 35.0002C64.1668 18.8919 51.1085 5.8335 35.0002 5.8335C18.8919 5.8335 5.8335 18.8919 5.8335 35.0002C5.8335 51.1085 18.8919 64.1668 35.0002 64.1668Z" stroke="#FFA849" stroke-width="2.5" stroke-linecap="round" stroke-linejoin="round"/>
<path d="M23.3333 8.75H26.25C20.5625 25.7833 20.5625 44.2167 26.25 61.25H23.3333" stroke="#FFA849" stroke-width="2.5" stroke-linecap="round" stroke-linejoin="round"/>
<path d="M43.75 8.75C49.4375 25.7833 49.4375 44.2167 43.75 61.25" stroke="#FFA849" stroke-width="2.5" stroke-linecap="round" stroke-linejoin="round"/>
<path d="M8.75 46.6667V43.75C25.7833 49.4375 44.2167 49.4375 61.25 43.75V46.6667" stroke="#FFA849" stroke-width="2.5" stroke-linecap="round" stroke-linejoin="round"/>
<path d="M8.75 26.25C25.7833 20.5625 44.2167 20.5625 61.25 26.25" stroke="#FFA849" stroke-width="2.5" stroke-linecap="round" stroke-linejoin="round"/>
</svg>
