<svg width="70" height="70" viewBox="0 0 70 70" fill="none" xmlns="http://www.w3.org/2000/svg">
<path fill-rule="evenodd" clip-rule="evenodd" d="M68.537 17.5877C67.7321 14.2077 65.3604 11.545 62.3486 10.6415C56.8897 9 34.9997 9 34.9997 9C34.9997 9 13.1103 9 7.6514 10.6415C4.63959 11.545 2.26793 14.2077 1.46298 17.5877C0 23.7158 0 36.4997 0 36.4997C0 36.4997 0 49.2842 1.46298 55.4116C2.26793 58.7916 4.63959 61.455 7.6514 62.3579C13.1103 64 34.9997 64 34.9997 64C34.9997 64 56.8897 64 62.3486 62.3579C65.3604 61.455 67.7321 58.7916 68.537 55.4116C70 49.2842 70 36.4997 70 36.4997C70 36.4997 70 23.7158 68.537 17.5877Z" fill="#FFA849"/>
<path fill-rule="evenodd" clip-rule="evenodd" d="M28 49L46 37.0007L28 25V49Z" fill="#FFFFFE"/>
</svg>
