<svg width="70" height="70" viewBox="0 0 70 70" fill="none" xmlns="http://www.w3.org/2000/svg">
<path d="M27.3 37.1671C25.7833 37.1665 24.3127 37.6893 23.1356 38.6473C21.9585 39.6054 21.1468 40.9403 20.8369 42.4275C20.5271 43.9146 20.738 45.4633 21.4343 46.813C22.1306 48.1627 23.2697 49.231 24.66 49.8381L25.54 47.8196C24.6122 47.4153 23.8519 46.7032 23.387 45.8031C22.9222 44.9029 22.7812 43.8699 22.9879 42.8778C23.1945 41.8858 23.7362 40.9953 24.5216 40.3566C25.307 39.7178 26.2883 39.3696 27.3 39.3707C27.9062 39.3706 28.5057 39.4974 29.06 39.7432C29.2274 39.8163 29.4103 39.8466 29.5922 39.8313C29.7742 39.8159 29.9495 39.7555 30.1023 39.6553C30.2551 39.5552 30.3806 39.4185 30.4675 39.2576C30.5544 39.0968 30.5999 38.9168 30.6 38.7339V30.6476H36.1935C36.1309 31.0115 36.0996 31.3801 36.1 31.7494C36.1032 33.2725 36.6299 34.748 37.5914 35.9279C38.553 37.1078 39.8909 37.9201 41.38 38.2281L41.82 36.0697C40.8272 35.8639 39.9354 35.3222 39.2944 34.5354C38.6533 33.7487 38.3022 32.7649 38.3 31.7494C38.2998 31.1422 38.4265 30.5417 38.6718 29.9865C38.7448 29.8188 38.7751 29.6356 38.7598 29.4534C38.7445 29.2711 38.6841 29.0955 38.5841 28.9425C38.4841 28.7894 38.3477 28.6637 38.1871 28.5767C38.0265 28.4896 37.8468 28.444 37.6642 28.4439H30.6V22.8411C30.9633 22.9038 31.3313 22.9351 31.7 22.9348C33.4504 22.9348 35.1292 22.2382 36.3669 20.9984C37.6046 19.7586 38.3 18.0771 38.3 16.3238C38.3 14.5704 37.6046 12.8889 36.3669 11.6491C35.1292 10.4093 33.4504 9.7128 31.7 9.7128C31.3313 9.71241 30.9633 9.74375 30.6 9.80646V4.20366H49.3C50.7582 4.20541 52.1561 4.7864 53.1872 5.81918C54.2182 6.85197 54.7983 8.25222 54.8 9.7128V28.4439H47.7358C47.5532 28.444 47.3735 28.4896 47.2129 28.5767C47.0523 28.6637 46.9159 28.7894 46.8159 28.9425C46.7159 29.0955 46.6555 29.2711 46.6402 29.4534C46.6249 29.6356 46.6552 29.8188 46.7282 29.9865C46.9735 30.5417 47.1002 31.1422 47.1 31.7494H49.3C49.3004 31.3801 49.2691 31.0115 49.2065 30.6476H55.9C56.1917 30.6476 56.4715 30.5315 56.6778 30.3248C56.8841 30.1182 57 29.8379 57 29.5457V9.7128C56.9974 7.66805 56.1853 5.70779 54.7418 4.26193C53.2984 2.81606 51.3414 2.00262 49.3 2H9.7C7.65864 2.00262 5.70163 2.81606 4.25817 4.26193C2.81471 5.70779 2.00262 7.66805 2 9.7128V49.2872C2.00262 51.332 2.81471 53.2922 4.25817 54.7381C5.70163 56.1839 7.65864 56.9974 9.7 57H21.8V54.7963H9.7C8.24185 54.7946 6.84391 54.2136 5.81284 53.1808C4.78177 52.148 4.20175 50.7478 4.2 49.2872V30.6476H11.2642C11.451 30.6339 11.6318 30.576 11.7919 30.4787C11.952 30.3814 12.0867 30.2475 12.1851 30.0879C12.2834 29.9283 12.3426 29.7476 12.3576 29.5606C12.3727 29.3737 12.3433 29.1858 12.2718 29.0124C11.9775 28.3416 11.8548 27.6079 11.9148 26.8776C11.9749 26.1473 12.2157 25.4435 12.6157 24.83C13.0156 24.2164 13.5619 23.7124 14.2052 23.3635C14.8485 23.0147 15.5685 22.832 16.3 22.832C17.0315 22.832 17.7515 23.0147 18.3948 23.3635C19.0381 23.7124 19.5844 24.2164 19.9844 24.83C20.3843 25.4435 20.6251 26.1473 20.6852 26.8776C20.7452 27.6079 20.6225 28.3416 20.3282 29.0124C20.2459 29.185 20.2081 29.3754 20.2183 29.5663C20.2285 29.7573 20.2864 29.9426 20.3867 30.1053C20.487 30.268 20.6264 30.4029 20.7922 30.4977C20.958 30.5924 21.1449 30.6439 21.3358 30.6476H28.4V37.2585C28.0366 37.1966 27.6686 37.166 27.3 37.1671ZM9.7 4.20366H28.4V11.2796C28.4001 11.4625 28.4456 11.6425 28.5325 11.8034C28.6194 11.9642 28.7449 12.1009 28.8977 12.201C29.0505 12.3012 29.2258 12.3617 29.4078 12.377C29.5897 12.3923 29.7726 12.362 29.94 12.2889C30.4943 12.0432 31.0938 11.9163 31.7 11.9165C32.867 11.9165 33.9861 12.3808 34.8113 13.2073C35.6364 14.0339 36.1 15.1549 36.1 16.3238C36.1 17.4927 35.6364 18.6137 34.8113 19.4402C33.9861 20.2668 32.867 20.7311 31.7 20.7311C31.0938 20.7313 30.4943 20.6044 29.94 20.3587C29.7726 20.2855 29.5897 20.2552 29.4078 20.2706C29.2258 20.2859 29.0505 20.3464 28.8977 20.4465C28.7449 20.5466 28.6194 20.6833 28.5325 20.8442C28.4456 21.005 28.4001 21.185 28.4 21.368V28.3524H22.8142C22.8693 28.0184 22.898 27.6806 22.9 27.3421C22.9 27.3222 22.9 27.3046 22.9 27.2848C22.9 27.2649 22.9 27.2616 22.9 27.2506C22.9 25.4973 22.2046 23.8157 20.9669 22.576C19.7292 21.3362 18.0504 20.6396 16.3 20.6396C14.5496 20.6396 12.8708 21.3362 11.6331 22.576C10.3954 23.8157 9.7 25.4973 9.7 27.2506C9.7 27.2616 9.7 27.2738 9.7 27.2848C9.7 27.2958 9.7 27.3222 9.7 27.3421C9.70202 27.6806 9.73071 28.0184 9.7858 28.3524H4.2V9.7128C4.20175 8.25222 4.78177 6.85197 5.81284 5.81918C6.84391 4.7864 8.24185 4.20541 9.7 4.20366Z" fill="#FFA849"/>
<path d="M65.6239 49.4372L56.2852 43.1218L52.6983 33.7104C52.6455 33.571 52.5642 33.4437 52.4595 33.3363C52.3547 33.2289 52.2287 33.1437 52.0892 33.0859C51.9497 33.028 51.7997 32.9988 51.6482 33C51.4968 33.0012 51.3472 33.0329 51.2087 33.0929L43.9883 36.2293C43.7277 36.3424 43.5213 36.5494 43.4117 36.8077C43.3022 37.0659 43.2978 37.3557 43.3996 37.617C43.5195 37.9225 43.6317 38.1537 43.7506 38.3937C43.8695 38.6337 43.9794 38.8585 44.1138 39.213C44.5281 40.3 44.4873 41.5037 44.0004 42.5612C43.5135 43.6187 42.6202 44.4439 41.5156 44.8564C40.8237 45.1106 40.0782 45.1913 39.3465 45.0913C38.6148 44.9913 37.92 44.7137 37.3251 44.2836C36.7301 43.8535 36.2537 43.2845 35.939 42.6282C35.6243 41.9718 35.4812 41.2487 35.5227 40.5243C35.5324 40.3432 35.496 40.1626 35.4167 39.9988C35.3375 39.835 35.2179 39.6932 35.0688 39.5862C34.9197 39.4792 34.7458 39.4104 34.5628 39.386C34.3799 39.3616 34.1936 39.3824 34.0209 39.4465L26.3028 42.3014C26.0276 42.4033 25.8047 42.6082 25.6831 42.8712C25.5615 43.1342 25.5511 43.4338 25.6541 43.7044L28.4245 50.9732C28.0572 51.0389 27.6966 51.1368 27.347 51.2656C26.4801 51.5829 25.6898 52.0735 25.0262 52.7064C24.3625 53.3393 23.8399 54.1008 23.4916 54.9424C23.1433 55.7841 22.9768 56.6876 23.0026 57.5958C23.0285 58.5039 23.2461 59.3969 23.6418 60.2181C24.0375 61.0394 24.6025 61.7709 25.3012 62.3664C25.9998 62.9619 26.8168 63.4085 27.7003 63.6776C28.5839 63.9468 29.5147 64.0328 30.4339 63.9302C31.3531 63.8276 32.2405 63.5386 33.04 63.0815L35.0262 68.2918C35.0774 68.4261 35.1551 68.5492 35.2548 68.654C35.3545 68.7587 35.4743 68.8432 35.6073 68.9025C35.7403 68.9618 35.8839 68.9947 36.0299 68.9994C36.1758 69.0041 36.3213 68.9805 36.458 68.93L47.4641 64.8575C47.8062 65.5796 48.2946 66.2256 48.8994 66.7561C49.5043 67.2865 50.213 67.6903 50.9821 67.9427L51.6841 65.8699C50.7686 65.5669 50.0076 64.9283 49.5602 64.0873L52.9094 62.8491C53.4463 64.332 54.4379 65.6151 55.7478 66.5218C57.0578 67.4285 58.6216 67.9142 60.2242 67.9121V65.7303C58.7539 65.7214 57.3465 65.1439 56.3068 64.1228C55.2671 63.1018 54.6791 61.7195 54.67 60.2756C54.67 59.9863 54.5529 59.7089 54.3446 59.5043L50.4767 55.7057C50.1992 55.4308 50.0312 55.0673 50.0033 54.6812C49.9753 54.2951 50.0893 53.9119 50.3245 53.6013C50.4643 53.416 50.6436 53.2628 50.8498 53.1524C51.056 53.042 51.2843 52.977 51.5186 52.962C51.7532 52.9426 51.9892 52.9746 52.2097 53.0555C52.4302 53.1364 52.6297 53.2643 52.7939 53.43L60.5497 61.0469L62.1204 59.5043L59.8254 57.2505C60.3908 55.5899 60.3559 53.7886 59.7265 52.1504L57.6449 46.6903L64.3576 51.2296C64.7961 51.5319 65.154 51.9333 65.4013 52.4C65.6486 52.8667 65.7779 53.385 65.7783 53.9111V68.0027H68V53.9111C67.9992 53.0327 67.7829 52.1675 67.3693 51.3887C66.9556 50.6099 66.357 49.9405 65.6239 49.4372ZM57.9703 55.4275L54.3646 51.8874C54.0078 51.5281 53.582 51.2419 53.1117 51.0455C52.6415 50.849 52.1362 50.7463 51.6252 50.7431C51.1142 50.7399 50.6076 50.8364 50.1348 51.027C49.6621 51.2176 49.2326 51.4985 48.8713 51.8534C48.5099 52.2082 48.2239 52.6301 48.0298 53.0943C47.8358 53.5586 47.7375 54.0561 47.7407 54.5579C47.744 55.0598 47.8486 55.556 48.0486 56.0179C48.2487 56.4797 48.5401 56.8979 48.906 57.2483L52.4195 60.6989L36.7213 66.5059L34.604 60.9498C34.5392 60.7799 34.4321 60.6285 34.2927 60.5095C34.1532 60.3904 33.9857 60.3074 33.8053 60.268C33.7262 60.2507 33.6454 60.2419 33.5643 60.2418C33.2737 60.2415 32.9945 60.3532 32.7867 60.5527C32.3097 60.9953 31.7388 61.3286 31.1151 61.5287C30.4913 61.7289 29.8301 61.7908 29.1791 61.7101C28.528 61.6295 27.9032 61.4082 27.3496 61.0622C26.796 60.7161 26.3273 60.254 25.9772 59.7089C25.6271 59.1639 25.4043 58.5494 25.3247 57.9097C25.2452 57.27 25.3109 56.6209 25.5172 56.0091C25.7234 55.3973 26.0651 54.838 26.5177 54.3713C26.9702 53.9046 27.5224 53.5422 28.1346 53.31C28.4882 53.1813 28.8576 53.0991 29.2332 53.0656C29.4642 53.0379 29.6973 53.0302 29.9297 53.0427C30.1138 53.0522 30.2974 53.0166 30.4639 52.939C30.6305 52.8614 30.7747 52.7443 30.8837 52.5983C30.9927 52.4523 31.063 52.282 31.0882 52.1026C31.1135 51.9233 31.0929 51.7406 31.0283 51.5711L28.1268 43.9629L33.4166 42.0069C33.5996 42.9427 33.9884 43.8279 34.5559 44.6008C35.1233 45.3737 35.8558 46.0156 36.7021 46.4816C37.5483 46.9477 38.488 47.2266 39.4555 47.299C40.4229 47.3714 41.3948 47.2355 42.3032 46.9008C43.9577 46.2843 45.2964 45.0495 46.0264 43.4663C46.7565 41.8832 46.8185 40.0806 46.1989 38.4526C46.0967 38.1843 46.0045 37.9715 45.9156 37.7817L51.0254 35.5595L57.646 52.9151C57.9528 53.7161 58.0639 54.5767 57.9703 55.4275Z" fill="#FFA849"/>
</svg>
