<svg width="80" height="80" viewBox="0 0 80 80" fill="none" xmlns="http://www.w3.org/2000/svg">
<path d="M46.8379 32.7111L55.0756 28.656C56.4662 27.9715 57.6235 26.902 58.4052 25.5788C59.187 24.2557 59.559 22.7365 59.4757 21.208C59.3924 19.6795 58.8573 18.2082 57.9363 16.975C57.0153 15.7418 55.7483 14.8004 54.2913 14.2664L46.0688 10.8689C45.9119 10.8033 45.7433 10.7694 45.5729 10.7692H44.3079V2.05127H41.7779V5.78753H39.2479V2.05127H36.7179V10.7692H35.4529C35.2825 10.7694 35.1139 10.8033 34.957 10.8689L26.7915 14.2439C25.3254 14.7689 24.0477 15.7054 23.1164 16.9377C22.1851 18.1699 21.6411 19.6439 21.5516 21.1773C21.4621 22.7107 21.831 24.2363 22.6128 25.5655C23.3946 26.8946 24.5549 27.9691 25.9502 28.656L34.1879 32.7111V33.1868C34.1926 34.5387 34.6486 35.8515 35.4858 36.9231H35.4529C33.776 36.925 32.1684 37.5817 30.9827 38.7491C29.797 39.9165 29.1299 41.4992 29.1279 43.1502V55.6044C29.1279 55.9347 29.2612 56.2515 29.4984 56.485C29.7357 56.7186 30.0574 56.8498 30.3929 56.8498H34.1879V66.4396L31.8704 69.862C31.7443 70.0495 31.6722 70.2671 31.6616 70.4918C31.651 70.7164 31.7024 70.9397 31.8103 71.1379C31.9183 71.3361 32.0787 71.5018 32.2746 71.6175C32.4705 71.7332 32.6945 71.7944 32.9229 71.7949H48.1029C48.3319 71.7949 48.5566 71.7337 48.7531 71.6179C48.9496 71.502 49.1104 71.3358 49.2185 71.137C49.3265 70.9382 49.3777 70.7142 49.3666 70.489C49.3555 70.2638 49.2825 70.0458 49.1554 69.8582L46.8379 66.4396V56.8498H50.6329C50.9684 56.8498 51.2901 56.7186 51.5274 56.485C51.7646 56.2515 51.8979 55.9347 51.8979 55.6044V43.1502C51.8979 42.3324 51.7343 41.5227 51.4164 40.7672C51.0986 40.0117 50.6327 39.3252 50.0453 38.7469C49.458 38.1687 48.7607 37.71 47.9934 37.3971C47.226 37.0841 46.4035 36.9231 45.5729 36.9231H45.54C46.3772 35.8515 46.8332 34.5387 46.8379 33.1868V32.7111ZM36.327 26.0642C36.236 25.9763 36.1319 25.9024 36.0184 25.845L29.4467 22.6069C29.3426 22.5555 29.2567 22.4743 29.2003 22.374C29.1439 22.2737 29.1196 22.159 29.1305 22.0448C29.1414 21.9307 29.1871 21.8224 29.2616 21.7343C29.3361 21.6461 29.4359 21.5822 29.5479 21.5508L35.0165 20.0127C35.5561 20.9836 36.3512 21.7937 37.3182 22.358C38.2853 22.9224 39.3887 23.2201 40.5129 23.2201C41.6371 23.2201 42.7405 22.9224 43.7076 22.358C44.6746 21.7937 45.4697 20.9836 46.0093 20.0127L51.4779 21.5508C51.5898 21.5823 51.6895 21.6464 51.7639 21.7346C51.8382 21.8229 51.8838 21.9311 51.8946 22.0453C51.9054 22.1594 51.8809 22.2741 51.8244 22.3743C51.7679 22.4745 51.6819 22.5556 51.5778 22.6069L45.0074 25.845C44.8939 25.9024 44.7898 25.9763 44.6988 26.0642C43.554 25.0377 42.0613 24.4687 40.5129 24.4687C38.9645 24.4687 37.4718 25.0377 36.327 26.0642V26.0642ZM56.9579 21.628C56.9612 22.6254 56.6807 23.6036 56.1481 24.452C55.6155 25.3004 54.8522 25.9849 53.9446 26.4279L46.8379 29.9263V27.7294L52.7087 24.8425C53.2271 24.59 53.663 24.1993 53.9669 23.7149C54.2708 23.2305 54.4305 22.6719 54.4279 22.1026C54.4258 21.4379 54.2051 20.7917 53.7987 20.2609C53.3923 19.7302 52.8221 19.3433 52.1736 19.1584L46.7721 17.639C46.8056 17.4261 46.8276 17.2115 46.8379 16.9963V13.8828L53.3703 16.5804C54.4211 16.9591 55.3286 17.6463 55.9701 18.5489C56.6117 19.4516 56.9564 20.5263 56.9579 21.628V21.628ZM39.2479 8.27838H41.7779V10.7692H39.2479V8.27838ZM36.7179 13.2601H44.3079V16.9963C44.3079 17.9872 43.9081 18.9376 43.1964 19.6383C42.4847 20.3389 41.5194 20.7326 40.5129 20.7326C39.5064 20.7326 38.5411 20.3389 37.8294 19.6383C37.1177 18.9376 36.7179 17.9872 36.7179 16.9963V13.2601ZM24.0679 21.628C24.0733 20.5173 24.4261 19.4351 25.0781 18.5287C25.7302 17.6222 26.6499 16.9354 27.7124 16.5617L34.1879 13.8828V16.9963C34.1982 17.2115 34.2202 17.4261 34.2537 17.639L28.8534 19.1584C28.2047 19.3431 27.6343 19.7298 27.2276 20.2606C26.821 20.7914 26.6001 21.4377 26.5979 22.1026C26.5953 22.6717 26.7549 23.2302 27.0585 23.7146C27.3622 24.1989 27.7978 24.5897 28.3158 24.8425L34.1879 27.7294V29.9263L27.0812 26.4279C26.1736 25.9849 25.4103 25.3004 24.8777 24.452C24.3451 23.6036 24.0646 22.6254 24.0679 21.628V21.628ZM31.6579 54.359V51.8681H34.1879V54.359H31.6579ZM41.7779 69.304V56.8498H39.2479V69.304H35.2872L36.5054 67.5044C36.6436 67.2995 36.7175 67.0591 36.7179 66.8132V54.359H44.3079V66.8132C44.3083 67.0591 44.3822 67.2995 44.5204 67.5044L45.7386 69.304H41.7779ZM49.3679 54.359H46.8379V51.8681H49.3679V54.359ZM49.3679 43.1502V49.3773H46.8379V43.1502C46.8379 42.8199 46.7046 42.5031 46.4674 42.2695C46.2301 42.036 45.9084 41.9048 45.5729 41.9048C45.2374 41.9048 44.9156 42.036 44.6784 42.2695C44.4412 42.5031 44.3079 42.8199 44.3079 43.1502V51.8681H36.7179V43.1502C36.7179 42.8199 36.5846 42.5031 36.3474 42.2695C36.1102 42.036 35.7884 41.9048 35.4529 41.9048C35.1174 41.9048 34.7957 42.036 34.5584 42.2695C34.3212 42.5031 34.1879 42.8199 34.1879 43.1502V49.3773H31.6579V43.1502C31.6579 42.1593 32.0577 41.2089 32.7694 40.5082C33.4811 39.8076 34.4464 39.4139 35.4529 39.4139H39.2479V49.3773H41.7779V39.4139H45.5729C46.5794 39.4139 47.5447 39.8076 48.2564 40.5082C48.9681 41.2089 49.3679 42.1593 49.3679 43.1502ZM36.7179 33.1868V30.696C36.7179 29.705 37.1177 28.7547 37.8294 28.054C38.5411 27.3533 39.5064 26.9597 40.5129 26.9597C41.5194 26.9597 42.4847 27.3533 43.1964 28.054C43.9081 28.7547 44.3079 29.705 44.3079 30.696V33.1868C44.3079 34.1777 43.9081 35.1281 43.1964 35.8287C42.4847 36.5294 41.5194 36.9231 40.5129 36.9231C39.5064 36.9231 38.5411 36.5294 37.8294 35.8287C37.1177 35.1281 36.7179 34.1777 36.7179 33.1868Z" fill="#FFA849"/>
<path d="M3.30483 62.0244H7.06551V71.5844L4.76899 74.9925C4.64303 75.1795 4.57069 75.3968 4.55968 75.6213C4.54867 75.8459 4.5994 76.0691 4.70647 76.2673C4.81354 76.4655 4.97292 76.6312 5.16761 76.7467C5.3623 76.8622 5.585 76.9232 5.81195 76.9231H20.8547C21.0816 76.9232 21.3043 76.8622 21.499 76.7467C21.6937 76.6312 21.8531 76.4655 21.9602 76.2673C22.0672 76.0691 22.118 75.8459 22.107 75.6213C22.096 75.3968 22.0236 75.1795 21.8977 74.9925L19.6011 71.5844V62.0244H23.3618C23.6943 62.0244 24.0131 61.8935 24.2482 61.6607C24.4833 61.4279 24.6154 61.1121 24.6154 60.7828V48.3671C24.6154 46.7207 23.955 45.1417 22.7796 43.9775C21.6041 42.8133 20.0099 42.1593 18.3476 42.1593H18.315C19.1446 41.0911 19.5965 39.7823 19.6011 38.4346V35.9515C19.6011 34.3051 18.9408 32.7261 17.7653 31.5619C16.5899 30.3977 14.9956 29.7437 13.3333 29.7437C11.671 29.7437 10.0768 30.3977 8.90131 31.5619C7.72587 32.7261 7.06551 34.3051 7.06551 35.9515V38.4346C7.07012 39.7823 7.52205 41.0911 8.35167 42.1593H8.31908C6.65736 42.1613 5.06428 42.8159 3.88927 43.9797C2.71426 45.1435 2.05326 46.7213 2.05127 48.3671V60.7828C2.05127 61.1121 2.18334 61.4279 2.41843 61.6607C2.65352 61.8935 2.97237 62.0244 3.30483 62.0244ZM4.55839 59.5412V57.0581H7.06551V59.5412H4.55839ZM14.5869 74.44V62.0244H12.0798V74.44H8.15486L9.36204 72.6459C9.499 72.4417 9.57225 72.2021 9.57264 71.9569V59.5412H17.094V71.9569C17.0944 72.2021 17.1676 72.4417 17.3046 72.6459L18.5118 74.44H14.5869ZM22.1082 59.5412H19.6011V57.0581H22.1082V59.5412ZM9.57264 38.4346V35.9515C9.57264 34.9636 9.96885 34.0162 10.6741 33.3177C11.3794 32.6192 12.3359 32.2268 13.3333 32.2268C14.3307 32.2268 15.2873 32.6192 15.9925 33.3177C16.6978 34.0162 17.094 34.9636 17.094 35.9515V38.4346C17.094 39.4225 16.6978 40.3699 15.9925 41.0684C15.2873 41.7669 14.3307 42.1593 13.3333 42.1593C12.3359 42.1593 11.3794 41.7669 10.6741 41.0684C9.96885 40.3699 9.57264 39.4225 9.57264 38.4346V38.4346ZM4.55839 48.3671C4.55839 47.3793 4.95461 46.4319 5.65987 45.7334C6.36514 45.0349 7.32168 44.6424 8.31908 44.6424H12.0798V54.575H14.5869V44.6424H18.3476C19.345 44.6424 20.3015 45.0349 21.0068 45.7334C21.712 46.4319 22.1082 47.3793 22.1082 48.3671V54.575H19.6011V48.3671C19.6011 48.0379 19.4691 47.7221 19.234 47.4892C18.9989 47.2564 18.68 47.1256 18.3476 47.1256C18.0151 47.1256 17.6963 47.2564 17.4612 47.4892C17.2261 47.7221 17.094 48.0379 17.094 48.3671V57.0581H9.57264V48.3671C9.57264 48.0379 9.44057 47.7221 9.20548 47.4892C8.97039 47.2564 8.65154 47.1256 8.31908 47.1256C7.98661 47.1256 7.66776 47.2564 7.43267 47.4892C7.19759 47.7221 7.06551 48.0379 7.06551 48.3671V54.575H4.55839V48.3671Z" fill="#FFA849"/>
<path d="M57.0767 74.9925C56.9507 75.1795 56.8784 75.3968 56.8674 75.6213C56.8564 75.8459 56.9071 76.0691 57.0142 76.2673C57.1212 76.4655 57.2806 76.6312 57.4753 76.7467C57.67 76.8622 57.8927 76.9232 58.1196 76.9231H73.1624C73.3893 76.9232 73.612 76.8622 73.8067 76.7467C74.0014 76.6312 74.1608 76.4655 74.2679 76.2673C74.3749 76.0691 74.4257 75.8459 74.4147 75.6213C74.4036 75.3968 74.3313 75.1795 74.2053 74.9925L71.9088 71.5844V62.0244H75.6695C76.002 62.0244 76.3208 61.8935 76.5559 61.6607C76.791 61.4279 76.9231 61.1121 76.9231 60.7828V48.3671C76.9231 46.7207 76.2627 45.1417 75.0873 43.9775C73.9118 42.8133 72.3176 42.1593 70.6553 42.1593H70.6227C71.4523 41.0911 71.9042 39.7823 71.9088 38.4346V35.9515C71.9088 34.3051 71.2485 32.7261 70.073 31.5619C68.8976 30.3977 67.3033 29.7437 65.641 29.7437C63.9787 29.7437 62.3844 30.3977 61.209 31.5619C60.0336 32.7261 59.3732 34.3051 59.3732 35.9515V38.4346C59.3778 39.7823 59.8297 41.0911 60.6594 42.1593H60.6268C58.9651 42.1613 57.372 42.8159 56.197 43.9797C55.022 45.1435 54.361 46.7213 54.359 48.3671V60.7828C54.359 61.1121 54.491 61.4279 54.7261 61.6607C54.9612 61.8935 55.2801 62.0244 55.6125 62.0244H59.3732V71.5844L57.0767 74.9925ZM66.8946 74.44V62.0244H64.3875V74.44H60.4626L61.6697 72.6459C61.8067 72.4417 61.8799 72.2021 61.8803 71.9569V59.5412H69.4017V71.9569C69.4021 72.2021 69.4753 72.4417 69.6123 72.6459L70.8195 74.44H66.8946ZM74.4159 59.5412H71.9088V57.0581H74.4159V59.5412ZM61.8803 38.4346V35.9515C61.8803 34.9636 62.2765 34.0162 62.9818 33.3177C63.6871 32.6192 64.6436 32.2268 65.641 32.2268C66.6384 32.2268 67.595 32.6192 68.3002 33.3177C69.0055 34.0162 69.4017 34.9636 69.4017 35.9515V38.4346C69.4017 39.4225 69.0055 40.3699 68.3002 41.0684C67.595 41.7669 66.6384 42.1593 65.641 42.1593C64.6436 42.1593 63.6871 41.7669 62.9818 41.0684C62.2765 40.3699 61.8803 39.4225 61.8803 38.4346V38.4346ZM56.8661 48.3671C56.8661 47.3793 57.2623 46.4319 57.9676 45.7334C58.6728 45.0349 59.6294 44.6424 60.6268 44.6424H64.3875V54.575H66.8946V44.6424H70.6553C71.6527 44.6424 72.6092 45.0349 73.3145 45.7334C74.0197 46.4319 74.4159 47.3793 74.4159 48.3671V54.575H71.9088V48.3671C71.9088 48.0379 71.7768 47.7221 71.5417 47.4892C71.3066 47.2564 70.9877 47.1256 70.6553 47.1256C70.3228 47.1256 70.0039 47.2564 69.7689 47.4892C69.5338 47.7221 69.4017 48.0379 69.4017 48.3671V57.0581H61.8803V48.3671C61.8803 48.0379 61.7483 47.7221 61.5132 47.4892C61.2781 47.2564 60.9592 47.1256 60.6268 47.1256C60.2943 47.1256 59.9755 47.2564 59.7404 47.4892C59.5053 47.7221 59.3732 48.0379 59.3732 48.3671V54.575H56.8661V48.3671ZM56.8661 59.5412V57.0581H59.3732V59.5412H56.8661Z" fill="#FFA849"/>
<path d="M41.0256 16.4102H38.9743V18.4614H41.0256V16.4102Z" fill="#FFA849"/>
<path d="M48.2051 74.8716H32.8205V76.9229H48.2051V74.8716Z" fill="#FFA849"/>
</svg>
