<svg width="60" height="60" viewBox="0 0 60 60" fill="none" xmlns="http://www.w3.org/2000/svg">
<path d="M29.5 26C30.5878 26 31.6512 25.6774 32.5556 25.0731C33.4601 24.4687 34.1651 23.6098 34.5813 22.6048C34.9976 21.5998 35.1065 20.4939 34.8943 19.427C34.6821 18.3601 34.1583 17.3801 33.3891 16.6109C32.6199 15.8417 31.6399 15.3179 30.573 15.1057C29.5061 14.8935 28.4002 15.0024 27.3952 15.4187C26.3902 15.8349 25.5313 16.5399 24.9269 17.4444C24.3226 18.3488 24 19.4122 24 20.5C24.0015 21.9582 24.5814 23.3563 25.6125 24.3875C26.6437 25.4186 28.0418 25.9985 29.5 26ZM29.5 16.8333C30.2252 16.8333 30.9341 17.0484 31.5371 17.4513C32.1401 17.8542 32.61 18.4268 32.8876 19.0968C33.1651 19.7668 33.2377 20.5041 33.0962 21.2153C32.9547 21.9266 32.6055 22.5799 32.0927 23.0927C31.5799 23.6055 30.9266 23.9547 30.2153 24.0962C29.5041 24.2377 28.7668 24.1651 28.0968 23.8876C27.4268 23.61 26.8542 23.1401 26.4513 22.5371C26.0484 21.9341 25.8333 21.2252 25.8333 20.5C25.8333 19.5275 26.2196 18.5949 26.9073 17.9073C27.5949 17.2196 28.5275 16.8333 29.5 16.8333Z" fill="#FFA849"/>
<path d="M21.1596 46C21.2599 45.9998 21.3596 45.9837 21.4548 45.9523C21.6194 45.8973 21.7654 45.7976 21.8766 45.6641C21.9878 45.5307 22.0597 45.3689 22.0843 45.1968L22.7895 40.2501C22.8214 40.0272 22.9324 39.8234 23.102 39.6758C23.2717 39.5283 23.4887 39.447 23.7133 39.4468H26.5584L25.8485 43.0043C25.8208 43.1403 25.8236 43.2808 25.8568 43.4156C25.8899 43.5504 25.9526 43.6761 26.0402 43.7837C26.1278 43.8912 26.2382 43.9778 26.3634 44.0373C26.4885 44.0968 26.6253 44.1277 26.7639 44.1277H34.2361C34.3747 44.1277 34.5115 44.0968 34.6366 44.0373C34.7618 43.9778 34.8722 43.8912 34.9598 43.7837C35.0474 43.6761 35.1101 43.5504 35.1432 43.4156C35.1764 43.2808 35.1792 43.1403 35.1515 43.0043L34.4416 39.4468H37.2867C37.5114 39.447 37.7286 39.5285 37.8982 39.6762C38.0679 39.8239 38.1788 40.028 38.2105 40.251L38.9157 45.1968C38.9403 45.3689 39.0122 45.5307 39.1234 45.6641C39.2346 45.7976 39.3806 45.8973 39.5452 45.9523C39.6404 45.9837 39.7401 45.9998 39.8404 46C40.0881 45.9999 40.3256 45.9013 40.5007 45.7257C41.6869 44.5385 42.6101 43.1141 43.2101 41.5452C43.81 39.9764 44.0732 38.2984 43.9825 36.6207C43.8918 34.943 43.4493 33.3033 42.6837 31.8086C41.9182 30.3139 40.8468 28.9977 39.5396 27.946L39.5489 27.9188C41.0491 23.2789 41.0331 18.2802 39.5032 13.65C37.9734 9.01979 35.0095 4.99958 31.0427 2.17422C30.8843 2.06091 30.6946 2 30.5 2C30.3054 2 30.1157 2.06091 29.9573 2.17422C25.9905 4.99958 23.0266 9.01979 21.4968 13.65C19.9669 18.2802 19.9509 23.2789 21.4511 27.9188L21.4604 27.946C20.1532 28.9977 19.0818 30.3139 18.3163 31.8086C17.5507 33.3033 17.1082 34.943 17.0175 36.6207C16.9268 38.2984 17.19 39.9764 17.7899 41.5452C18.3899 43.1141 19.3131 44.5385 20.4993 45.7257C20.6744 45.9013 20.9119 45.9999 21.1596 46ZM33.0966 42.2553H27.9034L28.4638 39.4468H32.5362L33.0966 42.2553ZM42.0979 36.4249C42.2878 38.6819 41.7122 40.9371 40.4643 42.8255L40.0599 39.9861C39.962 39.318 39.6283 38.7073 39.1195 38.2648C38.6106 37.8223 37.9604 37.5774 37.2867 37.5745H36.4517L38.925 29.8623C40.7616 31.5772 41.8931 33.9175 42.0979 36.4249ZM30.5 4.09992C32.7449 5.81641 34.6227 7.96756 36.022 10.4256H24.978C26.3773 7.96756 28.2551 5.81641 30.5 4.09992ZM24.0383 12.2979H36.9617C39.0743 17.0418 39.3621 22.4012 37.7696 27.345L37.5641 27.9862L34.4893 37.5745H26.5107L23.4359 27.9862L23.2304 27.345C21.6379 22.4012 21.9257 17.0418 24.0383 12.2979ZM18.9011 36.4249C19.1067 33.9171 20.2393 31.5767 22.0769 29.8623L24.5483 37.5745H23.7133C23.0396 37.5774 22.3894 37.8223 21.8805 38.2648C21.3717 38.7073 21.038 39.318 20.9401 39.9861L20.5357 42.8255C19.2878 40.9371 18.7122 38.6819 18.9021 36.4249H18.9011Z" fill="#FFA849"/>
<path d="M9.42857 58H11.2857C11.2868 55.9015 10.6004 53.8628 9.33571 52.2078C9.88688 51.276 10.6879 50.5245 11.6441 50.0421C11.6534 50.0421 11.6636 50.0421 11.6729 50.0327C12.4209 49.6643 13.2409 49.4732 14.0714 49.4737C14.9585 49.4779 15.8318 49.6977 16.619 50.1149C17.4062 50.532 18.0847 51.1345 18.5982 51.8724C18.0706 52.8843 17.7917 54.0118 17.7857 55.1579H19.6429C19.6421 54.1894 19.9103 53.2404 20.4164 52.421H20.4108C20.4238 52.403 20.4414 52.3897 20.4544 52.3708C21.0626 51.4589 21.9645 50.7931 23.0035 50.4889C24.0426 50.1847 25.1533 50.2612 26.1429 50.7053V53.1874H28V45.6085H26.1429V48.6969C25.0359 48.3522 23.8584 48.3182 22.7341 48.5987C21.6099 48.8791 20.5805 49.4635 19.7543 50.2903C19.0572 49.4441 18.1876 48.7631 17.2062 48.2948C16.2247 47.8265 15.1549 47.5822 14.0714 47.579C13.3954 47.579 12.7225 47.6746 12.0722 47.8632C11.7092 45.6594 10.5905 43.6589 8.91565 42.2186C7.24085 40.7783 5.11895 39.9921 2.92857 40.0001H2V41.8948H2.92857C4.76081 41.889 6.52974 42.5783 7.89175 43.8287C9.25376 45.0791 10.1116 46.8013 10.2986 48.6609C9.39615 49.1971 8.61437 49.9211 8.00414 50.7858C6.33049 49.327 4.2013 48.5257 2 48.5263V50.4211C3.9695 50.4233 5.8577 51.2226 7.25035 52.6434C8.643 54.0642 9.42636 55.9906 9.42857 58Z" fill="#FFA849"/>
<path d="M47.9278 47.8632C47.2775 47.6746 46.6046 47.579 45.9286 47.579C44.8453 47.5819 43.7757 47.8257 42.7942 48.2935C41.8128 48.7613 40.9431 49.4417 40.2457 50.2875C39.4195 49.4606 38.3901 48.8762 37.2659 48.5958C36.1416 48.3154 34.9641 48.3493 33.8571 48.694V45.6056H32V53.1845H33.8571V50.7053C34.8466 50.2611 35.9572 50.1844 36.9963 50.4885C38.0353 50.7925 38.9373 51.4581 39.5456 52.3698C39.5586 52.3888 39.5762 52.402 39.5892 52.42H39.5836C40.0899 53.2397 40.3581 54.189 40.3571 55.1579H42.2143C42.2083 54.0118 41.9294 52.8843 41.4018 51.8724C41.9153 51.1345 42.5938 50.532 43.381 50.1149C44.1682 49.6977 45.0415 49.4779 45.9286 49.4737C46.7593 49.4738 47.5792 49.6655 48.3271 50.0346C48.3364 50.0393 48.3466 50.0402 48.3559 50.044C49.3136 50.5252 50.1162 51.276 50.6689 52.2078C49.4025 53.8621 48.7145 55.9009 48.7143 58H50.5714C50.5736 55.9906 51.357 54.0642 52.7496 52.6434C54.1423 51.2226 56.0305 50.4233 58 50.4211V48.5263C55.7987 48.5259 53.6696 49.3271 51.9959 50.7858C51.3856 49.9211 50.6039 49.1971 49.7014 48.6609C49.8884 46.8013 50.7462 45.0791 52.1082 43.8287C53.4703 42.5783 55.2392 41.889 57.0714 41.8948H58V40.0001H57.0714C54.8811 39.9921 52.7591 40.7783 51.0843 42.2186C49.4095 43.6589 48.2908 45.6594 47.9278 47.8632Z" fill="#FFA849"/>
<path d="M27 29H25V31H27V29Z" fill="#FFA849"/>
<path d="M31 29H29V31H31V29Z" fill="#FFA849"/>
<path d="M35 29H33V31H35V29Z" fill="#FFA849"/>
<path d="M14 51H12V53H14V51Z" fill="#FFA849"/>
<path d="M4 37H2V39H4V37Z" fill="#FFA849"/>
<path d="M56 45H54V47H56V45Z" fill="#FFA849"/>
<path d="M49 41H47V43H49V41Z" fill="#FFA849"/>
<path d="M39 56H37V58H39V56Z" fill="#FFA849"/>
<path d="M58 35H56V37H58V35Z" fill="#FFA849"/>
</svg>
