<svg width="60" height="60" viewBox="0 0 60 60" fill="none" xmlns="http://www.w3.org/2000/svg">
<path d="M56.6758 5.86461H53.0295L56.3779 2.6458L54.9401 1.26366L51.5918 4.48246V0.977261C51.5917 0.783966 51.5321 0.595023 51.4203 0.434317C51.3086 0.273612 51.1498 0.148359 50.964 0.0743942C50.7783 0.000429061 50.5739 -0.0189278 50.3766 0.0187708C50.1794 0.0564694 49.9983 0.149531 49.8561 0.28619L44.772 5.17354C44.5813 5.3568 44.4742 5.60539 44.4741 5.86461V11.3247L39.3708 16.2307C35.7995 13.1695 31.1268 11.5684 26.3465 11.7678C21.5663 11.9672 17.0554 13.9513 13.7733 17.2983C10.4912 20.6452 8.69675 25.091 8.77153 29.6901C8.84631 34.2892 10.7844 38.6789 14.1738 41.9256C17.5631 45.1723 22.1362 47.02 26.9206 47.0756C31.7051 47.1313 36.3234 45.3906 39.7934 42.2236C43.2635 39.0567 45.3115 34.7134 45.502 30.1174C45.6926 25.5213 44.0105 21.0351 40.8136 17.6128L45.9119 12.7069H51.5918C51.8614 12.7068 52.12 12.6038 52.3106 12.4205L57.3947 7.53315C57.5368 7.39645 57.6336 7.2223 57.6728 7.03271C57.7121 6.84313 57.6919 6.64663 57.615 6.46804C57.538 6.28946 57.4077 6.13681 57.2406 6.02941C57.0734 5.922 56.8769 5.86465 56.6758 5.86461ZM46.5077 6.26928L49.5581 3.33687V6.4374L46.5077 9.36981V6.26928ZM43.4573 29.3239C43.4706 32.9154 42.2021 36.4027 39.8635 39.2038C37.525 42.0048 34.2578 43.95 30.6074 44.7149C26.957 45.4797 23.1441 45.0178 19.8051 43.4064C16.4661 41.7949 13.8031 39.1313 12.2605 35.8602C10.7178 32.589 10.3889 28.9082 11.3286 25.4321C12.2683 21.9559 14.4197 18.8947 17.4239 16.7595C20.428 14.6242 24.1031 13.5439 27.8358 13.6991C31.5684 13.8542 35.1328 15.2353 37.934 17.6118L35.0595 20.3751C32.6507 18.4161 29.5473 17.4279 26.3982 17.6171C23.249 17.8063 20.2979 19.1583 18.1615 21.3905C16.0251 23.6226 14.8689 26.5622 14.9346 29.5948C15.0002 32.6273 16.2826 35.5181 18.5138 37.663C20.7449 39.8078 23.752 41.0406 26.9066 41.1037C30.0612 41.1668 33.1191 40.0553 35.4411 38.0016C37.7631 35.9479 39.1695 33.1109 39.3663 30.0836C39.5632 27.0562 38.5352 24.073 36.4973 21.7573L39.3718 18.994C42.0028 21.8406 43.4564 25.5159 43.4573 29.3239V29.3239ZM31.2557 29.3239C31.2557 30.0972 31.0171 30.8531 30.5702 31.4961C30.1233 32.1391 29.4881 32.6402 28.7449 32.9361C28.0017 33.232 27.1839 33.3095 26.395 33.1586C25.606 33.0077 24.8813 32.6354 24.3125 32.0886C23.7437 31.5418 23.3563 30.8451 23.1994 30.0866C23.0424 29.3282 23.123 28.5421 23.4308 27.8276C23.7387 27.1132 24.26 26.5025 24.9288 26.0729C25.5977 25.6433 26.384 25.414 27.1884 25.414C27.9122 25.4174 28.6216 25.6089 29.2414 25.9682L26.4696 28.6328L27.9073 30.0149L30.6791 27.3504C31.0529 27.9462 31.2521 28.6281 31.2557 29.3239V29.3239ZM30.7178 24.5489C29.4673 23.6934 27.928 23.3208 26.4051 23.505C24.8823 23.6892 23.487 24.4168 22.4959 25.5434C21.5049 26.6701 20.9903 28.1136 21.0544 29.5878C21.1184 31.062 21.7563 32.4592 22.8416 33.5026C23.9269 34.5459 25.3804 35.1591 26.9139 35.2206C28.4474 35.2822 29.949 34.7876 31.121 33.8348C32.293 32.8821 33.0498 31.5408 33.2414 30.0769C33.4331 28.6129 33.0455 27.1332 32.1555 25.9311L35.0565 23.1423C36.7104 25.0869 37.5236 27.5682 37.3279 30.073C37.1321 32.5778 35.9423 34.9145 34.0047 36.5996C32.067 38.2848 29.5297 39.1896 26.9176 39.1268C24.3055 39.064 21.8184 38.0385 19.9708 36.2623C18.1231 34.4862 17.0563 32.0953 16.991 29.5842C16.9257 27.0732 17.8669 24.634 19.6199 22.7713C21.3729 20.9086 23.8035 19.7649 26.4091 19.5767C29.0147 19.3885 31.5959 20.1702 33.6187 21.7602L30.7178 24.5489ZM51.1708 10.752H47.9455L50.9959 7.81954H54.2212L51.1708 10.752Z" fill="#FFA849"/>
<path d="M6.49201 59.122L8.31639 60.0001L9.05328 58.5788L13.9353 49.1691C17.791 51.4678 22.2352 52.6855 26.7691 52.6855C31.303 52.6855 35.7472 51.4678 39.6029 49.1691L44.4849 58.5788L45.2218 60.0001L47.0462 59.122L46.7638 58.5788L41.305 48.0573C43.9185 46.1977 46.1212 43.8547 47.7844 41.1653C49.4476 38.4759 50.5378 35.494 50.9914 32.3938C51.445 29.2937 51.2528 26.1375 50.4261 23.1097C49.5995 20.082 48.1549 17.2434 46.1768 14.7599L44.5613 15.9572C47.5788 19.7245 49.208 24.3531 49.1916 29.1121C49.1916 33.386 47.8765 37.5638 45.4127 41.1174C42.9489 44.671 39.447 47.4406 35.3498 49.0762C31.2526 50.7117 26.7442 51.1396 22.3947 50.3058C18.0451 49.4721 14.0498 47.414 10.914 44.3919C7.77814 41.3699 5.64261 37.5195 4.77743 33.3278C3.91225 29.1361 4.35629 24.7913 6.0534 20.8428C7.75051 16.8942 10.6245 13.5194 14.3118 11.145C17.9992 8.77055 22.3343 7.50321 26.7691 7.50321C31.844 7.48314 36.7726 9.14103 40.7322 12.2002L42.0021 10.663C37.682 7.32616 32.3055 5.51752 26.7691 5.53876C21.6209 5.5366 16.6035 7.1005 12.4317 10.0076C8.25986 12.9147 5.14664 17.0166 3.53568 21.7288C1.92472 26.4409 1.89821 31.5229 3.45994 36.2505C5.02166 40.978 8.09194 45.1099 12.2332 48.0573L6.77433 58.5788L6.49201 59.122Z" fill="#FFA849"/>
</svg>
