<svg width="60" height="60" viewBox="0 0 60 60" fill="none" xmlns="http://www.w3.org/2000/svg">
<path d="M39.415 0.966902C38.7641 0.346226 37.8996 0 37.0005 0C36.1014 0 35.2369 0.346226 34.586 0.966902L14.9999 20.5673C14.3597 21.208 14 22.077 14 22.9831C14 23.8892 14.3597 24.7582 14.9999 25.3989L34.585 44.9993C35.2254 45.64 36.0939 46 36.9995 46C37.9051 46 38.7736 45.64 39.414 44.9993L59.0001 25.3989C59.6403 24.7582 60 23.8892 60 22.9831C60 22.077 59.6403 21.208 59.0001 20.5673L39.415 0.966902ZM57.5861 23.9838L38 43.5843C37.7307 43.8419 37.3725 43.9857 37 43.9857C36.6275 43.9857 36.2693 43.8419 36 43.5843L16.4149 23.9838C16.2835 23.8524 16.1793 23.6964 16.1083 23.5247C16.0372 23.353 16.0006 23.169 16.0006 22.9831C16.0006 22.7972 16.0372 22.6132 16.1083 22.4415C16.1793 22.2698 16.2835 22.1138 16.4149 21.9824L36 2.38194C36.2653 2.11672 36.625 1.96775 37 1.96775C37.375 1.96775 37.7347 2.11672 38 2.38194L57.5851 21.9824C57.7165 22.1138 57.8207 22.2698 57.8917 22.4415C57.9628 22.6132 57.9994 22.7972 57.9994 22.9831C57.9994 23.169 57.9628 23.353 57.8917 23.5247C57.8207 23.6964 57.7165 23.8524 57.5851 23.9838H57.5861Z" fill="#FFA849"/>
<path d="M10 35C10 35.7911 10.2346 36.5645 10.6741 37.2223C11.1136 37.8801 11.7384 38.3928 12.4693 38.6955C13.2002 38.9983 14.0044 39.0775 14.7804 38.9231C15.5563 38.7688 16.269 38.3878 16.8284 37.8284C17.3878 37.269 17.7688 36.5563 17.9231 35.7804C18.0775 35.0044 17.9983 34.2002 17.6955 33.4693C17.3928 32.7384 16.8801 32.1136 16.2223 31.6741C15.5645 31.2346 14.7911 31 14 31C12.9391 31 11.9217 31.4214 11.1716 32.1716C10.4214 32.9217 10 33.9391 10 35ZM14 33C14.3956 33 14.7822 33.1173 15.1111 33.3371C15.44 33.5568 15.6964 33.8692 15.8478 34.2346C15.9991 34.6001 16.0387 35.0022 15.9616 35.3902C15.8844 35.7781 15.6939 36.1345 15.4142 36.4142C15.1345 36.6939 14.7781 36.8844 14.3902 36.9616C14.0022 37.0387 13.6001 36.9991 13.2346 36.8478C12.8692 36.6964 12.5568 36.44 12.3371 36.1111C12.1173 35.7822 12 35.3956 12 35C12 34.4696 12.2107 33.9609 12.5858 33.5858C12.9609 33.2107 13.4696 33 14 33Z" fill="#FFA849"/>
<path d="M45.7071 13.2928C45.5673 13.153 45.3891 13.0578 45.1952 13.0192C45.0012 12.9806 44.8002 13.0004 44.6175 13.0761C44.4348 13.1518 44.2786 13.2799 44.1687 13.4443C44.0588 13.6087 44.0001 13.802 44.0001 13.9998V16.3708C41.2603 17.0253 38.805 18.5472 37 20.7099C35.195 18.5472 32.7398 17.0253 29.9999 16.3708V13.9998C29.9999 13.802 29.9412 13.6087 29.8313 13.4443C29.7214 13.2799 29.5652 13.1518 29.3825 13.0761C29.1998 13.0004 28.9988 12.9806 28.8048 13.0192C28.6109 13.0578 28.4327 13.153 28.2929 13.2928L23.2928 18.2928C23.1053 18.4804 23 18.7347 23 18.9998C23 19.265 23.1053 19.5193 23.2928 19.7069L28.2929 24.7069C28.4327 24.8467 28.6109 24.9419 28.8048 24.9805C28.9988 25.019 29.1998 24.9992 29.3825 24.9236C29.5652 24.8479 29.7214 24.7198 29.8313 24.5554C29.9412 24.3909 29.9999 24.1976 29.9999 23.9999V22.6849C31.1958 23.2512 32.2065 24.1452 32.9145 25.2631C33.6226 26.3809 33.999 27.6767 34 28.9999V35C34 35.2652 34.1053 35.5196 34.2929 35.7071C34.4804 35.8946 34.7347 36 35 36H39C39.2653 36 39.5196 35.8946 39.7071 35.7071C39.8947 35.5196 40 35.2652 40 35V28.9999C40.001 27.6767 40.3774 26.3809 41.0855 25.2631C41.7935 24.1452 42.8042 23.2512 44.0001 22.6849V23.9999C44.0001 24.1976 44.0588 24.3909 44.1687 24.5554C44.2786 24.7198 44.4348 24.8479 44.6175 24.9236C44.8002 24.9992 45.0012 25.019 45.1952 24.9805C45.3891 24.9419 45.5673 24.8467 45.7071 24.7069L50.7072 19.7069C50.8947 19.5193 51 19.265 51 18.9998C51 18.7347 50.8947 18.4804 50.7072 18.2928L45.7071 13.2928ZM46.0001 21.5859V21.2639C46.0001 21.1113 45.9651 20.9607 45.8979 20.8237C45.8307 20.6867 45.7331 20.5669 45.6124 20.4735C45.4918 20.38 45.3513 20.3154 45.2019 20.2847C45.0524 20.2539 44.8979 20.2577 44.7501 20.2959C42.8195 20.7935 41.1088 21.9184 39.887 23.4939C38.6652 25.0694 38.0014 27.0062 38 28.9999V34H36V28.9999C35.9977 27.0069 35.3335 25.071 34.1118 23.4963C32.89 21.9216 31.1799 20.7973 29.2499 20.2999C29.1021 20.2617 28.9476 20.2579 28.7981 20.2887C28.6487 20.3194 28.5082 20.384 28.3876 20.4775C28.2669 20.5709 28.1693 20.6907 28.1021 20.8277C28.0349 20.9647 27.9999 21.1153 27.9999 21.2679V21.5899L25.4138 18.9998L27.9999 16.4138V17.1878C27.9999 17.4241 28.0835 17.6527 28.236 17.8332C28.3885 18.0137 28.5999 18.1344 28.8329 18.1738C30.315 18.4263 31.7299 18.9787 32.991 19.7972C34.2522 20.6157 35.3329 21.683 36.167 22.9339C36.2582 23.0713 36.382 23.1839 36.5274 23.2619C36.6727 23.3398 36.8351 23.3806 37 23.3806C37.1649 23.3806 37.3273 23.3398 37.4726 23.2619C37.618 23.1839 37.7418 23.0713 37.833 22.9339C38.667 21.6829 39.7477 20.6153 41.0088 19.7966C42.2699 18.978 43.6849 18.4254 45.1671 18.1728C45.3999 18.1334 45.6112 18.0129 45.7637 17.8326C45.9162 17.6523 45.9999 17.4239 46.0001 17.1878V16.4138L48.5862 18.9998L46.0001 21.5859Z" fill="#FFA849"/>
<path d="M38.8954 56.5126V58.014H25.6551C26.4476 57.186 27.0021 56.1613 27.2607 55.0469L28.996 47.1108L27.0473 46.6877L25.314 54.6119C25.0931 55.5806 24.5474 56.4454 23.7668 57.0638C22.9861 57.6823 22.0171 58.0174 21.0195 58.014H10.9706C9.6486 58.0124 8.38116 57.4888 7.44635 56.558C6.51153 55.6272 5.98565 54.3653 5.98407 53.0489V49.0769H9.97332V47.0909H5.98407V44.1119C5.98407 43.8485 5.87899 43.5959 5.69196 43.4097C5.50493 43.2235 5.25126 43.1189 4.98675 43.1189H2.34787L5.85442 31.7718C5.96244 31.6192 6.02438 31.439 6.03294 31.2524C6.21599 27.234 7.6914 23.3805 10.2415 20.2606C12.7915 17.1406 16.2813 14.9193 20.1958 13.9244L19.6971 12C15.4225 13.0865 11.6048 15.4963 8.7942 18.8821C5.9836 22.2679 4.32527 26.4548 4.05826 30.8393C4.04928 30.8622 4.0413 30.887 4.03332 30.9108L0.0440759 43.8199C-0.00181029 43.9685 -0.0120439 44.1257 0.0141984 44.2788C0.0404407 44.432 0.102426 44.577 0.195169 44.7019C0.287912 44.8269 0.408822 44.9285 0.548175 44.9985C0.687527 45.0685 0.841431 45.1049 0.997506 45.1049H3.98944V53.0489C3.99155 54.8918 4.72775 56.6586 6.03652 57.9618C7.34529 59.2649 9.11975 59.9979 10.9706 60H39.8927C40.1572 60 40.4109 59.8954 40.5979 59.7092C40.7849 59.5229 40.89 59.2704 40.89 59.007V56.5126C40.9041 53.4155 41.2765 50.3304 42 47.3183L40.0582 46.8635C39.2992 50.0246 38.909 53.2624 38.8954 56.5126Z" fill="#FFA849"/>
<path d="M38 5H36V7H38V5Z" fill="#FFA849"/>
<path d="M38 39H36V41H38V39Z" fill="#FFA849"/>
</svg>
