<svg width="70" height="70" viewBox="0 0 70 70" fill="none" xmlns="http://www.w3.org/2000/svg">
<path d="M2.16927 36.0863C5.55384 41.4858 10.2232 45.9629 15.7602 49.1176C21.2971 52.2723 27.5293 54.0063 33.9 54.1648V63H36.1V54.1648C42.4707 54.0063 48.7029 52.2723 54.2398 49.1176C59.7768 45.9629 64.4462 41.4858 67.8307 36.0863C67.9413 35.9107 68 35.7075 68 35.5C68 35.2925 67.9413 35.0893 67.8307 34.9137C64.4462 29.5142 59.7768 25.0371 54.2398 21.8824C48.7029 18.7277 42.4707 16.9937 36.1 16.8352V8H33.9V16.8352C27.5293 16.9937 21.2971 18.7277 15.7602 21.8824C10.2232 25.0371 5.55384 29.5142 2.16927 34.9137C2.05868 35.0893 2 35.2925 2 35.5C2 35.7075 2.05868 35.9107 2.16927 36.0863ZM18.556 34.4C18.8264 30.4196 20.5298 26.672 23.3509 23.8509C26.1719 21.0299 29.9196 19.3265 33.9 19.0561V25.6H36.1V19.0561C40.0804 19.3265 43.8281 21.0299 46.6491 23.8509C49.4702 26.672 51.1736 30.4196 51.444 34.4H44.9V36.6H51.444C51.1736 40.5804 49.4702 44.328 46.6491 47.1491C43.8281 49.9701 40.0804 51.6735 36.1 51.9439V45.4H33.9V51.9439C29.9196 51.6735 26.1719 49.9701 23.3509 47.1491C20.5298 44.328 18.8264 40.5804 18.556 36.6H25.1V34.4H18.556ZM65.5922 35.5C61.1013 42.3668 54.4227 47.5155 46.6391 50.1113C48.6905 48.4778 50.3746 46.4302 51.5815 44.1022C52.7885 41.7741 53.4912 39.2179 53.644 36.6H62.5001V34.4H53.644C53.4912 31.7821 52.7885 29.2259 51.5815 26.8978C50.3746 24.5698 48.6905 22.5222 46.6391 20.8887C54.4227 23.4845 61.1013 28.6332 65.5922 35.5ZM23.3609 20.8887C21.3095 22.5222 19.6254 24.5698 18.4185 26.8978C17.2115 29.2259 16.5088 31.7821 16.356 34.4H7.49989V36.6H16.356C16.5088 39.2179 17.2115 41.7741 18.4185 44.1022C19.6254 46.4302 21.3095 48.4778 23.3609 50.1113C15.5773 47.5155 8.89868 42.3668 4.40778 35.5C8.89868 28.6332 15.5773 23.4845 23.3609 20.8887Z" fill="#FFA849"/>
<path d="M34.5 43C35.9834 43 37.4334 42.5601 38.6668 41.736C39.9001 40.9119 40.8614 39.7406 41.4291 38.3701C41.9967 36.9997 42.1453 35.4917 41.8559 34.0368C41.5665 32.582 40.8522 31.2456 39.8033 30.1967C38.7544 29.1478 37.418 28.4335 35.9632 28.1441C34.5083 27.8547 33.0003 28.0032 31.6299 28.5709C30.2594 29.1386 29.0881 30.0999 28.264 31.3332C27.4399 32.5666 27 34.0166 27 35.5C27.0023 37.4884 27.7932 39.3948 29.1992 40.8008C30.6052 42.2068 32.5116 42.9977 34.5 43ZM34.5 30.1429C35.5595 30.1429 36.5953 30.4571 37.4763 31.0457C38.3572 31.6344 39.0439 32.471 39.4494 33.4499C39.8548 34.4288 39.9609 35.5059 39.7542 36.5451C39.5475 37.5843 39.0373 38.5389 38.2881 39.2881C37.5389 40.0373 36.5843 40.5475 35.5451 40.7542C34.5059 40.9609 33.4288 40.8548 32.4499 40.4494C31.471 40.0439 30.6343 39.3572 30.0457 38.4763C29.457 37.5953 29.1429 36.5595 29.1429 35.5C29.1446 34.0797 29.7095 32.7181 30.7138 31.7138C31.7181 30.7095 33.0797 30.1446 34.5 30.1429Z" fill="#FFA849"/>
<path d="M10.2222 10.2222H18V8H9.11111C8.81643 8 8.53381 8.11706 8.32544 8.32544C8.11706 8.53381 8 8.81643 8 9.11111V18H10.2222V10.2222Z" fill="#FFA849"/>
<path d="M63 18V9.11111C63 8.81643 62.8829 8.53381 62.6746 8.32544C62.4662 8.11706 62.1836 8 61.8889 8H53V10.2222H60.7778V18H63Z" fill="#FFA849"/>
<path d="M60.7778 60.7778H53V63H61.8889C62.1836 63 62.4662 62.8829 62.6746 62.6746C62.8829 62.4662 63 62.1836 63 61.8889V53H60.7778V60.7778Z" fill="#FFA849"/>
<path d="M8 53V61.8889C8 62.1836 8.11706 62.4662 8.32544 62.6746C8.53381 62.8829 8.81643 63 9.11111 63H18V60.7778H10.2222V53H8Z" fill="#FFA849"/>
</svg>
