<svg width="160" height="120" viewBox="0 0 160 120" fill="none" xmlns="http://www.w3.org/2000/svg">
<path fill-rule="evenodd" clip-rule="evenodd" d="M56.1485 53.0975L44.9217 56.4064C48.4615 54.6453 52.2199 53.5753 56.1485 53.0975M77.8348 39.0426C73.6865 40.7252 69.51 42.2419 65.6308 44.3875C69.0974 41.3317 73.4222 40.0447 77.8348 39.0426M78.1309 56.2348C79.2224 57.6651 78.1359 58.1834 77.1708 58.7016C73.9081 60.4557 70.7353 59.3411 67.7127 58.2464C65.5095 57.4487 63.3251 56.343 61.8357 54.3855C61.2674 53.6394 61.0281 52.8904 62.422 52.6972C66.2281 52.1702 69.9945 52.1609 73.6467 53.4144C75.3867 54.0115 76.957 54.9146 78.1309 56.2348M67.0631 46.4819C69.3043 44.66 72.0034 43.6516 74.644 42.5722C86.0537 37.9089 97.9003 36.9947 110.02 38.0291C118.115 38.7203 126.057 40.1712 133.959 41.9036C134.681 42.0611 135.403 42.2491 136.143 42.0201C136.974 41.7626 137.402 41.3671 136.448 40.7282C136.213 40.5703 135.763 40.5919 136.083 40.1649C137.185 38.6913 136.044 37.9554 135.105 37.2138C133.342 35.8216 131.142 35.3195 129.071 34.636C123.27 32.7201 117.388 31.0211 111.323 30.1046C105.694 29.2542 99.9942 29.2237 94.2955 29.3516C90.6679 29.433 86.9786 29.5657 83.608 30.8744C81.3687 31.7439 79.0283 31.7293 76.8281 32.5568C72.6103 34.1434 68.4257 35.768 64.6289 38.2492C61.504 40.2917 59.1015 42.9616 57.5796 46.3516C57.0783 47.4695 56.2936 48.0982 55.1564 48.3862C52.092 49.163 49.0423 50.0396 46.0291 50.9493C41.1263 52.4284 36.4746 54.6699 31.9382 57.0737C24.7027 60.9077 17.9448 65.4051 12.3634 71.4725C9.08293 75.0386 6.08004 78.7636 5.32231 83.7411C5.12274 85.0516 5.17697 86.2963 6.04295 87.3897C6.41562 87.8614 6.84128 88.1128 7.47093 87.9623C8.2149 87.7835 7.97111 87.3511 7.96424 86.7971C7.91594 82.9973 10.5326 80.5727 12.84 78.0276C19.1984 71.0133 27.1596 66.2386 35.5357 62.0609C41.9455 58.8641 48.6015 56.3151 55.5423 54.5386C56.0935 54.3974 56.6682 53.9528 56.8999 55.0014C57.7069 58.6548 59.9902 61.3196 63.0213 63.3184C67.6997 66.4043 72.7587 67.9759 78.3598 65.8815C81.3696 64.7563 82.4388 62.7413 82.3509 59.5822C82.1283 51.5336 75.8413 47.3091 69.058 46.9982C68.4505 46.9711 67.8434 46.9436 67.2374 46.9162C67.1788 46.7712 67.1212 46.6263 67.0631 46.4819" fill="#FFA849"/>
<path fill-rule="evenodd" clip-rule="evenodd" d="M142.703 47.6873C146.277 46.4637 149.936 45.7453 153.717 45.769C150.046 46.4085 146.375 47.0474 142.703 47.6873M139.9 31.8179C142.207 34.7857 144.988 37.3051 147.663 39.9266C148.062 40.3184 148.743 40.5656 148.463 41.3702C148.194 42.143 147.491 42.0719 146.945 42.1045C143.968 42.2844 141.199 43.3198 138.345 44.0393C136.541 44.4931 134.641 44.6139 132.802 45.1361C129.97 45.941 127.077 46.5371 124.195 47.1477C122.735 47.4574 121.475 48.4296 119.826 48.1873C118.207 47.9499 117.402 48.9713 117.394 51.3534C117.389 52.5692 117.925 53.7922 119.476 53.8038C120.751 53.8131 122.05 53.7247 123.304 53.4875C131.601 51.9169 139.886 50.2801 148.181 48.7001C150.043 48.3453 151.93 48.1143 153.807 47.8486C157.221 47.3657 157.994 46.2546 157.498 42.8689C157.114 40.2406 155.816 38.3215 153.646 36.815C149.469 33.9145 145.378 30.895 141.821 27.2433C141.108 26.5113 140.501 25.6795 139.817 24.9187C139.025 24.037 138.394 24.1274 137.979 25.2931C137.058 27.8763 137.212 28.406 139.9 31.8179" fill="#FFA849"/>
</svg>
