<svg width="135" height="29" viewBox="0 0 135 29" fill="none" xmlns="http://www.w3.org/2000/svg">
<path d="M12.5428 3.16405C12.8294 2.21679 14.1706 2.21679 14.4572 3.16405L16.316 9.3088C16.4436 9.73068 16.8324 10.0193 17.2732 10.0193L23.4323 10.0193C24.3837 10.0193 24.7976 11.2223 24.0475 11.8076L18.9446 15.7897C18.6189 16.0439 18.483 16.4722 18.6027 16.8677L20.5224 23.2136C20.8049 24.1476 19.7193 24.8918 18.95 24.2915L14.1152 20.5186C13.7536 20.2364 13.2464 20.2364 12.8848 20.5186L8.05 24.2915C7.28069 24.8918 6.19508 24.1476 6.47764 23.2136L8.39734 16.8677C8.51697 16.4722 8.38109 16.0439 8.05539 15.7897L2.95245 11.8076C2.20244 11.2223 2.61631 10.0193 3.56766 10.0193L9.72682 10.0193C10.1676 10.0193 10.5564 9.73068 10.684 9.30881L12.5428 3.16405Z" fill="#FFA849"/>
<path d="M39.5428 3.16405C39.8294 2.21679 41.1706 2.21679 41.4572 3.16405L43.316 9.3088C43.4436 9.73068 43.8324 10.0193 44.2732 10.0193L50.4323 10.0193C51.3837 10.0193 51.7976 11.2223 51.0475 11.8076L45.9446 15.7897C45.6189 16.0439 45.483 16.4722 45.6027 16.8677L47.5224 23.2136C47.8049 24.1476 46.7193 24.8918 45.95 24.2915L41.1152 20.5186C40.7536 20.2364 40.2464 20.2364 39.8848 20.5186L35.05 24.2915C34.2807 24.8918 33.1951 24.1476 33.4776 23.2136L35.3973 16.8677C35.517 16.4722 35.3811 16.0439 35.0554 15.7897L29.9525 11.8076C29.2024 11.2223 29.6163 10.0193 30.5677 10.0193L36.7268 10.0193C37.1676 10.0193 37.5564 9.73068 37.684 9.30881L39.5428 3.16405Z" fill="#FFA849"/>
<path d="M66.5428 3.16405C66.8294 2.21679 68.1706 2.21679 68.4572 3.16405L70.316 9.3088C70.4436 9.73068 70.8324 10.0193 71.2732 10.0193L77.4323 10.0193C78.3837 10.0193 78.7976 11.2223 78.0475 11.8076L72.9446 15.7897C72.6189 16.0439 72.483 16.4722 72.6027 16.8677L74.5224 23.2136C74.8049 24.1476 73.7193 24.8918 72.95 24.2915L68.1152 20.5186C67.7536 20.2364 67.2464 20.2364 66.8848 20.5186L62.05 24.2915C61.2807 24.8918 60.1951 24.1476 60.4776 23.2136L62.3973 16.8677C62.517 16.4722 62.3811 16.0439 62.0554 15.7897L56.9525 11.8076C56.2024 11.2223 56.6163 10.0193 57.5677 10.0193L63.7268 10.0193C64.1676 10.0193 64.5564 9.73068 64.684 9.30881L66.5428 3.16405Z" fill="#FFA849"/>
<path d="M93.5428 3.16405C93.8294 2.21679 95.1706 2.21679 95.4572 3.16405L97.316 9.3088C97.4436 9.73068 97.8324 10.0193 98.2732 10.0193L104.432 10.0193C105.384 10.0193 105.798 11.2223 105.048 11.8076L99.9446 15.7897C99.6189 16.0439 99.483 16.4722 99.6027 16.8677L101.522 23.2136C101.805 24.1476 100.719 24.8918 99.95 24.2915L95.1152 20.5186C94.7536 20.2364 94.2464 20.2364 93.8848 20.5186L89.05 24.2915C88.2807 24.8918 87.1951 24.1476 87.4776 23.2136L89.3973 16.8677C89.517 16.4722 89.3811 16.0439 89.0554 15.7897L83.9525 11.8076C83.2024 11.2223 83.6163 10.0193 84.5677 10.0193L90.7268 10.0193C91.1676 10.0193 91.5564 9.73068 91.684 9.30881L93.5428 3.16405Z" fill="#FFA849"/>
<path d="M120.543 3.16405C120.829 2.21679 122.171 2.21679 122.457 3.16405L124.316 9.3088C124.444 9.73068 124.832 10.0193 125.273 10.0193L131.432 10.0193C132.384 10.0193 132.798 11.2223 132.048 11.8076L126.945 15.7897C126.619 16.0439 126.483 16.4722 126.603 16.8677L128.522 23.2136C128.805 24.1476 127.719 24.8918 126.95 24.2915L122.115 20.5186C121.754 20.2364 121.246 20.2364 120.885 20.5186L116.05 24.2915C115.281 24.8918 114.195 24.1476 114.478 23.2136L116.397 16.8677C116.517 16.4722 116.381 16.0439 116.055 15.7897L110.952 11.8076C110.202 11.2223 110.616 10.0193 111.568 10.0193L117.727 10.0193C118.168 10.0193 118.556 9.73068 118.684 9.30881L120.543 3.16405Z" fill="#FFA849"/>
</svg>
