<svg width="131" height="32" viewBox="0 0 131 32" fill="none" xmlns="http://www.w3.org/2000/svg">
<path d="M31.6817 8.00176C31.6814 8.0012 31.6808 8.00016 31.6802 7.9991C31.6787 7.99725 31.677 7.99487 31.6755 7.99302C31.6391 7.93816 31.6004 7.88514 31.5588 7.83343C31.548 7.81998 31.5365 7.80731 31.5251 7.79386C31.4922 7.75508 31.4584 7.71736 31.4227 7.68069C31.4024 7.65985 31.381 7.63954 31.3602 7.61949C31.3311 7.59258 31.3018 7.56594 31.2712 7.53982C31.2431 7.51608 31.214 7.4926 31.185 7.47044C31.1581 7.45013 31.1314 7.43034 31.1038 7.41082C31.0704 7.38708 31.0357 7.36466 31.0008 7.3425C30.9744 7.32614 30.9483 7.31006 30.9211 7.29422C30.8838 7.27312 30.8462 7.25307 30.8078 7.23382C30.7805 7.21983 30.7529 7.20638 30.7248 7.19346C30.6848 7.17525 30.6444 7.15784 30.6033 7.14202C30.5755 7.13094 30.5476 7.11986 30.5188 7.10957C30.4749 7.094 30.43 7.08002 30.385 7.06657C30.3592 7.05919 30.3338 7.05153 30.3076 7.04494C30.2554 7.03122 30.2023 7.01908 30.1489 7.00879C30.1302 7.00537 30.1117 7.00114 30.0929 6.99798C30.0269 6.98637 29.9597 6.97766 29.8931 6.97107C29.8861 6.97054 29.8799 6.96949 29.8732 6.96896C29.3965 6.92596 28.901 7.00774 28.4542 7.2354L15.9978 13.5895L7.08957 9.04504L16.0052 4.49664L21.9494 7.5269C23.0791 8.10224 24.5236 7.76088 25.176 6.76294C25.8284 5.76472 25.4412 4.48794 24.3115 3.9118L17.1868 0.27956C16.4561 -0.0931868 15.5554 -0.0931868 14.8247 0.27956L1.24097 7.20875C0.868707 7.38629 0.544258 7.65194 0.317203 7.9991C-0.335509 8.9976 0.051424 10.2738 1.18113 10.8497L14.8174 17.8066C14.8194 17.8077 14.8212 17.8079 14.823 17.809C14.8945 17.8451 14.9688 17.876 15.0438 17.905C15.0647 17.9132 15.0847 17.9237 15.1054 17.9311C15.1506 17.9474 15.1976 17.9588 15.2436 17.9722C15.4904 18.0458 15.7437 18.0865 15.9961 18.0865C15.9967 18.0865 15.9976 18.0865 15.9985 18.0865C15.9987 18.0865 15.9996 18.0865 16.0005 18.0865C16.2584 18.0865 16.5177 18.0446 16.769 17.9675C16.8092 17.9551 16.8506 17.9458 16.8902 17.9314C16.914 17.923 16.9368 17.9108 16.9606 17.9015C17.0328 17.8734 17.1044 17.8438 17.173 17.809C17.1751 17.8079 17.1771 17.8077 17.1791 17.8066L27.2767 12.6562V21.7527L16.0014 27.5038L4.72748 21.7527V16.0011C4.72748 14.8486 3.66965 13.9145 2.36569 13.9145C1.06115 13.9145 0.00360729 14.8486 0.00360729 16.0011V22.9575C0.00360729 23.703 0.453318 24.3915 1.18435 24.7642L14.8206 31.7209C15.1855 31.9069 15.5936 32 16.0014 32C16.4091 32 16.8172 31.9069 17.1824 31.7209L30.8192 24.7642C31.5503 24.3915 32 23.703 32 22.9575V9.04504C32 8.66464 31.8832 8.30904 31.6817 8.00176Z" fill="#A6A6A6"/>
<path fill-rule="evenodd" clip-rule="evenodd" d="M44.3933 20.0733C45.1799 20.5346 45.9788 20.8767 46.7899 21.0999C47.6011 21.3231 48.4 21.4347 49.1866 21.4347C49.9733 21.4347 50.6082 21.271 51.0917 20.9437C51.5752 20.6164 51.8169 20.1924 51.8169 19.6716C51.8169 19.2402 51.6243 18.9017 51.2391 18.6562C50.8541 18.4108 50.3706 18.1913 49.7888 17.9979C49.2071 17.8045 48.5803 17.6074 47.9084 17.4065C47.2365 17.2057 46.6097 16.9379 46.028 16.6031C45.4462 16.2683 44.9628 15.8257 44.5777 15.2753C44.1925 14.7247 44 14.0032 44 13.1105C44 12.4261 44.1557 11.8013 44.467 11.2359C44.7784 10.6706 45.2127 10.1833 45.7698 9.77417C46.327 9.36505 46.9948 9.04885 47.7732 8.82574C48.5516 8.60256 49.4078 8.49096 50.3419 8.49096C51.1286 8.49096 51.9111 8.55794 52.6894 8.6918C53.4679 8.82574 54.2504 9.03403 55.037 9.31666V12.5749C54.2996 12.1881 53.5621 11.9017 52.8246 11.7157C52.0872 11.5298 51.358 11.4368 50.6369 11.4368C49.8831 11.4368 49.2726 11.5855 48.8056 11.8831C48.3386 12.1807 48.1051 12.5749 48.1051 13.0659C48.1051 13.4825 48.2976 13.8098 48.6828 14.0478C49.0678 14.2859 49.5472 14.4979 50.1207 14.6839C50.6943 14.8698 51.3211 15.0632 52.0012 15.2641C52.6812 15.465 53.3081 15.7365 53.8816 16.0787C54.4552 16.4208 54.9345 16.8709 55.3197 17.4288C55.7048 17.9868 55.8973 18.7194 55.8973 19.627C55.8973 20.3263 55.7376 20.9697 55.418 21.5574C55.0985 22.1451 54.6559 22.6472 54.0906 23.0637C53.5252 23.4804 52.8492 23.804 52.0627 24.0346C51.276 24.2652 50.4157 24.3804 49.4816 24.3804C47.7609 24.3804 46.0648 24.0457 44.3933 23.3763V20.0733ZM57.092 8.06696H61.0987V13.7354C62.1639 13.0361 63.2864 12.6865 64.4663 12.6865C65.1054 12.6865 65.6954 12.787 66.2362 12.9878C66.7769 13.1886 67.244 13.4713 67.6373 13.8358C68.0306 14.2003 68.3379 14.6355 68.5591 15.1413C68.7803 15.6472 68.891 16.1977 68.891 16.7928V24.1127H64.8842V17.4623C64.8842 17.0011 64.7244 16.6217 64.4049 16.3241C64.0853 16.0266 63.6797 15.8778 63.1881 15.8778C62.4506 15.8778 61.7542 16.1754 61.0987 16.7704V24.1127H57.092V8.06696ZM70.5281 12.9543H74.5347V24.1127H70.5281V12.9543ZM70.3314 9.98622C70.3314 9.39108 70.5363 8.9113 70.946 8.5468C71.3557 8.18225 71.8882 8 72.5437 8C73.1664 8 73.6868 8.18225 74.1046 8.5468C74.5225 8.9113 74.7314 9.39108 74.7314 9.98622C74.7314 10.5516 74.5225 11.0202 74.1046 11.3922C73.6868 11.7641 73.1664 11.95 72.5437 11.95C71.8882 11.95 71.3557 11.7641 70.946 11.3922C70.5363 11.0202 70.3314 10.5516 70.3314 9.98622ZM84.6524 18.5335C84.6524 17.7152 84.4271 17.0568 83.9764 16.5585C83.5258 16.06 82.9399 15.8109 82.2189 15.8109C81.4978 15.8109 80.8506 16.0712 80.277 16.592V20.4751C80.8506 20.9958 81.4978 21.2561 82.2189 21.2561C82.9399 21.2561 83.5258 21.0032 83.9764 20.4973C84.4271 19.9915 84.6524 19.3369 84.6524 18.5335ZM76.2702 12.9543H80.277V13.5569C81.211 12.9767 82.1697 12.6865 83.153 12.6865C83.9724 12.6865 84.7261 12.8316 85.4145 13.1217C86.1027 13.4118 86.6926 13.8135 87.1843 14.3268C87.6759 14.8401 88.0569 15.4538 88.3273 16.1679C88.5981 16.882 88.7332 17.6706 88.7332 18.5335C88.7332 19.3964 88.5981 20.1849 88.3273 20.8991C88.0569 21.6132 87.6759 22.2269 87.1843 22.7402C86.6926 23.2534 86.1027 23.6552 85.4145 23.9453C84.7261 24.2354 83.9724 24.3804 83.153 24.3804C82.1697 24.3804 81.211 24.0904 80.277 23.5101V29H76.2702V12.9543ZM94.0822 21.2561H96.7117C97.3347 21.2561 97.8465 21.0888 98.248 20.754C98.6495 20.4192 98.8507 19.9915 98.8507 19.4708C98.8507 18.9501 98.6495 18.5224 98.248 18.1876C97.8465 17.8528 97.3347 17.6855 96.7117 17.6855H94.0822V21.2561ZM94.0822 14.9182H96.3676C96.9412 14.9182 97.4168 14.762 97.7936 14.4496C98.1703 14.1371 98.3592 13.7428 98.3592 13.2667C98.3592 12.7757 98.1703 12.3778 97.7936 12.0728C97.4168 11.7678 96.9412 11.6153 96.3676 11.6153H94.0822V14.9182ZM90.1732 8.75877H97.13C97.8836 8.75877 98.5718 8.86292 99.1948 9.0712C99.8178 9.27949 100.358 9.56965 100.817 9.94152C101.275 10.3135 101.632 10.7524 101.886 11.2582C102.14 11.7641 102.267 12.3145 102.267 12.9097C102.267 13.6685 102.071 14.3454 101.677 14.9405C101.284 15.5356 100.743 15.9745 100.055 16.2572C100.94 16.5548 101.624 17.0197 102.108 17.652C102.591 18.2843 102.833 19.0096 102.833 19.8279C102.833 20.4527 102.701 21.0293 102.439 21.5574C102.177 22.0856 101.813 22.5393 101.345 22.9187C100.878 23.2982 100.322 23.5919 99.6739 23.8002C99.0263 24.0086 98.3177 24.1127 97.5474 24.1127H90.1732V8.75877ZM103.315 18.5335C103.315 17.6706 103.478 16.882 103.806 16.1679C104.134 15.4538 104.592 14.8401 105.183 14.3268C105.773 13.8135 106.473 13.4118 107.285 13.1217C108.095 12.8316 108.985 12.6865 109.951 12.6865C110.918 12.6865 111.808 12.8316 112.619 13.1217C113.43 13.4118 114.126 13.8135 114.708 14.3268C115.29 14.8401 115.744 15.4538 116.072 16.1679C116.4 16.882 116.564 17.6706 116.564 18.5335C116.564 19.3816 116.4 20.1663 116.072 20.8879C115.744 21.6095 115.29 22.2269 114.708 22.7402C114.126 23.2534 113.43 23.6552 112.619 23.9453C111.808 24.2354 110.918 24.3804 109.951 24.3804C108.985 24.3804 108.095 24.2354 107.285 23.9453C106.473 23.6552 105.773 23.2534 105.183 22.7402C104.592 22.2269 104.134 21.6095 103.806 20.8879C103.478 20.1663 103.315 19.3816 103.315 18.5335ZM107.42 18.5335C107.42 19.3816 107.653 20.0622 108.12 20.5754C108.587 21.0888 109.198 21.3454 109.951 21.3454C110.689 21.3454 111.295 21.0888 111.771 20.5754C112.245 20.0622 112.484 19.3816 112.484 18.5335C112.484 17.6855 112.245 17.0048 111.771 16.4915C111.295 15.9782 110.689 15.7216 109.951 15.7216C109.198 15.7216 108.587 15.9782 108.12 16.4915C107.653 17.0048 107.42 17.6855 107.42 18.5335ZM125.919 18.5335C125.919 17.7152 125.694 17.0568 125.243 16.5585C124.793 16.06 124.207 15.8109 123.486 15.8109C122.764 15.8109 122.118 16.0712 121.544 16.592V20.4751C122.118 20.9958 122.764 21.2561 123.486 21.2561C124.207 21.2561 124.793 21.0032 125.243 20.4973C125.694 19.9915 125.919 19.3369 125.919 18.5335ZM117.537 8.06696H121.544V13.5569C122.478 12.9767 123.437 12.6865 124.42 12.6865C125.24 12.6865 125.993 12.8316 126.681 13.1217C127.37 13.4118 127.96 13.8135 128.451 14.3268C128.943 14.8401 129.324 15.4538 129.594 16.1679C129.865 16.882 130 17.6706 130 18.5335C130 19.3964 129.865 20.1849 129.594 20.8991C129.324 21.6132 128.943 22.2269 128.451 22.7402C127.96 23.2534 127.37 23.6552 126.681 23.9453C125.993 24.2354 125.24 24.3804 124.42 24.3804C123.437 24.3804 122.478 24.0904 121.544 23.5101V24.1127H117.537V8.06696Z" fill="#A6A6A6"/>
</svg>
